<?xml version="1.0" encoding="UTF-8"?>
<svg version="1.1" xmlns="http://www.w3.org/2000/svg" width="200" height="200">
<path d="M0 0 C66 0 132 0 200 0 C200 66 200 132 200 200 C134 200 68 200 0 200 C0 134 0 68 0 0 Z " fill="#251F1E" transform="translate(0,0)"/>
<path d="M0 0 C1.98 0 3.96 0 6 0 C6 8.25 6 16.5 6 25 C36.69 25 67.38 25 99 25 C99 26.65 99 28.3 99 30 C92.565 30.495 92.565 30.495 86 31 C86.99 31.99 87.98 32.98 89 34 C89.34057617 36.26831055 89.34057617 36.26831055 89.29296875 38.88671875 C89.28330078 39.82451172 89.27363281 40.76230469 89.26367188 41.72851562 C89.23853516 42.70498047 89.21339844 43.68144531 89.1875 44.6875 C89.17396484 45.67556641 89.16042969 46.66363281 89.14648438 47.68164062 C89.11112203 50.12164231 89.06177033 52.56054719 89 55 C87.02 55 85.04 55 83 55 C83 48.07 83 41.14 83 34 C80.03 34 77.06 34 74 34 C74 40.6 74 47.2 74 54 C72.35 54 70.7 54 69 54 C69 47.4 69 40.8 69 34 C66.03 34 63.06 34 60 34 C60 40.93 60 47.86 60 55 C58.02 55 56.04 55 54 55 C53.88395321 51.5627834 53.81280492 48.12606914 53.75 44.6875 C53.71648437 43.71103516 53.68296875 42.73457031 53.6484375 41.72851562 C53.62910156 40.32182617 53.62910156 40.32182617 53.609375 38.88671875 C53.5779541 37.59060669 53.5779541 37.59060669 53.54589844 36.26831055 C54 34 54 34 56.02441406 32.19458008 C56.67635742 31.80036865 57.32830078 31.40615723 58 31 C55.69 30.67 53.38 30.34 51 30 C51.02618408 30.57967529 51.05236816 31.15935059 51.0793457 31.7565918 C51.18370612 34.39994875 51.24844327 37.04287199 51.3125 39.6875 C51.35439453 40.59951172 51.39628906 41.51152344 51.43945312 42.45117188 C51.52109844 46.94166431 51.46957041 49.29740969 48.921875 53.109375 C45.3321175 55.43215927 43.19020763 55.63982196 38.9375 55.5625 C37.12572266 55.56443359 37.12572266 55.56443359 35.27734375 55.56640625 C32 55 32 55 29.58203125 53.29296875 C27.66982977 50.52145698 27.57478468 49.07909109 27.75 45.75 C27.78609375 44.85796875 27.8221875 43.9659375 27.859375 43.046875 C27.90578125 42.37140625 27.9521875 41.6959375 28 41 C28.66 41 29.32 41 30 41 C30 41.66 30 42.32 30 43 C30.66 43 31.32 43 32 43 C32 45.31 32 47.62 32 50 C36.29 50 40.58 50 45 50 C45.33 43.4 45.66 36.8 46 30 C41.38 30 36.76 30 32 30 C32 31.65 32 33.3 32 35 C29.5 33.625 29.5 33.625 27 32 C27 31.34 27 30.68 27 30 C24.69 30 22.38 30 20 30 C20.48895752 30.50305664 20.97791504 31.00611328 21.48168945 31.52441406 C23.52783581 34.86062955 23.37666119 37.81934589 23.29296875 41.609375 C23.28872391 42.33618469 23.28447906 43.06299438 23.28010559 43.81182861 C23.2633613 46.12493504 23.22571885 48.43715855 23.1875 50.75 C23.17244758 52.32160197 23.15876015 53.89321764 23.14648438 55.46484375 C23.11347195 59.31023415 23.06172056 63.15496756 23 67 C21.35 67 19.7 67 18 67 C18 56.44 18 45.88 18 35 C14.04 35 10.08 35 6 35 C6 41.6 6 48.2 6 55 C4.02 55 2.04 55 0 55 C0 46.75 0 38.5 0 30 C-0.99 30 -1.98 30 -3 30 C-2.97381592 30.57967529 -2.94763184 31.15935059 -2.9206543 31.7565918 C-2.81629388 34.39994875 -2.75155673 37.04287199 -2.6875 39.6875 C-2.64560547 40.59951172 -2.60371094 41.51152344 -2.56054688 42.45117188 C-2.47930671 46.91938071 -2.53796409 49.2990104 -5.046875 53.10546875 C-8.77656572 55.49819362 -11.15132627 55.6688051 -15.5625 55.625 C-17.51349609 55.64433594 -17.51349609 55.64433594 -19.50390625 55.6640625 C-23 55 -23 55 -25.4296875 52.7421875 C-27.75324104 48.68463879 -27.88739143 45.54377276 -27 41 C-25.3125 37.9375 -25.3125 37.9375 -22 36 C-17.63401204 35.59828682 -13.37055979 35.71204218 -9 36 C-9 34.02 -9 32.04 -9 30 C-13.29 30 -17.58 30 -22 30 C-22 31.65 -22 33.3 -22 35 C-23.9375 34.1875 -23.9375 34.1875 -26 33 C-26.33 32.01 -26.66 31.02 -27 30 C-30.3 30 -33.6 30 -37 30 C-37 31.65 -37 33.3 -37 35 C-35.35 35 -33.7 35 -32 35 C-32 36.32 -32 37.64 -32 39 C-35.0638808 39.43769726 -37.16604909 39.60855877 -39.734375 37.734375 C-41.28471706 36.21356327 -42.71840855 34.75423511 -44 33 C-44 31 -44 31 -42.77732849 29.51278687 C-38.78189522 25.81221054 -36.03211535 24.31687432 -30.56568909 24.32022095 C-29.79248825 24.35118866 -29.01928741 24.38215637 -28.22265625 24.4140625 C-27.00563271 24.42679703 -27.00563271 24.42679703 -25.76402283 24.43978882 C-23.19544541 24.47313631 -20.63011348 24.54836921 -18.0625 24.625 C-16.3118946 24.65512421 -14.56123953 24.68249571 -12.81054688 24.70703125 C-8.53813637 24.76774765 -4.27265984 24.88515499 0 25 C0 16.75 0 8.5 0 0 Z " fill="#907739" transform="translate(72,125)"/>
<path d="M0 0 C4.78128076 2.39064038 8.66522223 4.76237039 12 9 C13.13844306 12.71997323 13.12450569 16.25158021 13.0625 20.12109375 C13.07015381 21.17982193 13.07780762 22.23855011 13.08569336 23.32936096 C13.09111957 25.56084004 13.07647996 27.79244761 13.04296875 30.02368164 C13.00014982 33.42559733 13.04256402 36.8190504 13.09375 40.22070312 C13.08846237 42.39585185 13.07821013 44.57099533 13.0625 46.74609375 C13.07869385 47.75465927 13.0948877 48.76322479 13.11157227 49.80235291 C12.96103701 55.52007748 12.10206254 58.53425617 8.05859375 62.70336914 C4.40831494 66 4.40831494 66 2 66 C1.505 67.485 1.505 67.485 1 69 C-30.25898935 71.1669047 -30.25898935 71.1669047 -37.54785156 65.72363281 C-42.70903731 60.4860879 -44.1966292 54.21603589 -44.5 47 C-44.201785 39.74502007 -42.67604304 33.5235528 -37.47753906 28.27636719 C-27.97729564 21.16578812 -11.13612214 24.26124005 0 25 C0 16.75 0 8.5 0 0 Z " fill="#9C843E" transform="translate(115,27)"/>
<path d="M0 0 C2.97 0 5.94 0 9 0 C9 6.6 9 13.2 9 20 C10.65 20 12.3 20 14 20 C14 13.4 14 6.8 14 0 C16.97 0 19.94 0 23 0 C23 0.33 23 0.66 23 1 C20.36 1 17.72 1 15 1 C15.495 4.96 15.495 4.96 16 9 C16.33 9 16.66 9 17 9 C17 11.64 17 14.28 17 17 C17.66 17 18.32 17 19 17 C19 18.65 19 20.3 19 22 C19.99 20.68 20.98 19.36 22 18 C22.495 20.475 22.495 20.475 23 23 C22.34 23 21.68 23 21 23 C21 23.66 21 24.32 21 25 C21.99 25 22.98 25 24 25 C24 24.34 24 23.68 24 23 C25.98 23 27.96 23 30 23 C30.495 24.485 30.495 24.485 31 26 C30.505 26.495 30.505 26.495 30 27 C32.64 27.33 35.28 27.66 38 28 C38 29.65 38 31.3 38 33 C35.03 33 32.06 33 29 33 C29 33.66 29 34.32 29 35 C28.33613281 34.855625 27.67226562 34.71125 26.98828125 34.5625 C26.10527344 34.376875 25.22226563 34.19125 24.3125 34 C23.00732422 33.7215625 23.00732422 33.7215625 21.67578125 33.4375 C17.73002467 32.7923544 14.8088853 32.73037157 11 34 C9.00038436 34.03920815 6.99950636 34.04443347 5 34 C5.495 37.465 5.495 37.465 6 41 C-2.91 41 -11.82 41 -21 41 C-20.505 38.03 -20.505 38.03 -20 35 C-24.50353262 33.24252386 -28.17639811 32.80705592 -33 33 C-33 30.69 -33 28.38 -33 26 C-30.625 25.875 -30.625 25.875 -28 26 C-27.34 26.66 -26.68 27.32 -26 28 C-23.78927023 28.24253813 -23.78927023 28.24253813 -21.375 28.125 C-20.55773437 28.10695312 -19.74046875 28.08890625 -18.8984375 28.0703125 C-17.95871094 28.03550781 -17.95871094 28.03550781 -17 28 C-16.67 27.34 -16.34 26.68 -16 26 C-16 26.66 -16 27.32 -16 28 C-12.37 28 -8.74 28 -5 28 C-4.67 26.35 -4.34 24.7 -4 23 C-2.35 22.34 -0.7 21.68 1 21 C1.33 14.4 1.66 7.8 2 1 C1.34 0.67 0.68 0.34 0 0 Z " fill="#2A2220" transform="translate(132,159)"/>
<path d="M0 0 C1.98 0 3.96 0 6 0 C6 8.25 6 16.5 6 25 C5.67 25 5.34 25 5 25 C5 17.41 5 9.82 5 2 C3.59443647 3.1717329 3.59443647 3.1717329 3.97265625 6.45703125 C4.01084541 8.64185297 4.06288277 10.82554896 4.12695312 13.00976562 C4.18667203 16.84933984 4.17607309 19.7486908 2 23 C2.66 23 3.32 23 4 23 C3.505 25.475 3.505 25.475 3 28 C1.68 28 0.36 28 -1 28 C-0.34 28.33 0.32 28.66 1 29 C1 37.25 1 45.5 1 54 C2.32 54 3.64 54 5 54 C5 47.73 5 41.46 5 35 C5.33 35 5.66 35 6 35 C6 41.6 6 48.2 6 55 C4.02 55 2.04 55 0 55 C0 46.75 0 38.5 0 30 C-0.99 30 -1.98 30 -3 30 C-2.97381592 30.57967529 -2.94763184 31.15935059 -2.9206543 31.7565918 C-2.81629388 34.39994875 -2.75155673 37.04287199 -2.6875 39.6875 C-2.64560547 40.59951172 -2.60371094 41.51152344 -2.56054688 42.45117188 C-2.47930671 46.91938071 -2.53796409 49.2990104 -5.046875 53.10546875 C-8.77656572 55.49819362 -11.15132627 55.6688051 -15.5625 55.625 C-17.51349609 55.64433594 -17.51349609 55.64433594 -19.50390625 55.6640625 C-23 55 -23 55 -25.4296875 52.7421875 C-27.75324104 48.68463879 -27.88739143 45.54377276 -27 41 C-25.3125 37.9375 -25.3125 37.9375 -22 36 C-17.63401204 35.59828682 -13.37055979 35.71204218 -9 36 C-9 34.02 -9 32.04 -9 30 C-13.29 30 -17.58 30 -22 30 C-22 31.65 -22 33.3 -22 35 C-23.9375 34.1875 -23.9375 34.1875 -26 33 C-26.33 32.01 -26.66 31.02 -27 30 C-30.3 30 -33.6 30 -37 30 C-37 31.65 -37 33.3 -37 35 C-35.35 35 -33.7 35 -32 35 C-32 36.32 -32 37.64 -32 39 C-35.0638808 39.43769726 -37.16604909 39.60855877 -39.734375 37.734375 C-41.28471706 36.21356327 -42.71840855 34.75423511 -44 33 C-44 31 -44 31 -42.77732849 29.51278687 C-38.78189522 25.81221054 -36.03211535 24.31687432 -30.56568909 24.32022095 C-29.79248825 24.35118866 -29.01928741 24.38215637 -28.22265625 24.4140625 C-27.00563271 24.42679703 -27.00563271 24.42679703 -25.76402283 24.43978882 C-23.19544541 24.47313631 -20.63011348 24.54836921 -18.0625 24.625 C-16.3118946 24.65512421 -14.56123953 24.68249571 -12.81054688 24.70703125 C-8.53813637 24.76774765 -4.27265984 24.88515499 0 25 C0 16.75 0 8.5 0 0 Z " fill="#8D7739" transform="translate(72,125)"/>
<path d="M0 0 C6.4 -0.49230769 6.4 -0.49230769 9.4375 2 C10.2109375 2.99 10.2109375 2.99 11 4 C11.33 2.68 11.66 1.36 12 0 C16.62 0 21.24 0 26 0 C26.02696009 2.7708983 26.04681952 5.5415345 26.0625 8.3125 C26.07087891 9.09818359 26.07925781 9.88386719 26.08789062 10.69335938 C26.09272461 11.8293457 26.09272461 11.8293457 26.09765625 12.98828125 C26.10551147 14.03302612 26.10551147 14.03302612 26.11352539 15.09887695 C26 17 26 17 25 20 C20.71 20 16.42 20 12 20 C12 17.69 12 15.38 12 13 C11.34 13 10.68 13 10 13 C10 12.34 10 11.68 10 11 C9.34 11 8.68 11 8 11 C8.08733576 12.60517097 8.19552224 14.20921662 8.3125 15.8125 C8.39951172 17.15248047 8.39951172 17.15248047 8.48828125 18.51953125 C8.84935813 20.98552165 8.84935813 20.98552165 10.109375 22.796875 C13.01022087 24.64286783 15.53712427 24.43393192 18.9375 24.4375 C20.77634766 24.46650391 20.77634766 24.46650391 22.65234375 24.49609375 C25.96810401 24.21506042 25.96810401 24.21506042 28.39453125 22.61328125 C30.9040996 18.52836342 30.67747962 14.45723163 30.75 9.75 C30.79447266 8.34621094 30.79447266 8.34621094 30.83984375 6.9140625 C30.91039804 4.60928908 30.96316252 2.30551832 31 0 C33.64 0 36.28 0 39 0 C38.35546875 0.43828125 37.7109375 0.8765625 37.046875 1.328125 C33.87814858 5.46440147 34.32436419 9.67295416 34.25 14.75 C34.20552734 16.22533203 34.20552734 16.22533203 34.16015625 17.73046875 C34.08957589 20.15372776 34.03682299 22.57603154 34 25 C35.98 25 37.96 25 40 25 C40 18.4 40 11.8 40 5 C40.66 5 41.32 5 42 5 C42.11638036 8.24969769 42.18730581 11.4988583 42.25 14.75 C42.28351563 15.67039063 42.31703125 16.59078125 42.3515625 17.5390625 C42.45152491 24.43646891 42.45152491 24.43646891 39.984375 27.515625 C39.32953125 28.00546875 38.6746875 28.4953125 38 29 C38 29.66 38 30.32 38 31 C34.68979409 33.02461432 32.67824213 33.10027622 28.875 32.5625 C23.42455757 31.93162779 18.41790214 32.23608755 13 33 C12.67 32.34 12.34 31.68 12 31 C8.97065509 30.34227572 8.97065509 30.34227572 6 30 C6 31.98 6 33.96 6 36 C5.01 36.495 5.01 36.495 4 37 C3.98541748 36.04633545 3.97083496 35.0926709 3.95581055 34.11010742 C3.89782208 30.57066415 3.82059042 27.03185676 3.73754883 23.49291992 C3.70430182 21.96144941 3.67626907 20.42985644 3.65356445 18.89819336 C3.62001282 16.69592113 3.5677009 14.49477088 3.51171875 12.29296875 C3.50532883 11.60849167 3.4989389 10.92401459 3.49235535 10.21879578 C3.39635812 6.37691844 3.39635812 6.37691844 1.46801758 3.16918945 C0.74134888 2.59044067 0.74134888 2.59044067 0 2 C0 1.34 0 0.68 0 0 Z " fill="#251E21" transform="translate(92,155)"/>
<path d="M0 0 C10.23 0 20.46 0 31 0 C31 6.6 31 13.2 31 20 C20.77 20 10.54 20 0 20 C0 13.4 0 6.8 0 0 Z " fill="#211E1F" transform="translate(84,64)"/>
<path d="M0 0 C0.99 0.33 1.98 0.66 3 1 C2.34 1.33 1.68 1.66 1 2 C1 20.15 1 38.3 1 57 C0.67 57 0.34 57 0 57 C0 50.4 0 43.8 0 37 C-10.23 37 -20.46 37 -31 37 C-31 39.64 -31 42.28 -31 45 C-37.625 46 -37.625 46 -41 46 C-41.33 49.63 -41.66 53.26 -42 57 C-42.33 57 -42.66 57 -43 57 C-44.99150589 38.33885223 -44.99150589 38.33885223 -40.27929688 31.29882812 C-36.03734973 26.40237386 -31.86043695 24.84083527 -25.38380432 24.37542725 C-16.90080518 23.99189549 -8.46526114 24.43842248 0 25 C0 16.75 0 8.5 0 0 Z " fill="#9C813D" transform="translate(115,27)"/>
<path d="M0 0 C0.66 0 1.32 0 2 0 C2.33 7.59 2.66 15.18 3 23 C16.86 23.33 30.72 23.66 45 24 C45 24.99 45 25.98 45 27 C44.34 26.67 43.68 26.34 43 26 C43 26.66 43 27.32 43 28 C38.38 28 33.76 28 29 28 C29 29.65 29 31.3 29 33 C26.5 31.625 26.5 31.625 24 30 C24 29.34 24 28.68 24 28 C21.69 28 19.38 28 17 28 C17.48895752 28.50305664 17.97791504 29.00611328 18.48168945 29.52441406 C20.52783581 32.86062955 20.37666119 35.81934589 20.29296875 39.609375 C20.28872391 40.33618469 20.28447906 41.06299438 20.28010559 41.81182861 C20.2633613 44.12493504 20.22571885 46.43715855 20.1875 48.75 C20.17244758 50.32160197 20.15876015 51.89321764 20.14648438 53.46484375 C20.11347195 57.31023415 20.06172056 61.15496756 20 65 C18.35 65 16.7 65 15 65 C15 54.44 15 43.88 15 33 C10.71 33 6.42 33 2 33 C2 39.27 2 45.54 2 52 C0.68 52 -0.64 52 -2 52 C-2 43.75 -2 35.5 -2 27 C-3.32 26.67 -4.64 26.34 -6 26 C-4.68 25.34 -3.36 24.68 -2 24 C-1.67 24.33 -1.34 24.66 -1 25 C-0.34 24.67 0.32 24.34 1 24 C1 23.01 1 22.02 1 21 C0.34 21 -0.32 21 -1 21 C-1 17.04 -1 13.08 -1 9 C-0.67 9 -0.34 9 0 9 C0 6.03 0 3.06 0 0 Z " fill="#A3863D" transform="translate(75,127)"/>
<path d="M0 0 C0.33 0.66 0.66 1.32 1 2 C1.66 2 2.32 2 3 2 C3.28441048 5.41471446 3.52147767 8.83112664 3.75 12.25 C3.83121094 13.21808594 3.91242188 14.18617188 3.99609375 15.18359375 C4.43434868 22.24436763 4.43434868 22.24436763 2.484375 25.63671875 C-0.94875845 27.52062374 -3.59710319 27.56634143 -7.5 27.5625 C-9.46453125 27.59537109 -9.46453125 27.59537109 -11.46875 27.62890625 C-15 27 -15 27 -17.43359375 24.74609375 C-19.75012001 20.6849517 -19.88746028 17.54412534 -19 13 C-17.3125 9.9375 -17.3125 9.9375 -14 8 C-9.63401204 7.59828682 -5.37055979 7.71204218 -1 8 C-1.020625 7.05125 -1.04125 6.1025 -1.0625 5.125 C-1 2 -1 2 0 0 Z " fill="#A48D46" transform="translate(64,153)"/>
<path d="M0 0 C2.64 0 5.28 0 8 0 C7.35546875 0.43828125 6.7109375 0.8765625 6.046875 1.328125 C2.87814858 5.46440147 3.32436419 9.67295416 3.25 14.75 C3.20552734 16.22533203 3.20552734 16.22533203 3.16015625 17.73046875 C3.08957589 20.15372776 3.03682299 22.57603154 3 25 C4.98 25 6.96 25 9 25 C9 18.4 9 11.8 9 5 C9.66 5 10.32 5 11 5 C11.11638036 8.24969769 11.18730581 11.4988583 11.25 14.75 C11.28351563 15.67039063 11.31703125 16.59078125 11.3515625 17.5390625 C11.45152491 24.43646891 11.45152491 24.43646891 8.984375 27.515625 C8.32953125 28.00546875 7.6746875 28.4953125 7 29 C7 29.66 7 30.32 7 31 C3.68979409 33.02461432 1.67824213 33.10027622 -2.125 32.5625 C-7.57544243 31.93162779 -12.58209786 32.23608755 -18 33 C-17.125 29.125 -17.125 29.125 -16 28 C-14.15108054 27.76636119 -12.29511969 27.58696365 -10.4375 27.4375 C-9.42558594 27.35371094 -8.41367188 27.26992187 -7.37109375 27.18359375 C-6.58863281 27.12300781 -5.80617188 27.06242187 -5 27 C-4.896875 26.401875 -4.79375 25.80375 -4.6875 25.1875 C-4 23 -4 23 -2.48901367 21.6550293 C-0.54299542 19.49204229 -0.57995645 18.21063265 -0.48828125 15.33203125 C-0.45283203 14.43935547 -0.41738281 13.54667969 -0.38085938 12.62695312 C-0.35830078 11.69818359 -0.33574219 10.76941406 -0.3125 9.8125 C-0.27833984 8.87212891 -0.24417969 7.93175781 -0.20898438 6.96289062 C-0.12651782 4.64204607 -0.05736597 2.32157852 0 0 Z " fill="#261E1C" transform="translate(123,155)"/>
<path d="M0 0 C0.33 0 0.66 0 1 0 C1.02696009 2.7708983 1.04681952 5.5415345 1.0625 8.3125 C1.07087891 9.09818359 1.07925781 9.88386719 1.08789062 10.69335938 C1.09272461 11.8293457 1.09272461 11.8293457 1.09765625 12.98828125 C1.10551147 14.03302612 1.10551147 14.03302612 1.11352539 15.09887695 C1 17 1 17 0 20 C-4.29 20 -8.58 20 -13 20 C-13 17.69 -13 15.38 -13 13 C-13.66 13 -14.32 13 -15 13 C-15 12.34 -15 11.68 -15 11 C-15.66 10.67 -16.32 10.34 -17 10 C-14.65511755 7.05148444 -13.57666013 6.06964494 -9.765625 5.609375 C-8.60546875 5.65578125 -7.4453125 5.7021875 -6.25 5.75 C-5.07953125 5.78609375 -3.9090625 5.8221875 -2.703125 5.859375 C-1.81109375 5.90578125 -0.9190625 5.9521875 0 6 C0 4.02 0 2.04 0 0 Z " fill="#735D32" transform="translate(117,155)"/>
<path d="M0 0 C3.63 0 7.26 0 11 0 C11 6 11 12 11 18 C11.94978897 20.15028304 11.94978897 20.15028304 13 22 C7.8002814 21.30791837 5.20462884 19.30982478 1.60546875 15.609375 C-1.37453911 10.7659559 -0.60079985 5.47395417 0 0 Z " fill="#9E8842" transform="translate(73,72)"/>
<path d="M0 0 C2.375 -0.125 2.375 -0.125 5 0 C5.66 0.66 6.32 1.32 7 2 C9.21072977 2.24253813 9.21072977 2.24253813 11.625 2.125 C12.44226563 2.10695312 13.25953125 2.08890625 14.1015625 2.0703125 C14.72804688 2.04710937 15.35453125 2.02390625 16 2 C16.33 1.34 16.66 0.68 17 0 C17 0.66 17 1.32 17 2 C22.94 2 28.88 2 35 2 C34.67 3.65 34.34 5.3 34 7 C31.36 7 28.72 7 26 7 C26 6.01 26 5.02 26 4 C25.34 4 24.68 4 24 4 C24 4.99 24 5.98 24 7 C23.34 7 22.68 7 22 7 C22 7.66 22 8.32 22 9 C20.68 9 19.36 9 18 9 C18 8.34 18 7.68 18 7 C12.06 7 6.12 7 0 7 C0 4.69 0 2.38 0 0 Z " fill="#9F9E9D" transform="translate(99,185)"/>
<path d="M0 0 C0.10826289 2.4178712 0.18739789 4.83087556 0.25 7.25 C0.30027344 8.27287109 0.30027344 8.27287109 0.3515625 9.31640625 C0.41553964 12.61122901 0.22012762 14.65782142 -1.578125 17.453125 C-4.84152931 19.53749291 -7.14830404 19.53264149 -11 19.5 C-12.8253125 19.51546875 -12.8253125 19.51546875 -14.6875 19.53125 C-18 19 -18 19 -20.421875 17.296875 C-22.32771785 14.52302451 -22.42514271 13.07771147 -22.25 9.75 C-22.21390625 8.85796875 -22.1778125 7.9659375 -22.140625 7.046875 C-22.09421875 6.37140625 -22.0478125 5.6959375 -22 5 C-21.34 5 -20.68 5 -20 5 C-20 5.66 -20 6.32 -20 7 C-19.34 7 -18.68 7 -18 7 C-18 9.31 -18 11.62 -18 14 C-13.71 14 -9.42 14 -5 14 C-4.896875 12.246875 -4.79375 10.49375 -4.6875 8.6875 C-4.38103217 3.47754692 -4.38103217 3.47754692 -2.51953125 1.14453125 C-1 0 -1 0 0 0 Z " fill="#9D8740" transform="translate(122,161)"/>
<path d="M0 0 C0 0.66 0 1.32 0 2 C4.62 2 9.24 2 14 2 C14 3.65 14 5.3 14 7 C11.03 7 8.06 7 5 7 C5 7.66 5 8.32 5 9 C4.33613281 8.855625 3.67226562 8.71125 2.98828125 8.5625 C2.10527344 8.376875 1.22226563 8.19125 0.3125 8 C-0.55761719 7.814375 -1.42773438 7.62875 -2.32421875 7.4375 C-6.26997533 6.7923544 -9.1911147 6.73037157 -13 8 C-15.00875442 7.72428861 -17.01178687 7.39764263 -19 7 C-19 5.02 -19 3.04 -19 1 C-18.35933594 1.09539062 -17.71867188 1.19078125 -17.05859375 1.2890625 C-10.64229233 2.11142006 -6.01541613 0 0 0 Z " fill="#7B7978" transform="translate(156,185)"/>
<path d="M0 0 C1.98 0 3.96 0 6 0 C6 8.25 6 16.5 6 25 C5.67 25 5.34 25 5 25 C5 17.41 5 9.82 5 2 C3.59443647 3.1717329 3.59443647 3.1717329 3.97265625 6.45703125 C4.01084541 8.64185297 4.06288277 10.82554896 4.12695312 13.00976562 C4.18667203 16.84933984 4.17607309 19.7486908 2 23 C2.66 23 3.32 23 4 23 C3.505 25.475 3.505 25.475 3 28 C2.34 28 1.68 28 1 28 C1 27.34 1 26.68 1 26 C-11.54 26 -24.08 26 -37 26 C-37 25.67 -37 25.34 -37 25 C-24.79 25 -12.58 25 0 25 C0 16.75 0 8.5 0 0 Z " fill="#846F34" transform="translate(72,125)"/>
<path d="M0 0 C2.64 0 5.28 0 8 0 C7.35546875 0.43828125 6.7109375 0.8765625 6.046875 1.328125 C2.87814858 5.46440147 3.32436419 9.67295416 3.25 14.75 C3.22035156 15.73355469 3.19070312 16.71710938 3.16015625 17.73046875 C3.08957589 20.15372776 3.03682299 22.57603154 3 25 C4.98 25 6.96 25 9 25 C9 18.4 9 11.8 9 5 C9.66 5 10.32 5 11 5 C11.05790353 8.29159316 11.09356261 11.58305603 11.125 14.875 C11.14175781 15.81214844 11.15851563 16.74929687 11.17578125 17.71484375 C11.18222656 18.61074219 11.18867188 19.50664062 11.1953125 20.4296875 C11.20578613 21.25710449 11.21625977 22.08452148 11.22705078 22.93701172 C11 25 11 25 9 27 C5.375 26.625 5.375 26.625 2 26 C1.67 24.68 1.34 23.36 1 22 C0.34 22 -0.32 22 -1 22 C-0.67 14.74 -0.34 7.48 0 0 Z " fill="#1B151D" transform="translate(123,155)"/>
<path d="M0 0 C2.97 0 5.94 0 9 0 C9 0.33 9 0.66 9 1 C6.36 1 3.72 1 1 1 C1.33 3.64 1.66 6.28 2 9 C2.33 9 2.66 9 3 9 C3 11.64 3 14.28 3 17 C3.66 17 4.32 17 5 17 C5 18.65 5 20.3 5 22 C5.99 20.68 6.98 19.36 8 18 C8.33 19.65 8.66 21.3 9 23 C8.34 23 7.68 23 7 23 C7 23.66 7 24.32 7 25 C7.99 25 8.98 25 10 25 C10 24.34 10 23.68 10 23 C11.98 23 13.96 23 16 23 C16.33 23.99 16.66 24.98 17 26 C16.67 26.66 16.34 27.32 16 28 C14.02 28 12.04 28 10 28 C10 27.34 10 26.68 10 26 C9.34 26 8.68 26 8 26 C8 27.98 8 29.96 8 32 C7.67 32 7.34 32 7 32 C7 30.35 7 28.7 7 27 C5.02 27.33 3.04 27.66 1 28 C0.67 27.01 0.34 26.02 0 25 C0.66 25 1.32 25 2 25 C2 24.34 2 23.68 2 23 C1.401875 22.87625 0.80375 22.7525 0.1875 22.625 C-2 22 -2 22 -5 20 C-3.35 20 -1.7 20 0 20 C0 13.4 0 6.8 0 0 Z " fill="#332922" transform="translate(146,159)"/>
<path d="M0 0 C3.69230769 0.69230769 3.69230769 0.69230769 5 2 C5.08685603 3.56172745 5.10702219 5.12729344 5.09765625 6.69140625 C5.09443359 7.63564453 5.09121094 8.57988281 5.08789062 9.55273438 C5.07951172 10.54595703 5.07113281 11.53917969 5.0625 12.5625 C5.05798828 13.55958984 5.05347656 14.55667969 5.04882812 15.58398438 C5.03700007 18.05604849 5.02051849 20.52799518 5 23 C3.02 23 1.04 23 -1 23 C-1.02887512 19.35418313 -1.04675585 15.70839537 -1.0625 12.0625 C-1.07087891 11.02158203 -1.07925781 9.98066406 -1.08789062 8.90820312 C-1.09272461 7.42416992 -1.09272461 7.42416992 -1.09765625 5.91015625 C-1.10289307 4.99371338 -1.10812988 4.07727051 -1.11352539 3.13305664 C-1 1 -1 1 0 0 Z " fill="#B59D58" transform="translate(156,157)"/>
<path d="M0 0 C0.99 0.33 1.98 0.66 3 1 C2.34 1.33 1.68 1.66 1 2 C1 20.15 1 38.3 1 57 C0.67 57 0.34 57 0 57 C0 50.4 0 43.8 0 37 C-10.56 37 -21.12 37 -32 37 C-32 36.67 -32 36.34 -32 36 C-17.15 35.505 -17.15 35.505 -2 35 C-0.59276439 29.44189396 -0.59276439 29.44189396 -2 26 C-11.57 26 -21.14 26 -31 26 C-31 25.67 -31 25.34 -31 25 C-20.77 25 -10.54 25 0 25 C0 16.75 0 8.5 0 0 Z " fill="#846E34" transform="translate(115,27)"/>
<path d="M0 0 C4.29 0 8.58 0 13 0 C13 1.98 13 3.96 13 6 C11.64455078 6.05607422 11.64455078 6.05607422 10.26171875 6.11328125 C9.08222656 6.17902344 7.90273437 6.24476563 6.6875 6.3125 C5.51574219 6.37050781 4.34398438 6.42851562 3.13671875 6.48828125 C0.07626999 6.77133167 0.07626999 6.77133167 -1.875 8.21875 C-3.36114767 10.57181714 -3.50794148 12.42229886 -3.6875 15.1875 C-3.75324219 16.08855469 -3.81898437 16.98960937 -3.88671875 17.91796875 C-3.92410156 18.60503906 -3.96148437 19.29210937 -4 20 C-4.99 19.67 -5.98 19.34 -7 19 C-7 14.05 -7 9.1 -7 4 C-6.34 3.67 -5.68 3.34 -5 3 C-5 3.66 -5 4.32 -5 5 C-3.68 4.67 -2.36 4.34 -1 4 C-0.67 2.68 -0.34 1.36 0 0 Z " fill="#322922" transform="translate(104,155)"/>
<path d="M0 0 C0.66 0.66 1.32 1.32 2 2 C3.98387708 3.03161608 5.98276656 4.03523618 8 5 C8 7.31 8 9.62 8 12 C1.375 13 1.375 13 -2 13 C-2.33 16.63 -2.66 20.26 -3 24 C-3.33 24 -3.66 24 -4 24 C-4.11638036 20.75030231 -4.18730581 17.5011417 -4.25 14.25 C-4.28351563 13.32960938 -4.31703125 12.40921875 -4.3515625 11.4609375 C-4.45112665 4.59101089 -4.45112665 4.59101089 -1.984375 1.359375 C-1.32953125 0.91078125 -0.6746875 0.4621875 0 0 Z " fill="#8C6C35" transform="translate(76,60)"/>
<path d="M0 0 C14.52 0 29.04 0 44 0 C44 0.99 44 1.98 44 3 C39.38 3 34.76 3 30 3 C30 2.34 30 1.68 30 1 C28.02 1 26.04 1 24 1 C24 1.66 24 2.32 24 3 C15.09 3 6.18 3 -3 3 C-2.01 2.67 -1.02 2.34 0 2 C0 1.34 0 0.68 0 0 Z " fill="#A4893E" transform="translate(126,151)"/>
<path d="M0 0 C1.65322266 0.01740234 1.65322266 0.01740234 3.33984375 0.03515625 C4.99693359 0.04869141 4.99693359 0.04869141 6.6875 0.0625 C7.54214844 0.07410156 8.39679687 0.08570313 9.27734375 0.09765625 C9.27734375 3.06765625 9.27734375 6.03765625 9.27734375 9.09765625 C4.98734375 9.09765625 0.69734375 9.09765625 -3.72265625 9.09765625 C-3.8203125 2.9453125 -3.8203125 2.9453125 -3.72265625 1.09765625 C-2.72265625 0.09765625 -2.72265625 0.09765625 0 0 Z " fill="#342720" transform="translate(53.72265625,165.90234375)"/>
<path d="M0 0 C0.495 1.485 0.495 1.485 1 3 C1.99 3.33 2.98 3.66 4 4 C4.66 4.99 5.32 5.98 6 7 C2.535 9.97 2.535 9.97 -1 13 C-1.495 10.525 -1.495 10.525 -2 8 C-2.33 9.65 -2.66 11.3 -3 13 C-3.99 12.67 -4.98 12.34 -6 12 C-6 9.69 -6 7.38 -6 5 C-15.57 5 -25.14 5 -35 5 C-35 4.67 -35 4.34 -35 4 C-33.5162085 3.97812622 -33.5162085 3.97812622 -32.00244141 3.95581055 C-28.33817081 3.8979103 -24.67452015 3.82067848 -21.01074219 3.73754883 C-19.42393035 3.7042602 -17.83699897 3.67624053 -16.25 3.65356445 C-13.97083516 3.62008922 -11.69276959 3.5677814 -9.4140625 3.51171875 C-8.70255035 3.50532883 -7.99103821 3.4989389 -7.25796509 3.49235535 C-5.0399544 3.45990352 -5.0399544 3.45990352 -2 3 C-1.34 2.01 -0.68 1.02 0 0 Z " fill="#907A3A" transform="translate(119,80)"/>
<path d="M0 0 C3.96 0 7.92 0 12 0 C12 2.64 12 5.28 12 8 C8.04 8 4.08 8 0 8 C0 5.36 0 2.72 0 0 Z " fill="#261D1C" transform="translate(105,167)"/>
<path d="M0 0 C3.63 0 7.26 0 11 0 C11 3.63 11 7.26 11 11 C7.64707182 10.16176796 5.98928241 9.59960094 3.25 7.75 C2.63640625 7.35296875 2.0228125 6.9559375 1.390625 6.546875 C0 5 0 5 0 0 Z " fill="#9C863E" transform="translate(73,27)"/>
<path d="M0 0 C12.87 0 25.74 0 39 0 C39 0.33 39 0.66 39 1 C34.71 1 30.42 1 26 1 C26 2.65 26 4.3 26 6 C23.5 4.625 23.5 4.625 21 3 C21 2.34 21 1.68 21 1 C18.69 1 16.38 1 14 1 C13.34 2.65 12.68 4.3 12 6 C8.37 6 4.74 6 1 6 C1 5.67 1 5.34 1 5 C3.64 5 6.28 5 9 5 C9 4.01 9 3.02 9 2 C6.03 2 3.06 2 0 2 C0 1.34 0 0.68 0 0 Z " fill="#8D7338" transform="translate(78,154)"/>
<path d="M0 0 C0.33 0.99 0.66 1.98 1 3 C1.99 3 2.98 3 4 3 C4.02692484 5.29160319 4.04636124 7.58329546 4.0625 9.875 C4.07410156 11.15117187 4.08570313 12.42734375 4.09765625 13.7421875 C4 17 4 17 3 19 C3.66 19.33 4.32 19.66 5 20 C5 13.73 5 7.46 5 1 C5.33 1 5.66 1 6 1 C6 7.6 6 14.2 6 21 C4.02 21 2.04 21 0 21 C0 14.07 0 7.14 0 0 Z " fill="#897335" transform="translate(126,159)"/>
<path d="M0 0 C0.33 0 0.66 0 1 0 C1.33 6.27 1.66 12.54 2 19 C3.65 19.33 5.3 19.66 7 20 C8.4375 21.8125 8.4375 21.8125 9 24 C8.125 26.25 8.125 26.25 7 28 C6.01 27.01 5.02 26.02 4 25 C4.33 24.67 4.66 24.34 5 24 C3.7625 24.20625 2.525 24.4125 1.25 24.625 C-2.11909835 25.06107124 -4.12841921 25.03403639 -7 23 C-6.34 22.34 -5.68 21.68 -5 21 C-4.01 21 -3.02 21 -2 21 C-2 20.34 -2 19.68 -2 19 C-1.34 19 -0.68 19 0 19 C0 12.73 0 6.46 0 0 Z " fill="#211B19" transform="translate(139,160)"/>
<path d="M0 0 C0.33 0.66 0.66 1.32 1 2 C1.66 2 2.32 2 3 2 C3.33 8.93 3.66 15.86 4 23 C2.35 23.66 0.7 24.32 -1 25 C-0.67 16.75 -0.34 8.5 0 0 Z " fill="#A78B3E" transform="translate(64,153)"/>
<path d="M0 0 C7.26 0 14.52 0 22 0 C21 2 21 2 19.21875 2.62890625 C16.1820701 3.13680166 13.28450228 2.97108315 10.21875 2.83984375 C7.67318854 3.02359026 6.15118388 3.64607506 4 5 C3.67 5.66 3.34 6.32 3 7 C1.68 6.34 0.36 5.68 -1 5 C-1 2 -1 2 0 0 Z " fill="#A0873E" transform="translate(84,85)"/>
<path d="M0 0 C0.33 0 0.66 0 1 0 C1.66 5.61 2.32 11.22 3 17 C5.05922402 14.94077598 4.41427579 10.78291876 4.5625 7.9375 C4.62727539 6.79958008 4.62727539 6.79958008 4.69335938 5.63867188 C4.79973633 3.75934562 4.90039934 1.87969756 5 0 C5.33 0 5.66 0 6 0 C6 6.93 6 13.86 6 21 C4.02 21 2.04 21 0 21 C0 14.07 0 7.14 0 0 Z " fill="#7D6A37" transform="translate(155,159)"/>
<path d="M0 0 C3.96 0 7.92 0 12 0 C12 1.98 12 3.96 12 6 C8.04 6 4.08 6 0 6 C0.33 4.68 0.66 3.36 1 2 C0.67 1.34 0.34 0.68 0 0 Z " fill="#261F1C" transform="translate(105,155)"/>
<path d="M0 0 C3.3125 -0.25 3.3125 -0.25 7 0 C8.9375 2 8.9375 2 10 4 C9.67 4.66 9.34 5.32 9 6 C8.01 5.34 7.02 4.68 6 4 C5.67 14.89 5.34 25.78 5 37 C4.67 37 4.34 37 4 37 C3.98541748 36.04633545 3.97083496 35.0926709 3.95581055 34.11010742 C3.89782208 30.57066415 3.82059042 27.03185676 3.73754883 23.49291992 C3.70430182 21.96144941 3.67626907 20.42985644 3.65356445 18.89819336 C3.62001282 16.69592113 3.5677009 14.49477088 3.51171875 12.29296875 C3.50532883 11.60849167 3.4989389 10.92401459 3.49235535 10.21879578 C3.39635812 6.37691844 3.39635812 6.37691844 1.46801758 3.16918945 C0.74134888 2.59044067 0.74134888 2.59044067 0 2 C0 1.34 0 0.68 0 0 Z " fill="#161019" transform="translate(92,155)"/>
<path d="M0 0 C0.33 1.32 0.66 2.64 1 4 C3.97 4.495 3.97 4.495 7 5 C7 5.33 7 5.66 7 6 C4.36 6 1.72 6 -1 6 C-1.33 6.66 -1.66 7.32 -2 8 C-4.50390625 8.4140625 -4.50390625 8.4140625 -7.5625 8.625 C-8.57441406 8.69976562 -9.58632812 8.77453125 -10.62890625 8.8515625 C-11.41136719 8.90054688 -12.19382812 8.94953125 -13 9 C-12.125 5.125 -12.125 5.125 -11 4 C-9.15108054 3.76636119 -7.29511969 3.58696365 -5.4375 3.4375 C-4.42558594 3.35371094 -3.41367188 3.26992187 -2.37109375 3.18359375 C-1.58863281 3.12300781 -0.80617188 3.06242188 0 3 C0 2.01 0 1.02 0 0 Z " fill="#2A221F" transform="translate(118,179)"/>
<path d="M0 0 C3.3 0.33 6.6 0.66 10 1 C10.33 2.32 10.66 3.64 11 5 C11.66 5 12.32 5 13 5 C13.33 4.01 13.66 3.02 14 2 C14 3.32 14 4.64 14 6 C12.8553125 5.9690625 12.8553125 5.9690625 11.6875 5.9375 C8.89814214 5.87057159 8.89814214 5.87057159 6 7 C3.99124558 6.72428861 1.98821313 6.39764263 0 6 C0 4.02 0 2.04 0 0 Z " fill="#8F8D8C" transform="translate(137,186)"/>
<path d="M0 0 C5.28 0 10.56 0 16 0 C15.67 1.65 15.34 3.3 15 5 C12.36 5 9.72 5 7 5 C7 4.01 7 3.02 7 2 C6.34 2 5.68 2 5 2 C5 2.99 5 3.98 5 5 C4.01 5.33 3.02 5.66 2 6 C1.34 5.34 0.68 4.68 0 4 C0.66 4 1.32 4 2 4 C2 3.01 2 2.02 2 1 C1.34 0.67 0.68 0.34 0 0 Z " fill="#A3A0A0" transform="translate(118,187)"/>
<path d="M0 0 C0 1.32 0 2.64 0 4 C1.65 4 3.3 4 5 4 C5 5.32 5 6.64 5 8 C1.9361192 8.43769726 -0.16604909 8.60855877 -2.734375 6.734375 C-4.28471706 5.21356327 -5.71840855 3.75423511 -7 2 C-7 1.34 -7 0.68 -7 0 C-4.3333581 -1.33332095 -2.83319697 -0.67102033 0 0 Z " fill="#A39154" transform="translate(35,156)"/>
<path d="M0 0 C3.63 0 7.26 0 11 0 C11 1.98 11 3.96 11 6 C7.37 6 3.74 6 0 6 C0 4.02 0 2.04 0 0 Z " fill="#9A7C3A" transform="translate(73,72)"/>
<path d="M0 0 C0 4.95 0 9.9 0 15 C-1.32 15 -2.64 15 -4 15 C-4.08107583 13.06318839 -4.13922475 11.1254066 -4.1875 9.1875 C-4.22230469 8.10855469 -4.25710937 7.02960938 -4.29296875 5.91796875 C-4 3 -4 3 -2.55078125 1.11328125 C-1 0 -1 0 0 0 Z " fill="#B0974E" transform="translate(122,161)"/>
<path d="M0 0 C2.5 1 2.5 1 5 3 C5.46837899 5.79374292 5.23424505 8.14221036 5 11 C3.35 10.67 1.7 10.34 0 10 C0 6.7 0 3.4 0 0 Z " fill="#A8934A" transform="translate(90,156)"/>
<path d="M0 0 C9.24 0 18.48 0 28 0 C28 0.33 28 0.66 28 1 C23.71 1 19.42 1 15 1 C15 2.65 15 4.3 15 6 C13.0625 5.1875 13.0625 5.1875 11 4 C10.67 3.01 10.34 2.02 10 1 C6.7 1 3.4 1 0 1 C0 0.67 0 0.34 0 0 Z " fill="#887234" transform="translate(35,154)"/>
<path d="M0 0 C3.63 0 7.26 0 11 0 C11 1.32 11 2.64 11 4 C7.37 4.33 3.74 4.66 0 5 C0 3.35 0 1.7 0 0 Z " fill="#B39E6E" transform="translate(73,78)"/>
<path d="M0 0 C0.66 0 1.32 0 2 0 C2 0.66 2 1.32 2 2 C2.66 2 3.32 2 4 2 C4.33 5.3 4.66 8.6 5 12 C1 11 1 11 0 10 C-0.07205511 8.31391034 -0.08386068 6.62499341 -0.0625 4.9375 C-0.05347656 4.01839844 -0.04445313 3.09929687 -0.03515625 2.15234375 C-0.02355469 1.44207031 -0.01195313 0.73179687 0 0 Z " fill="#AC9148" transform="translate(100,166)"/>
<path d="M0 0 C0.33 0 0.66 0 1 0 C1 5.61 1 11.22 1 17 C0.67 17 0.34 17 0 17 C0 15.02 0 13.04 0 11 C-0.99 11 -1.98 11 -3 11 C-3 9.68 -3 8.36 -3 7 C-6.3 7 -9.6 7 -13 7 C-13 6.67 -13 6.34 -13 6 C-8.71 6 -4.42 6 0 6 C0 4.02 0 2.04 0 0 Z " fill="#7F6933" transform="translate(63,155)"/>
<path d="M0 0 C0.90492187 0.02320313 1.80984375 0.04640625 2.7421875 0.0703125 C4.10730469 0.09738281 4.10730469 0.09738281 5.5 0.125 C6.19867188 0.14820313 6.89734375 0.17140625 7.6171875 0.1953125 C7.6171875 1.5153125 7.6171875 2.8353125 7.6171875 4.1953125 C6.1801066 4.24954197 4.74243288 4.28820973 3.3046875 4.3203125 C2.50417969 4.34351563 1.70367187 4.36671875 0.87890625 4.390625 C-1.3828125 4.1953125 -1.3828125 4.1953125 -4.3828125 2.1953125 C-2.3828125 0.1953125 -2.3828125 0.1953125 0 0 Z " fill="#9F873F" transform="translate(107.3828125,161.8046875)"/>
<path d="M0 0 C0.33 0.66 0.66 1.32 1 2 C3.02463255 2.65213292 3.02463255 2.65213292 5 3 C5.33 4.98 5.66 6.96 6 9 C4.68 9 3.36 9 2 9 C2 8.34 2 7.68 2 7 C0.68 6.67 -0.64 6.34 -2 6 C-2 4.68 -2 3.36 -2 2 C-1.34 2 -0.68 2 0 2 C0 1.34 0 0.68 0 0 Z " fill="#838181" transform="translate(115,185)"/>
<path d="M0 0 C1.65 0 3.3 0 5 0 C5.33 0.66 5.66 1.32 6 2 C5.67 2.99 5.34 3.98 5 5 C5.66 5.33 6.32 5.66 7 6 C4.69 6.33 2.38 6.66 0 7 C0 4.69 0 2.38 0 0 Z " fill="#7E7C7C" transform="translate(99,185)"/>
<path d="M0 0 C0 6.93 0 13.86 0 21 C-1.32 20.67 -2.64 20.34 -4 20 C-3.34 20 -2.68 20 -2 20 C-1.67 14.72 -1.34 9.44 -1 4 C-1.99 4 -2.98 4 -4 4 C-4 3.01 -4 2.02 -4 1 C-2 0 -2 0 0 0 Z " fill="#B29B54" transform="translate(131,158)"/>
<path d="M0 0 C0 1.65 0 3.3 0 5 C-6.0546875 5.1953125 -6.0546875 5.1953125 -8 5 C-8.66 4.34 -9.32 3.68 -10 3 C-9.34 2.34 -8.68 1.68 -8 1 C-8 1.66 -8 2.32 -8 3 C-7.34 3 -6.68 3 -6 3 C-6 2.34 -6 1.68 -6 1 C-3 0 -3 0 0 0 Z " fill="#9F9D9C" transform="translate(170,187)"/>
<path d="M0 0 C0 0.99 0 1.98 0 3 C-2.60582371 3.93065133 -3.64198224 4.14917407 -6.25 3.0625 C-6.8275 2.711875 -7.405 2.36125 -8 2 C-8 3.98 -8 5.96 -8 8 C-7.01 8.33 -6.02 8.66 -5 9 C-6.32 9 -7.64 9 -9 9 C-9 6.36 -9 3.72 -9 1 C-5.64919071 -1.10976881 -3.77897651 -1.0497157 0 0 Z " fill="#353130" transform="translate(145,184)"/>
<path d="M0 0 C0.103125 0.639375 0.20625 1.27875 0.3125 1.9375 C0.6528125 2.9584375 0.6528125 2.9584375 1 4 C1.99 4.33 2.98 4.66 4 5 C2.94921875 6.48828125 2.94921875 6.48828125 1 8 C-2.35546875 8.29296875 -2.35546875 8.29296875 -6.1875 8.1875 C-7.45980469 8.16042969 -8.73210937 8.13335937 -10.04296875 8.10546875 C-11.01878906 8.07066406 -11.99460937 8.03585938 -13 8 C-13 7.67 -13 7.34 -13 7 C-9.37 7 -5.74 7 -2 7 C-2 5.68 -2 4.36 -2 3 C-1.34 3 -0.68 3 0 3 C0 2.01 0 1.02 0 0 Z " fill="#8F783D" transform="translate(117,172)"/>
<path d="M0 0 C-0.66 0.66 -1.32 1.32 -2 2 C-1.34 2.66 -0.68 3.32 0 4 C-0.66 5.32 -1.32 6.64 -2 8 C-2 7.34 -2 6.68 -2 6 C-2.598125 6.226875 -3.19625 6.45375 -3.8125 6.6875 C-4.534375 6.790625 -5.25625 6.89375 -6 7 C-7.75 5.5625 -7.75 5.5625 -9 4 C-8 1 -8 1 -5.625 -0.25 C-3 -1 -3 -1 0 0 Z " fill="#332D2A" transform="translate(136,181)"/>
<path d="M0 0 C0.66 0.33 1.32 0.66 2 1 C1.67 4.63 1.34 8.26 1 12 C0.67 12 0.34 12 0 12 C0 9.69 0 7.38 0 5 C-0.99 5 -1.98 5 -3 5 C-3 7.64 -3 10.28 -3 13 C-3.33 13 -3.66 13 -4 13 C-4.63019694 4.80743982 -4.63019694 4.80743982 -2 1.4375 C-1.34 0.963125 -0.68 0.48875 0 0 Z " fill="#907A3C" transform="translate(49,162)"/>
<path d="M0 0 C0.99 0.33 1.98 0.66 3 1 C3 5.95 3 10.9 3 16 C0.14206684 13.14206684 0.59200059 10.85334416 0.375 6.875 C0.30023438 5.59367188 0.22546875 4.31234375 0.1484375 2.9921875 C0.09945312 2.00476563 0.05046875 1.01734375 0 0 Z " fill="#A58A3D" transform="translate(156,162)"/>
<path d="M0 0 C3.96 0 7.92 0 12 0 C12 1.98 12 3.96 12 6 C11.34 6 10.68 6 10 6 C10 4.68 10 3.36 10 2 C6.7 2 3.4 2 0 2 C0 1.34 0 0.68 0 0 Z " fill="#1F191F" transform="translate(51,155)"/>
<path d="M0 0 C3.625 0.375 3.625 0.375 7 1 C6.2884375 1.680625 6.2884375 1.680625 5.5625 2.375 C3.90972192 3.93258204 3.90972192 3.93258204 3 6 C0.9375 6.625 0.9375 6.625 -1 7 C-2 5 -2 5 -2 2 C-1.34 1.34 -0.68 0.68 0 0 Z " fill="#221B19" transform="translate(109,192)"/>
<path d="M0 0 C0.33 0 0.66 0 1 0 C1.103125 1.258125 1.20625 2.51625 1.3125 3.8125 C1.64858808 6.60499657 1.80025876 7.74433121 3.5625 10 C4.036875 10.33 4.51125 10.66 5 11 C4.67 11.66 4.34 12.32 4 13 C1.9375 13.625 1.9375 13.625 0 14 C-0.91297308 9.02936879 -0.91297308 4.97063121 0 0 Z " fill="#1F181B" transform="translate(98,167)"/>
<path d="M0 0 C0 1.98 0 3.96 0 6 C-0.66 5.01 -1.32 4.02 -2 3 C-2.99 2.67 -3.98 2.34 -5 2 C-5 2.99 -5 3.98 -5 5 C-6.32 5.33 -7.64 5.66 -9 6 C-9 4.35 -9 2.7 -9 1 C-1.125 0 -1.125 0 0 0 Z " fill="#282220" transform="translate(61,167)"/>
<path d="M0 0 C1.98 0.66 3.96 1.32 6 2 C6 2.99 6 3.98 6 5 C4.02 5.33 2.04 5.66 0 6 C0 4.02 0 2.04 0 0 Z " fill="#9B9999" transform="translate(137,186)"/>
<path d="M0 0 C3.96 0 7.92 0 12 0 C12 1.98 12 3.96 12 6 C11.34 6 10.68 6 10 6 C10 4.68 10 3.36 10 2 C6.7 1.67 3.4 1.34 0 1 C0 0.67 0 0.34 0 0 Z " fill="#1D151C" transform="translate(105,155)"/>
<path d="M0 0 C0 0.66 0 1.32 0 2 C-3.63 2 -7.26 2 -11 2 C-11 1.01 -11 0.02 -11 -1 C-6.74938644 -2.41687119 -4.28148375 -1.19320039 0 0 Z " fill="#A38B48" transform="translate(84,76)"/>
<path d="M0 0 C0.99 0 1.98 0 3 0 C3.33 2.64 3.66 5.28 4 8 C2.68 8.33 1.36 8.66 0 9 C0 6.03 0 3.06 0 0 Z " fill="#A98B3C" transform="translate(46,167)"/>
<path d="M0 0 C2.64 0 5.28 0 8 0 C7.67 1.65 7.34 3.3 7 5 C4.11562221 3.70700306 2.12780579 2.34058637 0 0 Z " fill="#8F7E3D" transform="translate(73,31)"/>
<path d="M0 0 C0.66 0 1.32 0 2 0 C2 0.99 2 1.98 2 3 C2.66 3.33 3.32 3.66 4 4 C3 5 3 5 -0.37890625 5.09765625 C-1.77347077 5.09098369 -3.16801743 5.07902532 -4.5625 5.0625 C-5.27341797 5.05798828 -5.98433594 5.05347656 -6.71679688 5.04882812 C-8.47790013 5.03700864 -10.23896036 5.01907263 -12 5 C-12 4.67 -12 4.34 -12 4 C-8.04 4 -4.08 4 0 4 C0 2.68 0 1.36 0 0 Z " fill="#836C32" transform="translate(61,175)"/>
<path d="M0 0 C1.65 0 3.3 0 5 0 C5 1.32 5 2.64 5 4 C3.35 4.66 1.7 5.32 0 6 C0 4.02 0 2.04 0 0 Z " fill="#BCAA69" transform="translate(63,172)"/>
<path d="M0 0 C0.66 0.33 1.32 0.66 2 1 C1.67 1.33 1.34 1.66 1 2 C1.66 2.66 2.32 3.32 3 4 C2.9765625 6.1640625 2.9765625 6.1640625 2.625 8.625 C2.51414062 9.44226563 2.40328125 10.25953125 2.2890625 11.1015625 C2.19367188 11.72804687 2.09828125 12.35453125 2 13 C1.67 13 1.34 13 1 13 C1 10.69 1 8.38 1 6 C0.34 6 -0.32 6 -1 6 C-1 5.34 -1 4.68 -1 4 C-1.66 3.67 -2.32 3.34 -3 3 C-2.01 2.01 -1.02 1.02 0 0 Z " fill="#857139" transform="translate(103,162)"/>
<path d="M0 0 C2.31 0 4.62 0 7 0 C6.67 1.65 6.34 3.3 6 5 C4.35 4.67 2.7 4.34 1 4 C0.67 2.68 0.34 1.36 0 0 Z " fill="#979694" transform="translate(127,187)"/>
<path d="M0 0 C1.98 0 3.96 0 6 0 C6 1.32 6 2.64 6 4 C4.02 4 2.04 4 0 4 C0 2.66666667 0 1.33333333 0 0 Z " fill="#91783B" transform="translate(34,160)"/>
<path d="M0 0 C0 0.33 0 0.66 0 1 C-1.65 1 -3.3 1 -5 1 C-5 1.66 -5 2.32 -5 3 C-4.34 3.33 -3.68 3.66 -3 4 C-6.14624993 4.26218749 -7.61837017 4.24754367 -10.3125 2.5 C-10.869375 2.005 -11.42625 1.51 -12 1 C-8.0186217 -0.3271261 -4.14954773 -0.06915913 0 0 Z " fill="#231A16" transform="translate(112,182)"/>
<path d="M0 0 C0.33 0 0.66 0 1 0 C1 1.98 1 3.96 1 6 C0.67 6 0.34 6 0 6 C0 4.02 0 2.04 0 0 Z M-2 2 C0 5.75 0 5.75 0 8 C-1.65 7.67 -3.3 7.34 -5 7 C-4.01 6.67 -3.02 6.34 -2 6 C-2 4.68 -2 3.36 -2 2 Z M-6 8 C-2 9 -2 9 -2 9 Z " fill="#363330" transform="translate(172,186)"/>
<path d="M0 0 C1.32 0.33 2.64 0.66 4 1 C4 2.65 4 4.3 4 6 C2.68 6 1.36 6 0 6 C0 4.02 0 2.04 0 0 Z " fill="#C9B679" transform="translate(91,159)"/>
<path d="M0 0 C2.31 0 4.62 0 7 0 C6.67 1.32 6.34 2.64 6 4 C3.03 3.505 3.03 3.505 0 3 C0 2.01 0 1.02 0 0 Z " fill="#9A833C" transform="translate(54,175)"/>
<path d="M0 0 C0.33 0.66 0.66 1.32 1 2 C5.455 1.505 5.455 1.505 10 1 C10 1.66 10 2.32 10 3 C6.7 3.33 3.4 3.66 0 4 C0 2.68 0 1.36 0 0 Z " fill="#393432" transform="translate(105,184)"/>
<path d="M0 0 C2.475 0.495 2.475 0.495 5 1 C4.67 1.99 4.34 2.98 4 4 C2.68 3.67 1.36 3.34 0 3 C0 2.01 0 1.02 0 0 Z " fill="#CDB970" transform="translate(30,155)"/>
</svg>
