<?xml version="1.0" encoding="UTF-8"?>
<svg version="1.1" xmlns="http://www.w3.org/2000/svg" width="494" height="505">
<path d="M0 0 C163.02 0 326.04 0 494 0 C494 166.65 494 333.3 494 505 C330.98 505 167.96 505 0 505 C0 338.35 0 171.7 0 0 Z " fill="#000000" transform="translate(0,0)"/>
<path d="M0 0 C19.59370852 16.57929182 33.26565697 37.4588589 39.046875 62.578125 C39.29050781 63.60292969 39.53414062 64.62773437 39.78515625 65.68359375 C44.07213783 87.76009075 41.24624301 111.14936085 32.046875 131.578125 C31.54414063 132.71636719 31.04140625 133.85460937 30.5234375 135.02734375 C26.38418247 143.8596978 21.27138321 151.12218394 15.046875 158.578125 C13.96599609 159.90650391 13.96599609 159.90650391 12.86328125 161.26171875 C-1.4164458 178.05677387 -21.81590222 189.05451873 -42.953125 194.578125 C-43.68136475 194.77100098 -44.40960449 194.96387695 -45.15991211 195.16259766 C-52.87294695 196.96094461 -60.63826302 196.97575847 -68.515625 196.953125 C-69.58151855 196.95230927 -69.58151855 196.95230927 -70.66894531 196.95147705 C-81.60946 196.91295845 -91.52840678 196.1491455 -101.953125 192.578125 C-102.62150391 192.36381836 -103.28988281 192.14951172 -103.97851562 191.92871094 C-132.2021405 182.84266113 -154.46144518 162.50960138 -168.04638672 136.39013672 C-170.78001033 130.92730569 -173.04124263 125.36983483 -174.953125 119.578125 C-175.16485352 118.94052246 -175.37658203 118.30291992 -175.59472656 117.64599609 C-184.16845859 90.34185266 -179.37725304 60.93177287 -167.51953125 35.50390625 C-161.8558597 24.92512821 -154.21118023 16.16650244 -145.953125 7.578125 C-145.38335937 6.93359375 -144.81359375 6.2890625 -144.2265625 5.625 C-107.67027906 -34.49317772 -40.34339157 -31.37819344 0 0 Z " fill="#020201" transform="translate(316.953125,124.421875)"/>
<path d="M0 0 C1.32 0.66 2.64 1.32 4 2 C4.65828796 2.24551605 5.31657593 2.4910321 5.99481201 2.74398804 C12.53572947 5.2601927 17.61541477 8.75151592 21 15 C24.439692 27.50959411 22.79812619 41.84870868 22.34216309 54.65698242 C22.2188591 58.62786087 22.17125964 62.59801076 22.12720108 66.57044411 C22.07329259 71.31049027 21.98704189 76.04970895 21.890625 80.7890625 C21.86398144 82.14270842 21.86398144 82.14270842 21.83679962 83.52370071 C21.77864051 86.06827661 21.69869627 88.61109882 21.61035156 91.15478516 C21.59442963 91.90903778 21.57850769 92.66329041 21.56210327 93.44039917 C21.43825394 96.42799802 21.34604034 98.5126246 19.58685303 100.99032593 C18 102 18 102 16 102 C16 102.66 16 103.32 16 104 C14.23058366 105.70047804 12.33556575 107.20805753 10.43359375 108.7578125 C8.02990869 110.81327361 8.02990869 110.81327361 6.65338135 112.91677856 C4.25547824 116.20279917 2.33378209 118.56950659 -1.61387634 119.84365845 C-4.76514605 120.25693268 -7.83396402 120.41977022 -11.01171875 120.484375 C-12.17040466 120.52937134 -13.32909058 120.57436768 -14.52288818 120.62072754 C-18.24688055 120.7299758 -21.96197765 120.75588223 -25.6875 120.75 C-27.56624313 120.75042297 -27.56624313 120.75042297 -29.48294067 120.75085449 C-58.09010942 120.50056053 -58.09010942 120.50056053 -67.4375 111.25 C-76.6643433 100.51420364 -75.74044914 85.77590517 -74.87638855 72.43249512 C-74.63490939 69.28184607 -74.33383908 66.14219615 -74 63 C-73.34 63 -72.68 63 -72 63 C-71.74476563 62.40574219 -71.48953125 61.81148437 -71.2265625 61.19921875 C-69.87280474 58.77193972 -68.5289 57.55020817 -66.375 55.8125 C-63.21685398 53.22758448 -60.92946028 50.58928954 -58.51367188 47.31665039 C-55.21309902 43.5792342 -53.11788421 42.35495666 -48.13476562 41.97827148 C-45.89142232 41.97968283 -43.64773339 42.02975154 -41.40625 42.12109375 C-39.62534973 42.14019554 -39.62534973 42.14019554 -37.80847168 42.15968323 C-34.03685488 42.20984497 -30.27014835 42.32272078 -26.5 42.4375 C-23.93496559 42.48266818 -21.36985535 42.52372863 -18.8046875 42.56054688 C-12.5330711 42.65182202 -6.27199224 42.82790265 0 43 C0 28.81 0 14.62 0 0 Z " fill="#B38D36" transform="translate(275,152)"/>
<path d="M0 0 C2.97 0 5.94 0 9 0 C9 14.52 9 29.04 9 44 C62.13 44 115.26 44 170 44 C170 46.64 170 49.28 170 52 C157.625 52.495 157.625 52.495 145 53 C149.39913116 56.99176892 149.39913116 56.99176892 153 58 C153 70.54 153 83.08 153 96 C150.03 96 147.06 96 144 96 C144 84.12 144 72.24 144 60 C138.72 60 133.44 60 128 60 C128 71.22 128 82.44 128 94 C125.03 94 122.06 94 119 94 C119 82.78 119 71.56 119 60 C113.72 60 108.44 60 103 60 C103 71.88 103 83.76 103 96 C100.36 96 97.72 96 95 96 C92.21534526 93.21534526 93.58675504 83.73948715 93.54003906 79.81835938 C93.51345354 78.11299522 93.47255071 76.40779123 93.41699219 74.703125 C93.33776218 72.24413118 93.30471941 69.78820886 93.28125 67.328125 C93.24825806 66.56961243 93.21526611 65.81109985 93.18127441 65.02960205 C93.18945312 62.85644531 93.18945312 62.85644531 94 59 C95.68443847 57.33138829 97.34737921 56.18268498 99.3963623 54.99627686 C101.17584435 54.08476671 101.17584435 54.08476671 102 52 C96.72 52 91.44 52 86 52 C86.08121094 54.43375 86.16242188 56.8675 86.24609375 59.375 C86.30081859 61.75465521 86.34324434 64.13423809 86.38452148 66.51416016 C86.41954214 68.15738738 86.46717701 69.80039934 86.52807617 71.44287109 C87.08347341 86.81664002 87.08347341 86.81664002 83.21875 92.0625 C78.45541007 96.30461425 73.16661539 96.17986344 67.0625 96 C66.01642578 96.0309375 64.97035156 96.061875 63.89257812 96.09375 C58.16919989 96.03619246 54.5991724 95.33441962 50.30859375 91.40625 C46.99863373 87.55028619 45.9130469 84.6737095 46 79.5 C45.979375 78.2728125 45.95875 77.045625 45.9375 75.78125 C47.47870018 70.29639054 50.15295584 67.01046883 55 64 C59.06622332 63.08792352 62.85961725 63.23053829 67 63.5 C68.06089844 63.53609375 69.12179687 63.5721875 70.21484375 63.609375 C72.81147498 63.7029473 75.40622609 63.84642128 78 64 C78 60.04 78 56.08 78 52 C70.41 52 62.82 52 55 52 C55 54.97 55 57.94 55 61 C49.33333333 58.16666667 49.33333333 58.16666667 47 56 C47 54.68 47 53.36 47 52 C39.08 52.495 39.08 52.495 31 53 C32.30388672 53.88824463 33.60777344 54.77648926 34.95117188 55.69165039 C37.58499044 58.01250157 38.83970573 59.37245671 39.71508789 62.79953003 C39.92465849 66.20250212 39.89960048 69.52612453 39.78125 72.93359375 C39.76993042 74.16666763 39.75861084 75.39974152 39.74694824 76.67018127 C39.70229729 80.5942259 39.60193808 84.51456683 39.5 88.4375 C39.4553367 91.10346218 39.42336068 93.76938956 39.390625 96.43554688 C39.30259777 102.95828696 39.16886631 109.47887888 39 116 C36.36 116 33.72 116 31 116 C31 97.52 31 79.04 31 60 C23.41 60 15.82 60 8 60 C8 71.55 8 83.1 8 95 C5.36 95 2.72 95 0 95 C0 80.81 0 66.62 0 52 C-2.64 52 -5.28 52 -8 52 C-7.95810547 53.01835937 -7.91621094 54.03671875 -7.87304688 55.0859375 C-7.727323 58.89476399 -7.63608327 62.70334926 -7.56054688 66.51416016 C-7.52052086 68.15748637 -7.46607782 69.80053134 -7.39648438 71.44287109 C-6.7614459 86.82387657 -6.7614459 86.82387657 -11.3125 92.0625 C-16.340814 95.98182358 -21.31505516 96.19252747 -27.5 96 C-28.49386719 96.0309375 -29.48773438 96.061875 -30.51171875 96.09375 C-36.0912354 96.03478549 -39.48589535 95.22724868 -43.66796875 91.41796875 C-47.24875305 87.28629456 -48.01874955 84.73630569 -47.8125 79.3125 C-47.79832031 78.05050781 -47.78414062 76.78851563 -47.76953125 75.48828125 C-46.8267885 71.21483314 -45.29743793 69.78938823 -42 67 C-41.34064453 66.19755859 -41.34064453 66.19755859 -40.66796875 65.37890625 C-38.31640416 63.43487276 -36.69383339 63.65700829 -33.67578125 63.70703125 C-32.64775391 63.71669922 -31.61972656 63.72636719 -30.56054688 63.73632812 C-28.95276367 63.7740332 -28.95276367 63.7740332 -27.3125 63.8125 C-26.22904297 63.82603516 -25.14558594 63.83957031 -24.02929688 63.85351562 C-21.35265296 63.88888977 -18.67626425 63.94269696 -16 64 C-16 60.04 -16 56.08 -16 52 C-23.59 52 -31.18 52 -39 52 C-39 54.97 -39 57.94 -39 61 C-44.66666667 58.16666667 -44.66666667 58.16666667 -47 56 C-47 54.68 -47 53.36 -47 52 C-52.94 52 -58.88 52 -65 52 C-65 54.97 -65 57.94 -65 61 C-62.36 61 -59.72 61 -57 61 C-57 63.31 -57 65.62 -57 68 C-60.55568624 68.57349778 -62.5618957 68.83439373 -66 68 C-69.90400998 65.15199272 -73.25615095 61.98885545 -76 58 C-75.63200076 52.88345896 -71.62107247 49.51883908 -68.13043213 46.15216064 C-62.43070867 42.2336216 -56.47285937 42.76710211 -49.8046875 43.0234375 C-48.36171411 43.04212976 -46.91867648 43.056345 -45.47561646 43.0663147 C-41.70918101 43.10418273 -37.94671066 43.20210667 -34.18182373 43.31335449 C-29.64784698 43.43451646 -25.11253074 43.47970563 -20.57739258 43.53788757 C-13.71551902 43.63429956 -6.8623129 43.82602587 0 44 C0 29.48 0 14.96 0 0 Z " fill="#B4903A" transform="translate(201,322)"/>
<path d="M0 0 C17.82 0 35.64 0 54 0 C54 11.55 54 23.1 54 35 C36.18 35 18.36 35 0 35 C0 23.45 0 11.9 0 0 Z " fill="#030100" transform="translate(221,216)"/>
<path d="M0 0 C0.33 0.66 0.66 1.32 1 2 C0.01 2.66 -0.98 3.32 -2 4 C-2.33 4.99 -2.66 5.98 -3 7 C-0.69 7.33 1.62 7.66 4 8 C3.67854004 8.48952148 3.35708008 8.97904297 3.02587891 9.48339844 C1.58124464 13.02725612 1.64275674 16.49375905 1.5859375 20.265625 C1.56657135 21.05902283 1.5472052 21.85242065 1.5272522 22.66986084 C1.46761639 25.19646557 1.42113557 27.72311625 1.375 30.25 C1.33680545 31.96616537 1.29775285 33.68231187 1.2578125 35.3984375 C1.16192814 39.59880456 1.07783833 43.79926134 1 48 C1.66 48 2.32 48 3 48 C3.33 48.99 3.66 49.98 4 51 C21.82 51.33 39.64 51.66 58 52 C58 52.66 58 53.32 58 54 C58.66 54 59.32 54 60 54 C60 54.66 60 55.32 60 56 C60.99 56 61.98 56 63 56 C63.375 58.25 63.375 58.25 63 61 C60.0625 63.1875 60.0625 63.1875 57 65 C56.67 65.66 56.34 66.32 56 67 C48.38794036 67.30622297 40.77748588 67.51519403 33.16064453 67.65917969 C30.57442896 67.71924163 27.98861602 67.80092295 25.40380859 67.90527344 C1.57727916 68.8425299 1.57727916 68.8425299 -5.26837158 62.84893799 C-7.66825555 60.31664015 -9.39543906 58.1263915 -11 55 C-10.76074219 52.61230469 -10.76074219 52.61230469 -10 51 C-10.639375 50.835 -11.27875 50.67 -11.9375 50.5 C-14 49 -14 49 -14.609375 45.765625 C-15.22757537 39.60986888 -15.26280975 33.43146762 -15.3125 27.25 C-15.35600586 25.42275391 -15.35600586 25.42275391 -15.40039062 23.55859375 C-15.40876953 22.38941406 -15.41714844 21.22023437 -15.42578125 20.015625 C-15.44036377 18.95633789 -15.45494629 17.89705078 -15.4699707 16.80566406 C-14.88531667 13.31535544 -13.72492242 12.17892153 -11 10 C-10.0409375 9.5978125 -10.0409375 9.5978125 -9.0625 9.1875 C-6.22472334 7.55362859 -4.9176054 5.26868852 -3.1484375 2.55859375 C-2 1 -2 1 0 0 Z " fill="#B99133" transform="translate(218,202)"/>
<path d="M0 0 C6.71524908 -0.37154042 11.94082676 -0.08467001 18 3 C18.37929519 4.32099358 18.71256038 5.65602554 19 7 C21.6483945 9.43931072 23.5732389 10.8577463 27 12 C27 24.54 27 37.08 27 50 C24.03 50 21.06 50 18 50 C18 38.12 18 26.24 18 14 C12.72 14 7.44 14 2 14 C2 25.22 2 36.44 2 48 C-0.97 48 -3.94 48 -7 48 C-7 36.78 -7 25.56 -7 14 C-12.28 14 -17.56 14 -23 14 C-23 25.88 -23 37.76 -23 50 C-25.64 50 -28.28 50 -31 50 C-33.78465474 47.21534526 -32.41324496 37.73948715 -32.45996094 33.81835938 C-32.48654646 32.11299522 -32.52744929 30.40779123 -32.58300781 28.703125 C-32.66223782 26.24413118 -32.69528059 23.78820886 -32.71875 21.328125 C-32.75174194 20.56961243 -32.78473389 19.81109985 -32.81872559 19.02960205 C-32.81054688 16.85644531 -32.81054688 16.85644531 -32 13 C-30.31556153 11.33138829 -28.65262079 10.18268498 -26.6036377 8.99627686 C-24.82415565 8.08476671 -24.82415565 8.08476671 -24 6 C-29.28 6 -34.56 6 -40 6 C-40 5.67 -40 5.34 -40 5 C-34.95036161 4.9750056 -29.9007604 4.95700277 -24.85107422 4.94506836 C-23.13850272 4.94008528 -21.42593537 4.9332964 -19.71337891 4.92456055 C-10.08987658 4.87675238 -0.58033306 4.93511837 9 6 C9 4.68 9 3.36 9 2 C5.7 2 2.4 2 -1 2 C-0.67 1.34 -0.34 0.68 0 0 Z " fill="#B6923E" transform="translate(327,368)"/>
<path d="M0 0 C0.02712351 2.39591038 0.0468982 4.79150957 0.0625 7.1875 C0.07087891 7.86103516 0.07925781 8.53457031 0.08789062 9.22851562 C0.10615867 12.97346575 -0.25805101 16.34372883 -1 20 C-0.505 20.99 -0.505 20.99 0 22 C0.23172827 24.54615009 0.41894529 27.07396225 0.5625 29.625 C0.60568359 30.33140625 0.64886719 31.0378125 0.69335938 31.765625 C0.79944751 33.51018537 0.90022889 35.25506697 1 37 C1.66 37 2.32 37 3 37 C3 25.45 3 13.9 3 2 C3.99 2 4.98 2 6 2 C6.174148 6.8378696 6.30057219 11.67388346 6.38452148 16.51416016 C6.41954214 18.15738738 6.46717701 19.80039934 6.52807617 21.44287109 C7.08347341 36.81664002 7.08347341 36.81664002 3.21875 42.0625 C-1.54458993 46.30461425 -6.83338461 46.17986344 -12.9375 46 C-14.50661133 46.04640625 -14.50661133 46.04640625 -16.10742188 46.09375 C-21.83080011 46.03619246 -25.4008276 45.33441962 -29.69140625 41.40625 C-33.00136627 37.55028619 -34.0869531 34.6737095 -34 29.5 C-34.020625 28.2728125 -34.04125 27.045625 -34.0625 25.78125 C-32.52129982 20.29639054 -29.84704416 17.01046883 -25 14 C-20.93377668 13.08792352 -17.14038275 13.23053829 -13 13.5 C-11.93910156 13.53609375 -10.87820313 13.5721875 -9.78515625 13.609375 C-7.18852502 13.7029473 -4.59377391 13.84642128 -2 14 C-2 10.04 -2 6.08 -2 2 C-9.59 2 -17.18 2 -25 2 C-25 4.97 -25 7.94 -25 11 C-30.66666667 8.16666667 -30.66666667 8.16666667 -33 6 C-33 4.68 -33 3.36 -33 2 C-26.76413372 0.95188123 -20.56302108 0.67969766 -14.25 0.4375 C-13.20972656 0.39431641 -12.16945313 0.35113281 -11.09765625 0.30664062 C-3.57279266 0 -3.57279266 0 0 0 Z " fill="#A98D50" transform="translate(281,372)"/>
<path d="M0 0 C2.97 0 5.94 0 9 0 C9 14.52 9 29.04 9 44 C62.13 44 115.26 44 170 44 C170 46.64 170 49.28 170 52 C169.67 52 169.34 52 169 52 C169 49.69 169 47.38 169 45 C115.87 45 62.74 45 8 45 C6.28197618 41.56395235 6.8803382 37.61561104 6.90234375 33.8359375 C6.9037587 32.92872955 6.90517365 32.02152161 6.90663147 31.08682251 C6.91223904 28.18284845 6.92479282 25.27895085 6.9375 22.375 C6.94251402 20.40885528 6.9470771 18.44270935 6.95117188 16.4765625 C6.96221094 11.6510121 6.97948065 6.82551903 7 2 C5.35 2 3.7 2 2 2 C2.16153564 2.49765869 2.32307129 2.99531738 2.48950195 3.50805664 C3.19592238 6.95637479 3.16262072 10.36644207 3.16796875 13.87109375 C3.17296135 15.01010887 3.17296135 15.01010887 3.17805481 16.1721344 C3.18310749 17.77498775 3.18546365 19.37785158 3.18530273 20.98071289 C3.18748924 23.42547005 3.2056622 25.86977572 3.22460938 28.31445312 C3.22754369 29.87499846 3.22952823 31.43554594 3.23046875 32.99609375 C3.23765427 33.72332138 3.24483978 34.45054901 3.25224304 35.19981384 C3.2341376 39.24526885 2.79473047 42.35852432 1 46 C-0.15786011 46.03758423 -0.15786011 46.03758423 -1.33911133 46.07592773 C-4.83041181 46.19184007 -8.32143922 46.31458824 -11.8125 46.4375 C-13.02744141 46.47681641 -14.24238281 46.51613281 -15.49414062 46.55664062 C-17.23920898 46.61948242 -17.23920898 46.61948242 -19.01953125 46.68359375 C-20.62985229 46.73858032 -20.62985229 46.73858032 -22.27270508 46.79467773 C-25.09311553 46.89541847 -25.09311553 46.89541847 -28 48 C-24.37 48 -20.74 48 -17 48 C-17 48.66 -17 49.32 -17 50 C-16.01 50.33 -15.02 50.66 -14 51 C-13.97314588 53.31243792 -13.95367159 55.6249627 -13.9375 57.9375 C-13.92589844 59.22527344 -13.91429687 60.51304687 -13.90234375 61.83984375 C-14 65 -14 65 -15 66 C-16.85369611 66.08737645 -18.71067541 66.10698153 -20.56640625 66.09765625 C-21.69111328 66.09443359 -22.81582031 66.09121094 -23.97460938 66.08789062 C-25.15861328 66.07951172 -26.34261719 66.07113281 -27.5625 66.0625 C-28.75037109 66.05798828 -29.93824219 66.05347656 -31.16210938 66.04882812 C-34.10812226 66.03699675 -37.05403681 66.02051287 -40 66 C-39.67 65.34 -39.34 64.68 -39 64 C-31.41 64 -23.82 64 -16 64 C-16 60.04 -16 56.08 -16 52 C-23.59 52 -31.18 52 -39 52 C-39 54.97 -39 57.94 -39 61 C-44.66666667 58.16666667 -44.66666667 58.16666667 -47 56 C-47 54.68 -47 53.36 -47 52 C-52.94 52 -58.88 52 -65 52 C-65 54.97 -65 57.94 -65 61 C-62.36 61 -59.72 61 -57 61 C-57 63.31 -57 65.62 -57 68 C-60.55568624 68.57349778 -62.5618957 68.83439373 -66 68 C-69.90400998 65.15199272 -73.25615095 61.98885545 -76 58 C-75.63200076 52.88345896 -71.62107247 49.51883908 -68.13043213 46.15216064 C-62.43070867 42.2336216 -56.47285937 42.76710211 -49.8046875 43.0234375 C-48.36171411 43.04212976 -46.91867648 43.056345 -45.47561646 43.0663147 C-41.70918101 43.10418273 -37.94671066 43.20210667 -34.18182373 43.31335449 C-29.64784698 43.43451646 -25.11253074 43.47970563 -20.57739258 43.53788757 C-13.71551902 43.63429956 -6.8623129 43.82602587 0 44 C0 29.48 0 14.96 0 0 Z " fill="#B09244" transform="translate(201,322)"/>
<path d="M0 0 C3.3 0.33 6.6 0.66 10 1 C10 1.33 10 1.66 10 2 C7.36 2 4.72 2 2 2 C2.04189453 3.01835937 2.08378906 4.03671875 2.12695312 5.0859375 C2.272677 8.89476399 2.36391673 12.70334926 2.43945312 16.51416016 C2.47947914 18.15748637 2.53392218 19.80053134 2.60351562 21.44287109 C3.2385541 36.82387657 3.2385541 36.82387657 -1.3125 42.0625 C-6.340814 45.98182358 -11.31505516 46.19252747 -17.5 46 C-18.49386719 46.0309375 -19.48773438 46.061875 -20.51171875 46.09375 C-26.08936265 46.03480528 -29.48817443 45.2264219 -33.671875 41.421875 C-37.27791773 37.26305411 -37.99491623 34.70495238 -37.75 29.25 C-37.72421875 27.97640625 -37.6984375 26.7028125 -37.671875 25.390625 C-36.91689333 21.58060124 -36.12067014 20.2550828 -33 18 C-32.01 18 -31.02 18 -30 18 C-29.67 18.66 -29.34 19.32 -29 20 C-27.97060303 20.03758423 -27.97060303 20.03758423 -26.92041016 20.07592773 C-23.82174183 20.19171427 -20.72339077 20.31451885 -17.625 20.4375 C-16.54476562 20.47681641 -15.46453125 20.51613281 -14.3515625 20.55664062 C-13.3203125 20.59853516 -12.2890625 20.64042969 -11.2265625 20.68359375 C-10.27346191 20.72025146 -9.32036133 20.75690918 -8.33837891 20.79467773 C-6 21 -6 21 -4 22 C-4 26.95 -4 31.9 -4 37 C-2.68 37 -1.36 37 0 37 C0 24.79 0 12.58 0 0 Z " fill="#A78C4E" transform="translate(191,372)"/>
<path d="M0 0 C4 2 4 2 8 4 C8 16.54 8 29.08 8 42 C5.03 42 2.06 42 -1 42 C-1 30.12 -1 18.24 -1 6 C-6.28 6 -11.56 6 -17 6 C-17 17.22 -17 28.44 -17 40 C-19.97 40 -22.94 40 -26 40 C-26 28.78 -26 17.56 -26 6 C-31.28 6 -36.56 6 -42 6 C-42 5.67 -42 5.34 -42 5 C-27.65873091 4.34479743 -13.35716167 3.83497515 1 4 C0.505 2.02 0.505 2.02 0 0 Z " fill="#7B6631" transform="translate(346,376)"/>
<path d="M0 0 C2.97 0 5.94 0 9 0 C9 14.52 9 29.04 9 44 C62.13 44 115.26 44 170 44 C170 46.64 170 49.28 170 52 C169.67 52 169.34 52 169 52 C169 49.69 169 47.38 169 45 C115.87 45 62.74 45 8 45 C6.28197618 41.56395235 6.8803382 37.61561104 6.90234375 33.8359375 C6.9037587 32.92872955 6.90517365 32.02152161 6.90663147 31.08682251 C6.91223904 28.18284845 6.92479282 25.27895085 6.9375 22.375 C6.94251402 20.40885528 6.9470771 18.44270935 6.95117188 16.4765625 C6.96221094 11.6510121 6.97948065 6.82551903 7 2 C5.35 2 3.7 2 2 2 C2.16153564 2.49693359 2.32307129 2.99386719 2.48950195 3.50585938 C3.19775571 6.96617518 3.16262522 10.38947985 3.16796875 13.90625 C3.17296135 15.04882263 3.17296135 15.04882263 3.17805481 16.21447754 C3.18310694 17.82152708 3.18546367 19.42858706 3.18530273 21.03564453 C3.18749232 23.49138642 3.20567426 25.94668108 3.22460938 28.40234375 C3.22754305 29.9661443 3.22952802 31.52994698 3.23046875 33.09375 C3.23765427 33.82613892 3.24483978 34.55852783 3.25224304 35.31311035 C3.23414981 39.35628079 2.86378707 41.27242586 1 45 C-20.78 45 -42.56 45 -65 45 C-65 44.67 -65 44.34 -65 44 C-43.55 44 -22.1 44 0 44 C0 29.48 0 14.96 0 0 Z " fill="#7C6834" transform="translate(201,322)"/>
<path d="M0 0 C52.47 0 104.94 0 159 0 C159 2.31 159 4.62 159 7 C150.75 7 142.5 7 134 7 C133.67 6.01 133.34 5.02 133 4 C128.06829911 2.12153507 123.50911967 1.71382367 118.24462891 1.75708008 C117.13359802 1.75423256 117.13359802 1.75423256 116.00012207 1.75132751 C113.57549125 1.74765131 111.15116623 1.75827363 108.7265625 1.76953125 C107.03502436 1.77072435 105.34348556 1.77117594 103.65194702 1.7709198 C100.11997284 1.77247889 96.58810084 1.78072855 93.05615234 1.79418945 C88.5197255 1.81125675 83.98340993 1.81500127 79.44695473 1.81424427 C75.96067231 1.81451543 72.4744144 1.81998661 68.98814011 1.82724571 C67.31431641 1.830435 65.64048993 1.83240039 63.96666336 1.83313942 C61.63739471 1.83529582 59.30824681 1.8440224 56.97900391 1.85473633 C55.9349086 1.85405655 55.9349086 1.85405655 54.86972046 1.85336304 C51.65610077 1.60538332 51.65610077 1.60538332 49 3 C54.94 3.33 60.88 3.66 67 4 C67 4.66 67 5.32 67 6 C46.00705988 7.26681535 25.02129913 7.1008774 4 7 C4 6.67 4 6.34 4 6 C5.10512939 5.94465088 6.21025879 5.88930176 7.34887695 5.83227539 C11.44724483 5.62590185 15.54531179 5.41400729 19.64331055 5.20043945 C21.41732176 5.10876138 23.19141112 5.01858275 24.96557617 4.92993164 C27.5150315 4.80228059 30.06415757 4.66924789 32.61328125 4.53515625 C33.40712723 4.49656998 34.20097321 4.4579837 35.01887512 4.41822815 C38.21757631 4.24559873 40.9452565 4.01824783 44 3 C44 2.34 44 1.68 44 1 C29.48 1 14.96 1 0 1 C0 0.67 0 0.34 0 0 Z " fill="#AD9549" transform="translate(211,367)"/>
<path d="M0 0 C7.59 0 15.18 0 23 0 C23 4.95 23 9.9 23 15 C15.41 15 7.82 15 0 15 C0 10.05 0 5.1 0 0 Z " fill="#080503" transform="translate(256,394)"/>
<path d="M0 0 C7.59 0 15.18 0 23 0 C23 4.95 23 9.9 23 15 C15.41 15 7.82 15 0 15 C0 10.05 0 5.1 0 0 Z " fill="#090402" transform="translate(162,394)"/>
<path d="M0 0 C0.33 1.32 0.66 2.64 1 4 C7.6 4.33 14.2 4.66 21 5 C21 5.66 21 6.32 21 7 C22.98 7 24.96 7 27 7 C27 9.97 27 12.94 27 16 C21.33333333 13.16666667 21.33333333 13.16666667 19 11 C19 9.68 19 8.36 19 7 C13.06 7 7.12 7 1 7 C1 9.97 1 12.94 1 16 C3.64 16 6.28 16 9 16 C9 18.31 9 20.62 9 23 C5.44431376 23.57349778 3.4381043 23.83439373 0 23 C-3.90400998 20.15199272 -7.25615095 16.98885545 -10 13 C-10.0885789 9.92926486 -8.96075773 8.95519408 -6.93359375 6.640625 C-6.10988281 5.85171875 -5.28617188 5.0628125 -4.4375 4.25 C-3.61121094 3.45078125 -2.78492188 2.6515625 -1.93359375 1.828125 C-1.29550781 1.22484375 -0.65742188 0.6215625 0 0 Z " fill="#9F8746" transform="translate(135,367)"/>
<path d="M0 0 C6.6 0 13.2 0 20 0 C20 6.93 20 13.86 20 21 C16.48361315 19.24180657 13.6979703 17.3977948 10.5625 15.0625 C6.55603276 12.06851769 6.55603276 12.06851769 2.15234375 9.74609375 C1.44207031 9.16988281 0.73179687 8.59367188 0 8 C0 5.36 0 2.72 0 0 Z " fill="#BB9130" transform="translate(201,151)"/>
<path d="M0 0 C0 11.88 0 23.76 0 36 C-2.31 36 -4.62 36 -7 36 C-7 24.12 -7 12.24 -7 0 C-2 -1 -2 -1 0 0 Z " fill="#B3923F" transform="translate(353,381)"/>
<path d="M0 0 C0.02712351 2.39591038 0.0468982 4.79150957 0.0625 7.1875 C0.07087891 7.86103516 0.07925781 8.53457031 0.08789062 9.22851562 C0.10157673 12.03416799 0.06499141 14.68316686 -0.5 17.4375 C-1.23915541 21.2256715 -1.10443978 24.96371899 -1.0625 28.8125 C-1.05798828 29.60076172 -1.05347656 30.38902344 -1.04882812 31.20117188 C-1.03711312 33.13414761 -1.01917998 35.06708393 -1 37 C-1.33 37 -1.66 37 -2 37 C-2 32.05 -2 27.1 -2 22 C-9.26 22 -16.52 22 -24 22 C-24 21.67 -24 21.34 -24 21 C-22.72382813 20.93941406 -21.44765625 20.87882812 -20.1328125 20.81640625 C-18.46352984 20.73200432 -16.79425963 20.64735614 -15.125 20.5625 C-14.28324219 20.52318359 -13.44148438 20.48386719 -12.57421875 20.44335938 C-11.76855469 20.40146484 -10.96289062 20.35957031 -10.1328125 20.31640625 C-9.01737061 20.26141968 -9.01737061 20.26141968 -7.87939453 20.20532227 C-5.91135688 20.10044135 -5.91135688 20.10044135 -4 19 C-4.33 18.34 -4.66 17.68 -5 17 C-8.70969505 15.76343498 -12.14085885 15.89286581 -16 15.9375 C-16.72445313 15.94201172 -17.44890625 15.94652344 -18.1953125 15.95117188 C-20.13023645 15.96366677 -22.06512365 15.98155309 -24 16 C-24.99 16 -25.98 16 -27 16 C-25 14 -25 14 -22.66162109 13.77294922 C-21.70852051 13.78342285 -20.75541992 13.79389648 -19.7734375 13.8046875 C-18.2265625 13.81435547 -18.2265625 13.81435547 -16.6484375 13.82421875 C-15.02808594 13.84935547 -15.02808594 13.84935547 -13.375 13.875 C-12.28703125 13.88402344 -11.1990625 13.89304687 -10.078125 13.90234375 C-7.38532351 13.92596482 -4.69263465 13.96183667 -2 14 C-2 10.04 -2 6.08 -2 2 C-9.59 2 -17.18 2 -25 2 C-25 4.97 -25 7.94 -25 11 C-30.66666667 8.16666667 -30.66666667 8.16666667 -33 6 C-33 4.68 -33 3.36 -33 2 C-26.76413372 0.95188123 -20.56302108 0.67969766 -14.25 0.4375 C-13.20972656 0.39431641 -12.16945313 0.35113281 -11.09765625 0.30664062 C-3.57279266 0 -3.57279266 0 0 0 Z " fill="#927A3F" transform="translate(281,372)"/>
<path d="M0 0 C5.28 0 10.56 0 16 0 C14.88378181 3.34865457 14.32525771 3.71566145 11.5 5.5625 C8.74463406 7.31619395 8.74463406 7.31619395 7 10 C5.35 10 3.7 10 2 10 C2 18.91 2 27.82 2 37 C0.68 37.66 -0.64 38.32 -2 39 C-2.33 39.99 -2.66 40.98 -3 42 C-3.66 41.34 -4.32 40.68 -5 40 C-4.02885254 39.01447144 -4.02885254 39.01447144 -3.03808594 38.0090332 C-0.50030422 34.26224838 -0.39788899 31.229194 -0.390625 26.85546875 C-0.37408875 26.08568192 -0.35755249 25.31589508 -0.34051514 24.52278137 C-0.29214714 22.07760553 -0.27069035 19.63305104 -0.25 17.1875 C-0.22183075 15.52405747 -0.19190198 13.86064374 -0.16015625 12.19726562 C-0.08309419 8.13122781 -0.04247658 4.06713282 0 0 Z " fill="#060405" transform="translate(287,374)"/>
<path d="M0 0 C6.80203375 -0.37634203 11.75690073 0.22528921 18 3 C17.67 5.64 17.34 8.28 17 11 C13.04 11 9.08 11 5 11 C5 10.01 5 9.02 5 8 C-9.85 7.34 -24.7 6.68 -40 6 C-40 5.67 -40 5.34 -40 5 C-34.95036161 4.9750056 -29.9007604 4.95700277 -24.85107422 4.94506836 C-23.13850272 4.94008528 -21.42593537 4.9332964 -19.71337891 4.92456055 C-10.08987658 4.87675238 -0.58033306 4.93511837 9 6 C9 4.68 9 3.36 9 2 C5.7 2 2.4 2 -1 2 C-0.67 1.34 -0.34 0.68 0 0 Z " fill="#A6832C" transform="translate(327,368)"/>
<path d="M0 0 C3.52700575 1.29767193 6.73869531 2.92098668 10.00927734 4.7668457 C33.96780051 18.19452887 63.35449554 22.37816695 90 15 C100.96019951 11.79894829 100.96019951 11.79894829 111.3984375 7.25 C112.25695312 6.8375 113.11546875 6.425 114 6 C114.99 6.495 114.99 6.495 116 7 C107.23789925 11.67662349 98.7014168 15.59741908 89 18 C88.31752197 18.17660156 87.63504395 18.35320312 86.93188477 18.53515625 C79.15923538 20.34406374 71.3751315 20.39780664 63.4375 20.375 C62.7269043 20.37445618 62.01630859 20.37391235 61.28417969 20.37335205 C50.343665 20.33483345 40.42471822 19.5710205 30 16 C29.33162109 15.78569336 28.66324219 15.57138672 27.97460938 15.35058594 C18.21007655 12.20708357 9.32160221 8.06698092 1 2 C0.67 1.34 0.34 0.68 0 0 Z " fill="#716D60" transform="translate(185,301)"/>
<path d="M0 0 C3.16148422 1.58074211 5.16125509 2.81117697 7.75 5.0625 C8.67039062 5.85333984 8.67039062 5.85333984 9.609375 6.66015625 C10.29773438 7.32337891 10.29773438 7.32337891 11 8 C11 8.33 11 8.66 11 9 C9.35 9 7.7 9 6 9 C5.505 7.515 5.505 7.515 5 6 C4.01 5.67 3.02 5.34 2 5 C2.05329468 6.75642822 2.05329468 6.75642822 2.10766602 8.54833984 C2.23780541 12.88299352 2.3610462 17.21782039 2.48217773 21.55273438 C2.53562556 23.43071883 2.59095705 25.30865063 2.64819336 27.18652344 C2.7300268 29.88204596 2.80513683 32.57768375 2.87890625 35.2734375 C2.90594131 36.11619232 2.93297638 36.95894714 2.96083069 37.82723999 C3.11387171 43.77225659 3.11387171 43.77225659 2 46 C1.01 46 0.02 46 -1 46 C-1 45.34 -1 44.68 -1 44 C-18.82 44.33 -36.64 44.66 -55 45 C-54.67 44.34 -54.34 43.68 -54 43 C-36.18 43 -18.36 43 0 43 C0 28.81 0 14.62 0 0 Z " fill="#7D6736" transform="translate(275,152)"/>
<path d="M0 0 C9.57 0 19.14 0 29 0 C28.67 1.32 28.34 2.64 28 4 C31.96 4 35.92 4 40 4 C40 2.68 40 1.36 40 0 C40.66 0 41.32 0 42 0 C42.495 2.475 42.495 2.475 43 5 C14.06736359 6.40027356 14.06736359 6.40027356 0 5 C0 3.35 0 1.7 0 0 Z " fill="#B8903D" transform="translate(304,375)"/>
<path d="M0 0 C1.46179688 0.04737305 1.46179688 0.04737305 2.953125 0.09570312 C5.34688977 0.17784211 7.73435168 0.29258327 10.125 0.4375 C10.125 0.7675 10.125 1.0975 10.125 1.4375 C8.87203125 1.46328125 7.6190625 1.4890625 6.328125 1.515625 C4.67704877 1.57191169 3.02600845 1.6292589 1.375 1.6875 C0.1375 1.70876953 0.1375 1.70876953 -1.125 1.73046875 C-6.08532064 1.88904811 -6.08532064 1.88904811 -10.2890625 4.328125 C-10.81242187 5.02421875 -11.33578125 5.7203125 -11.875 6.4375 C-13.174375 7.675 -13.174375 7.675 -14.5 8.9375 C-16.92180524 11.19682986 -16.92180524 11.19682986 -17.8125 13.625 C-19.44571436 16.41107156 -21.88774089 16.54767814 -24.875 17.4375 C-26.22272825 20.13295651 -26.00463339 22.24265425 -26.0078125 25.2578125 C-26.00910156 26.4334375 -26.01039063 27.6090625 -26.01171875 28.8203125 C-26.00785156 30.05523437 -26.00398437 31.29015625 -26 32.5625 C-26.00386719 33.77421875 -26.00773438 34.9859375 -26.01171875 36.234375 C-26.06677925 45.392012 -26.06677925 45.392012 -24.875 54.4375 C-23.885 55.0975 -22.895 55.7575 -21.875 56.4375 C-22.205 57.4275 -22.535 58.4175 -22.875 59.4375 C-25.27453039 57.83642926 -27.04103505 56.61024276 -28.875 54.4375 C-29.41465474 51.36959179 -29.58470672 49.11831757 -29.4609375 46.07421875 C-29.45244781 45.28223587 -29.44395813 44.49025299 -29.43521118 43.67427063 C-29.4017492 41.15643504 -29.32649443 38.64185924 -29.25 36.125 C-29.21989059 34.41345788 -29.19251647 32.7018653 -29.16796875 30.99023438 C-29.10198296 26.80474267 -28.99852036 22.62167302 -28.875 18.4375 C-28.215 18.4375 -27.555 18.4375 -26.875 18.4375 C-26.62234375 17.84582031 -26.3696875 17.25414062 -26.109375 16.64453125 C-24.72951102 14.17736939 -23.31138893 12.90038171 -21.125 11.125 C-19.037682 9.4280269 -17.18458398 7.88751702 -15.65380859 5.66235352 C-11.27609378 -0.52204968 -7.2435346 -0.44658648 0 0 Z " fill="#9C844D" transform="translate(229.875,196.5625)"/>
<path d="M0 0 C0.66 0.66 1.32 1.32 2 2 C2.33 1.34 2.66 0.68 3 0 C3.66 0 4.32 0 5 0 C5 10.89 5 21.78 5 33 C3.02 33 1.04 33 -1 33 C-1.02469081 28.6217488 -1.04285557 24.24353433 -1.05493164 19.86523438 C-1.05996514 18.37531834 -1.06679242 16.88540726 -1.07543945 15.39550781 C-1.08754805 13.25584696 -1.09323807 11.11625132 -1.09765625 8.9765625 C-1.10289307 7.68830566 -1.10812988 6.40004883 -1.11352539 5.07275391 C-1 2 -1 2 0 0 Z " fill="#B5933F" transform="translate(322,382)"/>
<path d="M0 0 C7.59 0 15.18 0 23 0 C23 17.82 23 35.64 23 54 C21 52 21 52 20.75949097 49.86129761 C20.7661528 48.5355925 20.7661528 48.5355925 20.77294922 47.18310547 C20.77310028 46.18221893 20.77325134 45.1813324 20.77340698 44.15011597 C20.78372955 43.06674957 20.79405212 41.98338318 20.8046875 40.8671875 C20.8075174 39.76021515 20.81034729 38.6532428 20.81326294 37.51272583 C20.82448481 33.96670863 20.84959309 30.42094125 20.875 26.875 C20.8850272 24.47526406 20.8941535 22.07552417 20.90234375 19.67578125 C20.92443072 13.78375747 20.9589743 7.89192113 21 2 C14.4 1.67 7.8 1.34 1 1 C1 12.22 1 23.44 1 35 C0.67 35 0.34 35 0 35 C0 23.45 0 11.9 0 0 Z " fill="#281A0A" transform="translate(209,382)"/>
<path d="M0 0 C1.06734375 -0.01160156 1.06734375 -0.01160156 2.15625 -0.0234375 C9.15528901 0.00267832 9.15528901 0.00267832 12 2.25 C12.59765625 4.32714844 12.59765625 4.32714844 13 6.25 C12.38479492 6.2593457 11.76958984 6.26869141 11.13574219 6.27832031 C8.33968914 6.33211085 5.5452938 6.41573819 2.75 6.5 C1.78191406 6.51417969 0.81382812 6.52835937 -0.18359375 6.54296875 C-5.84049986 6.64315736 -5.84049986 6.64315736 -10.671875 9.296875 C-11.32929688 10.26367188 -11.32929688 10.26367188 -12 11.25 C-12 10.59 -12 9.93 -12 9.25 C-12.99 9.25 -13.98 9.25 -15 9.25 C-15.33 8.26 -15.66 7.27 -16 6.25 C-10.93903589 0.82753845 -7.34976176 -0.07988871 0 0 Z " fill="#B7913D" transform="translate(265,386.75)"/>
<path d="M0 0 C0.99 0 1.98 0 3 0 C3.13277344 0.98742187 3.26554688 1.97484375 3.40234375 2.9921875 C3.57894531 4.27351563 3.75554687 5.55484375 3.9375 6.875 C4.11152344 8.15117187 4.28554687 9.42734375 4.46484375 10.7421875 C4.81433227 13.87559454 4.81433227 13.87559454 6 16 C7.93356663 16.46794323 7.93356663 16.46794323 10.25390625 16.6328125 C11.10791016 16.71660156 11.96191406 16.80039062 12.84179688 16.88671875 C13.73962891 16.96535156 14.63746094 17.04398437 15.5625 17.125 C16.46419922 17.21136719 17.36589844 17.29773438 18.29492188 17.38671875 C20.52929918 17.59951659 22.76413615 17.80354467 25 18 C25 18.99 25 19.98 25 21 C21.72933434 21.08706892 18.45896635 21.14041241 15.1875 21.1875 C14.25873047 21.21263672 13.32996094 21.23777344 12.37304688 21.26367188 C11.0340332 21.27817383 11.0340332 21.27817383 9.66796875 21.29296875 C8.84578857 21.3086792 8.0236084 21.32438965 7.17651367 21.34057617 C4.49543745 20.92104714 3.6130573 20.14498486 2 18 C2 17.34 2 16.68 2 16 C1.34 16 0.68 16 0 16 C-1.23004981 13.53990037 -1.13314027 11.86827194 -1.125 9.125 C-1.12757813 8.26132812 -1.13015625 7.39765625 -1.1328125 6.5078125 C-1.01023921 4.19334029 -0.64966445 2.21710884 0 0 Z " fill="#B89236" transform="translate(157,394)"/>
<path d="M0 0 C17.70063477 2.78650422 34.61306763 20.42291862 45.1875 34.125 C48.59691321 39.06502212 51.47509274 44.28018578 54.3125 49.5625 C54.73362061 50.34189941 55.15474121 51.12129883 55.58862305 51.92431641 C62.65396584 65.50286644 62.65396584 65.50286644 61.5715332 71.29125977 C61.38292725 71.85514404 61.19432129 72.41902832 61 73 C60.59910156 71.8140625 60.19820313 70.628125 59.78515625 69.40625 C50.23078701 41.87627501 34.75703861 20.61185461 9 6 C8.06800781 5.47019531 7.13601563 4.94039063 6.17578125 4.39453125 C4.12589427 3.24569349 2.06979438 2.11244763 0 1 C0 0.67 0 0.34 0 0 Z " fill="#706C61" transform="translate(292,111)"/>
<path d="M0 0 C0.99 0.495 0.99 0.495 2 1 C-0.42173996 5.81240667 -3.16146415 9.54226054 -8 12 C-17.14431763 13.95739011 -26.84688173 13.02855567 -36.125 12.6875 C-38.72906365 12.63227701 -41.33323938 12.58209503 -43.9375 12.53710938 C-50.29412571 12.41636164 -56.64654091 12.23273148 -63 12 C-63 11.01 -63 10.02 -63 9 C-45.51 9.33 -28.02 9.66 -10 10 C-9.34 8.68 -8.68 7.36 -8 6 C-6.6846659 5.29848848 -5.34882408 4.63474075 -4 4 C-2.62913085 2.70529025 -1.28659163 1.37849103 0 0 Z " fill="#AE9346" transform="translate(284,259)"/>
<path d="M0 0 C0 3.97144795 -1.89548889 6.09703576 -4.0625 9.25 C-20.3383503 33.82946161 -22.40879558 59.14217697 -22 88 C-25.3332866 82.54288615 -24.39336421 75.99938232 -24.375 69.8125 C-24.37445618 69.13427185 -24.37391235 68.4560437 -24.37335205 67.75726318 C-24.29507958 46.59802236 -18.75189061 25.72719385 -6.4375 8.25 C-5.83905273 7.38568359 -5.83905273 7.38568359 -5.22851562 6.50390625 C-3.59846183 4.16903787 -2.01757709 2.01757709 0 0 Z " fill="#6A645A" transform="translate(162,142)"/>
<path d="M0 0 C0 2.97 0 5.94 0 9 C2.97 9 5.94 9 9 9 C9 11.31 9 13.62 9 16 C4.91618356 16.58340235 1.462196 16.89003235 -2.15625 14.6875 C-5.62053427 11.50717346 -6.90625225 9.84372975 -7.4375 5.0625 C-7.293125 4.051875 -7.14875 3.04125 -7 2 C-2.25 0 -2.25 0 0 0 Z " fill="#B5903F" transform="translate(135,374)"/>
<path d="M0 0 C1.46227272 0.02997826 1.46227272 0.02997826 2.9540863 0.06056213 C4.05515213 0.08065842 5.15621796 0.1007547 6.29064941 0.12145996 C8.08749428 0.16201256 8.08749428 0.16201256 9.92063904 0.2033844 C11.74969032 0.23880089 11.74969032 0.23880089 13.61569214 0.27493286 C17.5286508 0.35179871 21.44142283 0.43572403 25.35423279 0.51979065 C27.9994058 0.5729884 30.64458805 0.62572892 33.28977966 0.67799377 C39.79054738 0.80744472 46.29117535 0.94269921 52.79173279 1.08229065 C52.79173279 1.41229065 52.79173279 1.74229065 52.79173279 2.08229065 C34.97173279 2.08229065 17.15173279 2.08229065 -1.20826721 2.08229065 C-1.20826721 13.63229065 -1.20826721 25.18229065 -1.20826721 37.08229065 C-1.86826721 37.08229065 -2.52826721 37.08229065 -3.20826721 37.08229065 C-3.23291731 31.97365169 -3.25110328 26.86504706 -3.26319885 21.75636292 C-3.26823925 20.01709897 -3.27507151 18.27783929 -3.28370667 16.53858948 C-3.29578513 14.04403128 -3.30149829 11.54952892 -3.30592346 9.0549469 C-3.31108475 8.27265213 -3.31624603 7.49035736 -3.32156372 6.68435669 C-3.32175947 4.81661951 -3.27026416 2.94899861 -3.20826721 1.08229065 C-2.20826721 0.08229065 -2.20826721 0.08229065 0 0 Z " fill="#A88E51" transform="translate(222.20826721191406,212.91770935058594)"/>
<path d="M0 0 C0.33 0 0.66 0 1 0 C1 11.55 1 23.1 1 35 C2.98 35 4.96 35 7 35 C7 24.11 7 13.22 7 2 C7.66 1.67 8.32 1.34 9 1 C9 12.88 9 24.76 9 37 C6.36 37 3.72 37 1 37 C0 36 0 36 -0.11352539 32.58178711 C-0.11336628 31.06363012 -0.10767226 29.54546771 -0.09765625 28.02734375 C-0.0962413 27.22970108 -0.09482635 26.43205841 -0.09336853 25.61024475 C-0.08775316 23.05262565 -0.07519812 20.49509282 -0.0625 17.9375 C-0.05748698 16.20768355 -0.05292373 14.47786574 -0.04882812 12.74804688 C-0.03777875 8.49866447 -0.02050386 4.24934688 0 0 Z " fill="#7B6536" transform="translate(295,381)"/>
<path d="M0 0 C3.64616671 0.13816959 7.29183074 0.28681534 10.9375 0.4375 C11.97841797 0.47681641 13.01933594 0.51613281 14.09179688 0.55664062 C15.08115234 0.59853516 16.07050781 0.64042969 17.08984375 0.68359375 C18.46450806 0.73858032 18.46450806 0.73858032 19.86694336 0.79467773 C22 1 22 1 23 2 C23 3.65 23 5.3 23 7 C11.615 6.505 11.615 6.505 0 6 C0 4.02 0 2.04 0 0 Z " fill="#B59338" transform="translate(256,409)"/>
<path d="M0 0 C3.81248426 -0.02887236 7.6249407 -0.04675492 11.4375 -0.0625 C12.52611328 -0.07087891 13.61472656 -0.07925781 14.73632812 -0.08789062 C15.77080078 -0.09111328 16.80527344 -0.09433594 17.87109375 -0.09765625 C18.82943115 -0.10289307 19.78776855 -0.10812988 20.77514648 -0.11352539 C23 0 23 0 24 1 C24.09909302 3.33160055 24.12970504 5.66629942 24.125 8 C24.12886719 9.918125 24.12886719 9.918125 24.1328125 11.875 C24 15 24 15 23 16 C21.14630389 16.08737645 19.28932459 16.10698153 17.43359375 16.09765625 C16.30888672 16.09443359 15.18417969 16.09121094 14.02539062 16.08789062 C12.84138672 16.07951172 11.65738281 16.07113281 10.4375 16.0625 C9.24962891 16.05798828 8.06175781 16.05347656 6.83789062 16.04882812 C3.89187774 16.03699675 0.94596319 16.02051287 -2 16 C-1.67 15.34 -1.34 14.68 -1 14 C6.59 14 14.18 14 22 14 C22 10.04 22 6.08 22 2 C14.41 2 6.82 2 -1 2 C-0.67 1.34 -0.34 0.68 0 0 Z " fill="#A1884B" transform="translate(163,372)"/>
<path d="M0 0 C0.66 0 1.32 0 2 0 C2 0.66 2 1.32 2 2 C1.34 2 0.68 2 0 2 C-0.33 2.99 -0.66 3.98 -1 5 C-11.56 5 -22.12 5 -33 5 C-33 4.01 -33 3.02 -33 2 C-31.55379272 1.96241577 -31.55379272 1.96241577 -30.07836914 1.92407227 C-26.51312158 1.83014694 -22.94807567 1.72989061 -19.38305664 1.62768555 C-17.83785711 1.58428015 -16.29260786 1.54260929 -14.74731445 1.50268555 C-12.53060904 1.44511801 -10.3141552 1.38138576 -8.09765625 1.31640625 C-7.4028566 1.29969376 -6.70805695 1.28298126 -5.99220276 1.26576233 C-2.71237971 1.43497144 -2.71237971 1.43497144 0 0 Z " fill="#B9932C" transform="translate(273,208)"/>
<path d="M0 0 C0.99 0 1.98 0 3 0 C3.12357051 4.92951281 3.21432177 9.85812532 3.2746582 14.78881836 C3.29980792 16.46606141 3.33393259 18.1431948 3.37719727 19.82006836 C3.4378346 22.23058085 3.46620284 24.63964552 3.48828125 27.05078125 C3.51408768 27.80087967 3.5398941 28.55097809 3.56648254 29.32380676 C3.56762695 31.4465332 3.56762695 31.4465332 3 35 C0.58142695 37.00766355 -0.83696278 38 -4 38 C-5.23102992 34.30691024 -4.87175152 31.11949288 -4.5625 27.3125 C-4.51029297 26.61060547 -4.45808594 25.90871094 -4.40429688 25.18554688 C-4.27492135 23.45661946 -4.13817469 21.72824645 -4 20 C-3.67 20 -3.34 20 -3 20 C-2.67 24.95 -2.34 29.9 -2 35 C-1.34 35 -0.68 35 0 35 C0 23.45 0 11.9 0 0 Z " fill="#AE904C" transform="translate(284,374)"/>
<path d="M0 0 C0.33 0 0.66 0 1 0 C1 27.72 1 55.44 1 84 C-0.98 84.99 -0.98 84.99 -3 86 C-3 86.66 -3 87.32 -3 88 C-4.485 88.495 -4.485 88.495 -6 89 C-5.67 87.68 -5.34 86.36 -5 85 C-4.34 85 -3.68 85 -3 85 C-3 84.34 -3 83.68 -3 83 C-2.01 82.505 -2.01 82.505 -1 82 C-0.505 41.41 -0.505 41.41 0 0 Z " fill="#A68C50" transform="translate(294,168)"/>
<path d="M0 0 C0.495 0.99 0.495 0.99 1 2 C-6.84098367 18.06231356 -23.44741669 35.88205343 -40 43 C-40.66 42.67 -41.32 42.34 -42 42 C-41.51120361 41.66266846 -41.02240723 41.32533691 -40.51879883 40.9777832 C-38.27963548 39.42800111 -36.0460671 37.87033544 -33.8125 36.3125 C-33.04357422 35.78205078 -32.27464844 35.25160156 -31.48242188 34.70507812 C-28.11819742 32.35156488 -24.92465031 30.07314171 -22.07421875 27.10546875 C-21.38972656 26.41066406 -20.70523437 25.71585937 -20 25 C-19.34 25 -18.68 25 -18 25 C-17.74476563 24.4225 -17.48953125 23.845 -17.2265625 23.25 C-15.8741612 20.76916194 -14.32025322 19.04600338 -12.375 17 C-7.59427199 11.75520865 -3.80176013 5.97563892 0 0 Z " fill="#6B675D" transform="translate(343,264)"/>
<path d="M0 0 C8.58 0 17.16 0 26 0 C26 1.32 26 2.64 26 4 C22.97910522 4.02716089 19.95845871 4.04691657 16.9375 4.0625 C16.08994141 4.07087891 15.24238281 4.07925781 14.36914062 4.08789062 C9.4638278 4.10683006 4.83555245 3.83326345 0 3 C0 2.01 0 1.02 0 0 Z " fill="#B79237" transform="translate(136,368)"/>
<path d="M0 0 C0.99 0.33 1.98 0.66 3 1 C3 2.65 3 4.3 3 6 C-5.25 6 -13.5 6 -22 6 C-21.67 4.68 -21.34 3.36 -21 2 C-14.07 2.33 -7.14 2.66 0 3 C0 2.01 0 1.02 0 0 Z " fill="#A38D44" transform="translate(367,368)"/>
<path d="M0 0 C0.33 0 0.66 0 1 0 C1.92808938 8.25026468 2.1230629 16.3903828 2.0625 24.6875 C2.05798828 25.87794922 2.05347656 27.06839844 2.04882812 28.29492188 C2.03717452 31.19666936 2.02081559 34.09830626 2 37 C1.360625 37.268125 0.72125 37.53625 0.0625 37.8125 C-2.33131686 38.88667752 -2.33131686 38.88667752 -3 42 C-3.66 41.34 -4.32 40.68 -5 40 C-4.02885254 39.01447144 -4.02885254 39.01447144 -3.03808594 38.0090332 C-0.50030422 34.26224838 -0.39788899 31.229194 -0.390625 26.85546875 C-0.37408875 26.08568192 -0.35755249 25.31589508 -0.34051514 24.52278137 C-0.29214714 22.07760553 -0.27069035 19.63305104 -0.25 17.1875 C-0.22183075 15.52405747 -0.19190198 13.86064374 -0.16015625 12.19726562 C-0.08639189 8.13156161 -0.03674945 4.06620024 0 0 Z " fill="#241603" transform="translate(287,374)"/>
<path d="M0 0 C9.9 0 19.8 0 30 0 C30 0.99 30 1.98 30 3 C26.31256766 3.05850924 22.6252563 3.09376673 18.9375 3.125 C17.89916016 3.14175781 16.86082031 3.15851563 15.79101562 3.17578125 C10.11288716 3.21183286 5.35608946 2.92971166 0 1 C0 0.67 0 0.34 0 0 Z " fill="#BA9137" transform="translate(337,368)"/>
<path d="M0 0 C7.59 0 15.18 0 23 0 C22.67 0.66 22.34 1.32 22 2 C15.07 1.67 8.14 1.34 1 1 C1 3.97 1 6.94 1 10 C8.26 10.33 15.52 10.66 23 11 C23 11.33 23 11.66 23 12 C21.97845825 12.029729 21.97845825 12.029729 20.9362793 12.06005859 C17.85296083 12.15526983 14.77032351 12.26496466 11.6875 12.375 C10.61564453 12.4059375 9.54378906 12.436875 8.43945312 12.46875 C6.89741211 12.52675781 6.89741211 12.52675781 5.32421875 12.5859375 C3.9024231 12.63306885 3.9024231 12.63306885 2.4519043 12.68115234 C-0.2530269 12.8489051 -0.2530269 12.8489051 -3 15 C-3 14.01 -3 13.02 -3 12 C-3.33 11.01 -3.66 10.02 -4 9 C-3.34 8.67 -2.68 8.34 -2 8 C-1.34 8.33 -0.68 8.66 0 9 C0 6.03 0 3.06 0 0 Z " fill="#1B0F04" transform="translate(256,374)"/>
<path d="M0 0 C0.66 0 1.32 0 2 0 C2 0.66 2 1.32 2 2 C3.65 2.33 5.3 2.66 7 3 C7 6.96 7 10.92 7 15 C6.01 15.33 5.02 15.66 4 16 C1.83909114 13.83909114 2.27599869 8.7994153 2 6 C1.67 8.97 1.34 11.94 1 15 C0.67 15 0.34 15 0 15 C0 10.05 0 5.1 0 0 Z " fill="#A58333" transform="translate(248,394)"/>
<path d="M0 0 C0.99 0 1.98 0 3 0 C2.67 1.32 2.34 2.64 2 4 C-11.2 4 -24.4 4 -38 4 C-38 3.67 -38 3.34 -38 3 C-36.88439697 2.94465088 -35.76879395 2.88930176 -34.61938477 2.83227539 C-30.49494939 2.62640701 -26.37085041 2.41437345 -22.24682617 2.20043945 C-20.459152 2.10857625 -18.67139015 2.01840334 -16.88354492 1.92993164 C-14.3192512 1.80274722 -11.75533037 1.6695609 -9.19140625 1.53515625 C-8.3872377 1.49656998 -7.58306915 1.4579837 -6.75453186 1.41822815 C-3.07060288 1.54860816 -3.07060288 1.54860816 0 0 Z " fill="#A58943" transform="translate(253,370)"/>
<path d="M0 0 C3.25991742 3.15342284 6.22029704 6.40907996 9.09863281 9.91162109 C15.11415403 17.2093031 21.50336596 23.23131352 29 29 C22.75124412 29 17.33968624 22.46085739 13 18.3125 C0 4.97177419 0 4.97177419 0 0 Z " fill="#666359" transform="translate(156,271)"/>
<path d="M0 0 C0.33 0 0.66 0 1 0 C1.2333606 0.86782104 1.2333606 0.86782104 1.47143555 1.75317383 C5.0861098 18.90214442 5.0861098 18.90214442 13.6015625 33.57421875 C15.72547325 35.73965848 15.67467396 38.0720656 16 41 C12.03609005 37.58466688 10.14315924 33.78845208 8 29.125 C7.47889648 28.00194458 7.47889648 28.00194458 6.94726562 26.85620117 C3.08514875 18.30320642 -0.34229496 9.51294752 0 0 Z " fill="#6A685B" transform="translate(140,230)"/>
<path d="M0 0 C0.33 0 0.66 0 1 0 C1.33 16.17 1.66 32.34 2 49 C3.32 49 4.64 49 6 49 C6 49.99 6 50.98 6 52 C4.02 52 2.04 52 0 52 C0 34.84 0 17.68 0 0 Z " fill="#AD9346" transform="translate(233,385)"/>
<path d="M0 0 C0.99 0.33 1.98 0.66 3 1 C4.70214111 1.11534189 6.40821409 1.17641041 8.11401367 1.20532227 C9.67529243 1.2352401 9.67529243 1.2352401 11.26811218 1.26576233 C12.39006485 1.28247482 13.51201752 1.29918732 14.66796875 1.31640625 C15.81791824 1.33718735 16.96786774 1.35796844 18.15266418 1.37937927 C21.83088125 1.44483342 25.50917048 1.50374074 29.1875 1.5625 C31.67904396 1.60568913 34.17058059 1.64930355 36.66210938 1.69335938 C42.77466301 1.80051061 48.88728864 1.90228483 55 2 C55 2.33 55 2.66 55 3 C36.85 3 18.7 3 0 3 C0 2.01 0 1.02 0 0 Z " fill="#A68D56" transform="translate(221,268)"/>
<path d="M0 0 C6.6 0 13.2 0 20 0 C20 0.33 20 0.66 20 1 C13.73 1 7.46 1 1 1 C1 2.98 1 4.96 1 7 C2.4540625 7.4021875 2.4540625 7.4021875 3.9375 7.8125 C4.948125 8.204375 5.95875 8.59625 7 9 C7.33 9.99 7.66 10.98 8 12 C9.32 11.67 10.64 11.34 12 11 C13.0625 12.875 13.0625 12.875 14 15 C13.67 15.66 13.34 16.32 13 17 C12.22914063 16.43410156 11.45828125 15.86820313 10.6640625 15.28515625 C9.15972656 14.18494141 9.15972656 14.18494141 7.625 13.0625 C6.62726563 12.33160156 5.62953125 11.60070312 4.6015625 10.84765625 C2.17182891 9.0220431 2.17182891 9.0220431 0 8 C0 5.36 0 2.72 0 0 Z " fill="#8A7646" transform="translate(201,151)"/>
<path d="M0 0 C3.3529984 1.17808052 5.7552529 2.19406612 8 5 C9.1687481 8.5062443 9.12514267 11.6477866 9.09765625 15.29296875 C9.0962413 15.99899734 9.09482635 16.70502594 9.09336853 17.43244934 C9.08777764 19.68417626 9.07522688 21.93580321 9.0625 24.1875 C9.05748382 25.71549335 9.05292112 27.24348827 9.04882812 28.77148438 C9.0378112 32.51436135 9.02055287 36.25716373 9 40 C8.67 40 8.34 40 8 40 C7.97494385 39.08186523 7.9498877 38.16373047 7.92407227 37.21777344 C7.8287973 33.80342975 7.72957222 30.38924797 7.62768555 26.97509766 C7.58443965 25.4989061 7.54275744 24.02266785 7.50268555 22.54638672 C7.44473154 20.42140652 7.38111054 18.29665907 7.31640625 16.171875 C7.27974854 14.8940918 7.24309082 13.61630859 7.20532227 12.29980469 C7.04236741 9.68090127 6.77053197 7.48983284 6 5 C4.35 4.67 2.7 4.34 1 4 C0.67 2.68 0.34 1.36 0 0 Z " fill="#B79344" transform="translate(230,375)"/>
<path d="M0 0 C3.3 0.33 6.6 0.66 10 1 C10 1.33 10 1.66 10 2 C7.36 2 4.72 2 2 2 C2 13.55 2 25.1 2 37 C1.67 37 1.34 37 1 37 C0.67 24.79 0.34 12.58 0 0 Z " fill="#9C854A" transform="translate(191,372)"/>
<path d="M0 0 C6.27 0 12.54 0 19 0 C19 6.6 19 13.2 19 20 C15 18 15 18 14 16 C15.32 16 16.64 16 18 16 C18 11.38 18 6.76 18 2 C12.39 1.67 6.78 1.34 1 1 C1.33 2.65 1.66 4.3 2 6 C1.34 6 0.68 6 0 6 C0 4.02 0 2.04 0 0 Z " fill="#A68E57" transform="translate(202,152)"/>
<path d="M0 0 C0.66 0.33 1.32 0.66 2 1 C1.67 1.99 1.34 2.98 1 4 C-0.98 4.33 -2.96 4.66 -5 5 C-3.35 3.35 -1.7 1.7 0 0 Z M-7 5 C-6.34 5.33 -5.68 5.66 -5 6 C-5.56589844 6.47050781 -6.13179687 6.94101563 -6.71484375 7.42578125 C-7.44832031 8.04839844 -8.18179688 8.67101562 -8.9375 9.3125 C-9.66839844 9.92738281 -10.39929688 10.54226562 -11.15234375 11.17578125 C-13.23820366 12.95975519 -13.23820366 12.95975519 -14 16 C-14.556875 16.268125 -15.11375 16.53625 -15.6875 16.8125 C-19.12757508 18.57902504 -21.33261312 21.21136826 -24 24 C-24.66 23.67 -25.32 23.34 -26 23 C-23.39993924 20.37090575 -20.79426043 17.7474503 -18.1875 15.125 C-17.44951172 14.37863281 -16.71152344 13.63226563 -15.95117188 12.86328125 C-15.23896484 12.14785156 -14.52675781 11.43242187 -13.79296875 10.6953125 C-13.1383667 10.03547363 -12.48376465 9.37563477 -11.80932617 8.69580078 C-10 7 -10 7 -7 5 Z " fill="#110D08" transform="translate(189,119)"/>
<path d="M0 0 C2.64 0 5.28 0 8 0 C8 2.97 8 5.94 8 9 C2.33333333 6.16666667 2.33333333 6.16666667 0 4 C0 2.68 0 1.36 0 0 Z " fill="#8D7A41" transform="translate(154,374)"/>
<path d="M0 0 C0.33 0 0.66 0 1 0 C1 4.62 1 9.24 1 14 C-0.65 14 -2.3 14 -4 14 C-4 13.34 -4 12.68 -4 12 C-4.66 11.67 -5.32 11.34 -6 11 C-6 10.34 -6 9.68 -6 9 C-7.32 9 -8.64 9 -10 9 C-10.66 7.68 -11.32 6.36 -12 5 C-8.535 4.505 -8.535 4.505 -5 4 C-4.896875 4.5775 -4.79375 5.155 -4.6875 5.75 C-3.99175368 8.48326747 -3.99175368 8.48326747 -1 12 C-0.67 8.04 -0.34 4.08 0 0 Z " fill="#B79142" transform="translate(219,154)"/>
<path d="M0 0 C1.9375 0.8125 1.9375 0.8125 4 2 C4.33 2.99 4.66 3.98 5 5 C0.37540756 6.17700048 -4.07866462 6.11408412 -8.8125 6.0625 C-9.99489258 6.05573242 -9.99489258 6.05573242 -11.20117188 6.04882812 C-13.13414761 6.03711312 -15.06708393 6.01917998 -17 6 C-17 5.34 -17 4.68 -17 4 C-11.06 4 -5.12 4 1 4 C0.67 2.68 0.34 1.36 0 0 Z " fill="#927B43" transform="translate(346,376)"/>
<path d="M0 0 C0 1.65 0 3.3 0 5 C5.28 5 10.56 5 16 5 C16 5.33 16 5.66 16 6 C5.11 6.495 5.11 6.495 -6 7 C-6 6.01 -6 5.02 -6 4 C-1.54285714 0 -1.54285714 0 0 0 Z " fill="#A88E46" transform="translate(304,375)"/>
<path d="M0 0 C2.64 0 5.28 0 8 0 C8 2.31 8 4.62 8 7 C0.17847534 7.92017937 0.17847534 7.92017937 -2.7109375 5.6640625 C-4.0625 4 -4.0625 4 -6 1 C-4.68 1 -3.36 1 -2 1 C-2 1.66 -2 2.32 -2 3 C-1.34 3 -0.68 3 0 3 C0 3.66 0 4.32 0 5 C1.98 4.67 3.96 4.34 6 4 C6.33 3.01 6.66 2.02 7 1 C4.69 1 2.38 1 0 1 C0 0.67 0 0.34 0 0 Z " fill="#9F8951" transform="translate(136,383)"/>
<path d="M0 0 C7.26 0 14.52 0 22 0 C22.33 0.99 22.66 1.98 23 3 C24.32 2.67 25.64 2.34 27 2 C25.63016497 5.16115776 25.0109362 5.9927092 22 8 C21.67 6.02 21.34 4.04 21 2 C14.07 1.67 7.14 1.34 0 1 C0 0.67 0 0.34 0 0 Z " fill="#978148" transform="translate(257,409)"/>
<path d="M0 0 C4.14032846 1.54385129 7.93553053 3.51028938 11.8125 5.625 C12.40998047 5.94984375 13.00746094 6.2746875 13.62304688 6.609375 C15.08337135 7.40379151 16.54187491 8.20155376 18 9 C18 9.66 18 10.32 18 11 C13.59964093 9.6961899 10.03959815 7.98726447 6.1875 5.5 C5.23230469 4.8915625 4.27710938 4.283125 3.29296875 3.65625 C1 2 1 2 0 0 Z " fill="#666058" transform="translate(185,301)"/>
<path d="M0 0 C2.31 0 4.62 0 7 0 C7 2.31 7 4.62 7 7 C4.50638429 5.79618552 2.31856917 4.54571278 0 3 C0 2.01 0 1.02 0 0 Z " fill="#9F8B49" transform="translate(248,375)"/>
<path d="M0 0 C0.66 0.33 1.32 0.66 2 1 C2.625 4.0625 2.625 4.0625 3 7 C2.01 7.66 1.02 8.32 0 9 C0 8.34 0 7.68 0 7 C-0.99 7 -1.98 7 -3 7 C-3.33 6.01 -3.66 5.02 -4 4 C-2.68 2.68 -1.36 1.36 0 0 Z " fill="#AE8B40" transform="translate(253,389)"/>
<path d="M0 0 C1.47533203 0.02707031 1.47533203 0.02707031 2.98046875 0.0546875 C5.40463783 0.10175874 7.82682059 0.16749258 10.25 0.25 C10.25 0.58 10.25 0.91 10.25 1.25 C8.38794922 1.30607422 8.38794922 1.30607422 6.48828125 1.36328125 C4.84632489 1.4289595 3.20439913 1.4954062 1.5625 1.5625 C0.33756836 1.59633789 0.33756836 1.59633789 -0.91210938 1.63085938 C-5.75770186 1.84665499 -8.65133744 2.45225137 -12.75 5.25 C-13.41 4.92 -14.07 4.59 -14.75 4.25 C-11.0671236 -1.25265062 -5.94711347 -0.20589208 0 0 Z " fill="#A0833E" transform="translate(229.75,196.75)"/>
<path d="M0 0 C4.95 0 9.9 0 15 0 C15.33 0.66 15.66 1.32 16 2 C10.06390334 2.89316269 4.93024803 2.97040422 -1 2 C-0.67 1.34 -0.34 0.68 0 0 Z " fill="#BB8F45" transform="translate(211,375)"/>
<path d="M0 0 C4.95 0 9.9 0 15 0 C14 3 14 3 11.9375 4.1875 C11.298125 4.455625 10.65875 4.72375 10 5 C10 3.68 10 2.36 10 1 C8.5199159 1.11362262 7.04089926 1.24122908 5.5625 1.375 C4.73878906 1.44460938 3.91507812 1.51421875 3.06640625 1.5859375 C2.04353516 1.79089844 2.04353516 1.79089844 1 2 C0.67 2.66 0.34 3.32 0 4 C0 2.68 0 1.36 0 0 Z " fill="#180702" transform="translate(288,374)"/>
<path d="M0 0 C2.36964362 2.15422147 3.57980514 4.15961028 5 7 C5.515625 7.45375 6.03125 7.9075 6.5625 8.375 C8.62278935 10.70402275 8.6639317 12.97538534 9 16 C4.49583156 12.32993682 2.23209799 7.25091904 0 2 C0 1.34 0 0.68 0 0 Z " fill="#615D50" transform="translate(147,255)"/>
<path d="M0 0 C3.94794145 1.67028292 6.81796118 4.1795565 10 7 C10 7.33 10 7.66 10 8 C8.35 8 6.7 8 5 8 C4.731875 7.360625 4.46375 6.72125 4.1875 6.0625 C3.11332248 3.66868314 3.11332248 3.66868314 0 3 C0 2.01 0 1.02 0 0 Z " fill="#A28854" transform="translate(276,153)"/>
<path d="M0 0 C1.32 0 2.64 0 4 0 C4 1.98 4 3.96 4 6 C2.68 6 1.36 6 0 6 C0 4.02 0 2.04 0 0 Z " fill="#B59331" transform="translate(281,403)"/>
<path d="M0 0 C0.33 0.99 0.66 1.98 1 3 C-1.31 5.31 -3.62 7.62 -6 10 C-6.99 9.67 -7.98 9.34 -9 9 C-7.625 7.5 -7.625 7.5 -6 6 C-5.34 6 -4.68 6 -4 6 C-3.71125 5.38125 -3.4225 4.7625 -3.125 4.125 C-2 2 -2 2 0 0 Z " fill="#5A594E" transform="translate(329,283)"/>
<path d="M0 0 C0.66 0.33 1.32 0.66 2 1 C-0.97 4.3 -3.94 7.6 -7 11 C-8 8 -8 8 -7 5 C-6.01 4.67 -5.02 4.34 -4 4 C-2.62804426 2.70644173 -1.28817344 1.37701298 0 0 Z " fill="#A08C51" transform="translate(284,259)"/>
<path d="M0 0 C0.66 0.66 1.32 1.32 2 2 C1.01 2.99 0.02 3.98 -1 5 C-1.66 4.67 -2.32 4.34 -3 4 C-2.01 2.68 -1.02 1.36 0 0 Z M-5 6 C-4.67 6.66 -4.34 7.32 -4 8 C-4.66 7.67 -5.32 7.34 -6 7 C-5.67 6.67 -5.34 6.34 -5 6 Z M-7 8 C-6.34 8.66 -5.68 9.32 -5 10 C-5.99 10 -6.98 10 -8 10 C-7.67 9.34 -7.34 8.68 -7 8 Z M-11 11 C-10.34 11.33 -9.68 11.66 -9 12 C-9.99 12 -10.98 12 -12 12 C-11.67 11.67 -11.34 11.34 -11 11 Z " fill="#0B0A05" transform="translate(332,282)"/>
<path d="M0 0 C4.95 0 9.9 0 15 0 C15 0.33 15 0.66 15 1 C9.06 1.495 9.06 1.495 3 2 C3 3.32 3 4.64 3 6 C2.34 6 1.68 6 1 6 C0.67 4.02 0.34 2.04 0 0 Z " fill="#B4913E" transform="translate(203,153)"/>
<path d="M0 0 C0 0.66 0 1.32 0 2 C-2.5 3.5 -2.5 3.5 -5 5 C-6.7041054 6.62836738 -8.38025441 8.28769752 -10 10 C-9.43867066 6.4628562 -8.30442253 5.00738321 -5.5625 2.75 C-4.94503906 2.22921875 -4.32757813 1.7084375 -3.69140625 1.171875 C-2 0 -2 0 0 0 Z " fill="#AE9454" transform="translate(220,200)"/>
<path d="M0 0 C3.91402949 1.26941497 5.79072873 2.51167694 8 6 C5.69 5.34 3.38 4.68 1 4 C0.67 2.68 0.34 1.36 0 0 Z " fill="#9B8248" transform="translate(230,375)"/>
<path d="M0 0 C0.33 0.99 0.66 1.98 1 3 C1.66 3.33 2.32 3.66 3 4 C-1.455 5.485 -1.455 5.485 -6 7 C-4.02 4.69 -2.04 2.38 0 0 Z " fill="#977C3B" transform="translate(209,207)"/>
<path d="M0 0 C3.93548431 3.06093224 6.68116787 5.49115974 9 10 C8.01 10.495 8.01 10.495 7 11 C5.82750647 9.54634731 4.66216184 8.08692581 3.5 6.625 C2.52546875 5.40683594 2.52546875 5.40683594 1.53125 4.1640625 C0 2 0 2 0 0 Z " fill="#68675B" transform="translate(327,135)"/>
<path d="M0 0 C2.97 0.33 5.94 0.66 9 1 C7.02 1.99 7.02 1.99 5 3 C5 3.66 5 4.32 5 5 C3.0625 4.1875 3.0625 4.1875 1 3 C0.67 2.01 0.34 1.02 0 0 Z " fill="#AE8C36" transform="translate(159,410)"/>
<path d="M0 0 C0.99 0 1.98 0 3 0 C1.63016497 3.16115776 1.0109362 3.9927092 -2 6 C-2.33 5.01 -2.66 4.02 -3 3 C-2.34 3 -1.68 3 -1 3 C-0.67 2.01 -0.34 1.02 0 0 Z " fill="#AD8B41" transform="translate(188,409)"/>
<path d="M0 0 C1.32 0.33 2.64 0.66 4 1 C4 1.66 4 2.32 4 3 C2.02 3.33 0.04 3.66 -2 4 C-1.34 2.68 -0.68 1.36 0 0 Z " fill="#BD8F32" transform="translate(273,388)"/>
<path d="M0 0 C0 3 0 3 -2 5.1875 C-2.66 5.785625 -3.32 6.38375 -4 7 C-4.99 6.67 -5.98 6.34 -7 6 C-5.625 4.5 -5.625 4.5 -4 3 C-3.34 3 -2.68 3 -2 3 C-2 2.34 -2 1.68 -2 1 C-1.34 0.67 -0.68 0.34 0 0 Z " fill="#291D0E" transform="translate(293,253)"/>
<path d="M0 0 C0.66 0 1.32 0 2 0 C1.67 1.65 1.34 3.3 1 5 C0.34 5 -0.32 5 -1 5 C-1 5.66 -1 6.32 -1 7 C-1.99 7 -2.98 7 -4 7 C-4 5 -4 5 -2.5625 3.5 C-2.046875 3.005 -1.53125 2.51 -1 2 C-0.67 1.34 -0.34 0.68 0 0 Z " fill="#BB8E27" transform="translate(222,200)"/>
<path d="M0 0 C0.99 0.33 1.98 0.66 3 1 C2.01 1.495 2.01 1.495 1 2 C1.66 2.66 2.32 3.32 3 4 C2.360625 4.12375 1.72125 4.2475 1.0625 4.375 C0.0415625 4.684375 0.0415625 4.684375 -1 5 C-1.33 5.66 -1.66 6.32 -2 7 C-1.125 1.125 -1.125 1.125 0 0 Z " fill="#BC953C" transform="translate(285,369)"/>
<path d="M0 0 C2.00720923 0.28674418 4.0085944 0.61866701 6 1 C5.67 1.66 5.34 2.32 5 3 C2.9375 3.625 2.9375 3.625 1 4 C0.34 3.01 -0.32 2.02 -1 1 C-0.67 0.67 -0.34 0.34 0 0 Z " fill="#BD9026" transform="translate(206,154)"/>
</svg>
