<?xml version="1.0" encoding="UTF-8"?>
<svg version="1.1" xmlns="http://www.w3.org/2000/svg" width="500" height="160">
<path d="M0 0 C165 0 330 0 500 0 C500 52.8 500 105.6 500 160 C335 160 170 160 0 160 C0 107.2 0 54.4 0 0 Z " fill="#FDFDFD" transform="translate(0,0)"/>
<path d="M0 0 C0.495 1.485 0.495 1.485 1 3 C1.62777344 3.22816406 2.25554687 3.45632812 2.90234375 3.69140625 C6.2740331 5.79478787 6.62289009 9.28755222 7.5625 12.9375 C7.77447021 13.70441162 7.98644043 14.47132324 8.20483398 15.26147461 C9.12107358 18.5948782 9.98473377 21.94048999 10.84375 25.2890625 C12.32254944 30.99529946 14.24921031 35.78298506 17 41 C17 41.66 17 42.32 17 43 C21.07723734 44.95031692 24.31692422 45.21581971 28.8125 45.125 C29.97394531 45.10695312 31.13539063 45.08890625 32.33203125 45.0703125 C33.21246094 45.04710937 34.09289062 45.02390625 35 45 C35.33 44.01 35.66 43.02 36 42 C36.66 42 37.32 42 38 42 C38.268125 41.29875 38.53625 40.5975 38.8125 39.875 C40 37 40 37 41.4375 34.3125 C43.46862676 30.00651128 44.72447721 25.57740804 46 21 C46.33 21 46.66 21 47 21 C47.71303191 34.21089671 45.547599 45.92051173 38 57 C36 59.1875 36 59.1875 34 61 C33.11511261 62.07527225 32.24060012 63.15914137 31.375 64.25 C30.59125 65.1575 29.8075 66.065 29 67 C28.34 67 27.68 67 27 67 C27 67.66 27 68.32 27 69 C25.3203125 70.2890625 25.3203125 70.2890625 23.125 71.625 C22.40570313 72.07101563 21.68640625 72.51703125 20.9453125 72.9765625 C19 74 19 74 17 74 C17 74.66 17 75.32 17 76 C16.319375 76.268125 15.63875 76.53625 14.9375 76.8125 C12.77415695 77.68704293 10.63073998 78.61127679 8.5 79.5625 C-1.33834624 83.60324935 -15.914895 83.70283376 -26 80 C-28.84368346 78.73658075 -31.64511376 77.42805649 -34.421875 76.0234375 C-37.15445554 74.93868583 -39.08963227 74.80108998 -42 75 C-42.66 76.98 -43.32 78.96 -44 81 C-44.99 81 -45.98 81 -47 81 C-48.76805129 77.46389742 -48.50772908 73.86110258 -48 70 C-42.11532692 52.89595021 -27.12616132 38.92922961 -11.3125 31 C-9.87996876 30.3227224 -8.44435461 29.65168278 -7 29 C-15.11138929 29.36620268 -22.33035667 31.41540233 -30 34 C-26.90063245 26.03806915 -22.57951963 19.17907985 -17.625 12.25 C-17.17906494 11.6120752 -16.73312988 10.97415039 -16.27368164 10.31689453 C-12.34808399 4.93567484 -7.30080822 -1.10618306 0 0 Z " fill="#8C8C8C" transform="translate(117,71)"/>
<path d="M0 0 C0 0.66 0 1.32 0 2 C0.86625 2.2475 1.7325 2.495 2.625 2.75 C8.55408533 4.94595753 12.73003904 8.40979197 17 13 C17.47308594 13.47953125 17.94617188 13.9590625 18.43359375 14.453125 C24.66122771 21.11750212 29.29850928 29.46266862 30.08666992 38.63574219 C29.93042957 42.89780281 28.30483802 46.37981115 26.5 50.1875 C26.00886719 51.33895508 26.00886719 51.33895508 25.5078125 52.51367188 C23.07358291 57.85341987 20.04238719 61.86388114 15 65 C12.25 65.1875 12.25 65.1875 10 64 C7.24212359 60.14322682 6.15146339 56.39736303 5.0625 51.8125 C4.89484131 51.12341553 4.72718262 50.43433105 4.55444336 49.72436523 C3.63999131 45.91848665 2.80674982 42.1021424 2.03125 38.265625 C-0.22713297 27.19440274 -2.23211315 17.79505172 -12 11 C-18.11751679 8.96082774 -24.05870113 9.73150407 -30 12 C-32.41791223 13.56771138 -34.6870115 15.2765968 -37 17 C-37.66 17 -38.32 17 -39 17 C-39 17.66 -39 18.32 -39 19 C-40.46875 20.41015625 -40.46875 20.41015625 -42.5 22.0625 C-57.61570759 35.11697473 -66.53910567 53.18235193 -75 71 C-75.66 71 -76.32 71 -77 71 C-82.50708893 58.54348933 -81.4475622 42.94890144 -77.0703125 30.3359375 C-76 28 -76 28 -74 26 C-72.96157435 23.68351201 -71.9578025 21.35096976 -71 19 C-70.34 19 -69.68 19 -69 19 C-68.773125 18.443125 -68.54625 17.88625 -68.3125 17.3125 C-66.6149149 14.32151673 -64.51535592 12.34385438 -62 10 C-61.154375 9.195625 -60.30875 8.39125 -59.4375 7.5625 C-41.99124311 -6.50992604 -20.31608441 -5.91013365 0 0 Z " fill="#81171B" transform="translate(132,45)"/>
<path d="M0 0 C2.31 0 4.62 0 7 0 C7 15.51 7 31.02 7 47 C-9.48917717 47.04010881 -9.48917717 47.04010881 -16.5859375 47.04882812 C-21.40463377 47.05477686 -26.22331082 47.06176961 -31.04199219 47.07543945 C-34.93236246 47.08640518 -38.82271207 47.09230545 -42.71309662 47.09487724 C-44.1880399 47.09670708 -45.66298222 47.1002795 -47.13791656 47.10573006 C-55.02154835 47.13367166 -62.80103278 46.98714917 -70.6461792 46.11766052 C-73.15375261 45.84947523 -73.15375261 45.84947523 -76 47 C-78.26845929 47.12117236 -80.54083894 47.17540383 -82.8125 47.1875 C-84.61654297 47.20876953 -84.61654297 47.20876953 -86.45703125 47.23046875 C-89.98083425 47.00124672 -92.72129528 46.27030979 -96 45 C-96.02578125 45.59167969 -96.0515625 46.18335938 -96.078125 46.79296875 C-96.45356687 52.02355666 -97.01142464 55.24604672 -101 59 C-104.01490557 60.00496852 -106.04181692 60.10335303 -109.1875 60.0625 C-110.08855469 60.05347656 -110.98960937 60.04445312 -111.91796875 60.03515625 C-112.60503906 60.02355469 -113.29210937 60.01195312 -114 60 C-114.04254356 58.00045254 -114.04080783 55.99958364 -114 54 C-112.19533017 52.19533017 -109.26897184 52.58507442 -106.8125 52.37890625 C-106.214375 52.25386719 -105.61625 52.12882812 -105 52 C-103.57732138 49.15464275 -103.78028131 46.63781448 -103.68359375 43.4609375 C-103.64169922 42.15898438 -103.59980469 40.85703125 -103.55664062 39.515625 C-103.51682701 38.13541955 -103.47711478 36.75521117 -103.4375 35.375 C-103.39430593 33.98696585 -103.35069135 32.59894472 -103.30664062 31.2109375 C-103.20028 27.80739744 -103.09825286 24.40378222 -103 21 C-100.69 21 -98.38 21 -96 21 C-95.93941406 22.04800781 -95.87882812 23.09601562 -95.81640625 24.17578125 C-95.73198262 25.55470048 -95.64733553 26.93360605 -95.5625 28.3125 C-95.52318359 29.00279297 -95.48386719 29.69308594 -95.44335938 30.40429688 C-95.25072585 33.47161535 -94.97677283 36.06968152 -94 39 C-88.39 39.33 -82.78 39.66 -77 40 C-78.155 38.288125 -79.31 36.57625 -80.5 34.8125 C-84.7780389 28.47183521 -84.7780389 28.47183521 -84 24 C-81.95178476 21.18804348 -79.2526024 20.06664289 -76 19 C-73.07894796 18.61230065 -70.19471959 18.51654863 -67.25 18.5 C-66.50500244 18.49379639 -65.76000488 18.48759277 -64.99243164 18.48120117 C-61.80044911 18.55501464 -59.36456195 18.81113745 -56.51171875 20.2890625 C-54.3924415 22.68762435 -54.51473527 24.90732187 -54.66796875 28.01171875 C-55.1364649 30.81718393 -56.37778629 32.6914651 -58 35 C-58.66 36.65 -59.32 38.3 -60 40 C-40.2 40 -20.4 40 0 40 C0 26.8 0 13.6 0 0 Z " fill="#8B8B8B" transform="translate(425,31)"/>
<path d="M0 0 C2.31 0 4.62 0 7 0 C7 8.58 7 17.16 7 26 C-1.42313589 26.02258213 -9.8462483 26.04093316 -18.26940632 26.05181217 C-22.18051083 26.05703324 -26.09159357 26.06411685 -30.00268555 26.07543945 C-33.77630515 26.08629584 -37.54990381 26.09228269 -41.32353783 26.09487724 C-42.76405352 26.09672652 -44.20456806 26.10033762 -45.64507484 26.10573006 C-47.6609142 26.11297686 -49.67677458 26.11340837 -51.69262695 26.11352539 C-53.41471123 26.11685631 -53.41471123 26.11685631 -55.17158508 26.12025452 C-58 26 -58 26 -61 25 C-61.0928125 26.299375 -61.0928125 26.299375 -61.1875 27.625 C-62.52677759 33.18815308 -65.34634099 35.98755571 -70.0625 38.875 C-76.48732877 41.21767774 -84.22607419 41.15815568 -90.5 38.4375 C-94.40919665 36.10827033 -96.63941644 33.34702169 -98 29 C-98.98850138 22.68268085 -97.51810166 17.77064964 -95 12 C-93.35 12 -91.7 12 -90 12 C-88.875 13.75 -88.875 13.75 -88 16 C-88.63040043 17.35085807 -89.30251417 18.68252676 -90 20 C-90.35450364 24.16541782 -90.00797598 27.30109689 -88 31 C-84.83754459 32.0541518 -82.13051782 32.31275672 -78.8125 32.5625 C-77.72582031 32.64628906 -76.63914063 32.73007813 -75.51953125 32.81640625 C-74.68808594 32.87699219 -73.85664063 32.93757813 -73 33 C-73 32.34 -73 31.68 -73 31 C-72.154375 30.34 -71.30875 29.68 -70.4375 29 C-67.69030142 25.61883252 -67.68614255 25.05922114 -68.0625 20.9375 C-68.52988104 17.52929447 -69.47105428 15.05154726 -71 12 C-71 11.01 -71 10.02 -71 9 C-69.25 7.9375 -69.25 7.9375 -67 7 C-65.68 7.33 -64.36 7.66 -63 8 C-61.68 11.3 -60.36 14.6 -59 18 C-29.795 18.495 -29.795 18.495 0 19 C0 12.73 0 6.46 0 0 Z " fill="#919191" transform="translate(299,52)"/>
<path d="M0 0 C20.42307692 0 20.42307692 0 25.9375 4.625 C27.64855413 8.44970923 27.08818342 12.01973179 26 16 C24.125 18.5625 24.125 18.5625 22 20 C21.01 20 20.02 20 19 20 C21.83194857 25.76878411 24.83967544 31.40467128 28 37 C25.36 37 22.72 37 20 37 C19.49210937 35.92878906 18.98421875 34.85757813 18.4609375 33.75390625 C17.76677437 32.35619941 17.07139805 30.95909464 16.375 29.5625 C16.04371094 28.85544922 15.71242188 28.14839844 15.37109375 27.41992188 C15.02949219 26.74638672 14.68789063 26.07285156 14.3359375 25.37890625 C13.88033447 24.44413452 13.88033447 24.44413452 13.41552734 23.49047852 C11.63978952 21.32121633 11.63978952 21.32121633 6 21 C6 26.28 6 31.56 6 37 C4.02 37 2.04 37 0 37 C0 24.79 0 12.58 0 0 Z " fill="#7D181E" transform="translate(318,102)"/>
<path d="M0 0 C8 0 8 0 10.28515625 2.01953125 C10.87167969 2.94121094 11.45820313 3.86289063 12.0625 4.8125 C13.04283203 6.31103516 13.04283203 6.31103516 14.04296875 7.83984375 C14.68878906 8.88269531 15.33460938 9.92554687 16 11 C16.65613281 11.99128906 17.31226563 12.98257813 17.98828125 14.00390625 C20.77358573 18.24241306 23.23797469 22.22713534 25 27 C25.66 27 26.32 27 27 27 C27 18.09 27 9.18 27 0 C28.98 0 30.96 0 33 0 C33 12.21 33 24.42 33 37 C24 37 24 37 22.0637207 35.49047852 C21.68820068 34.79365967 21.31268066 34.09684082 20.92578125 33.37890625 C20.48556641 32.60740234 20.04535156 31.83589844 19.59179688 31.04101562 C18.95854492 29.81415039 18.95854492 29.81415039 18.3125 28.5625 C17.43558581 26.97936369 16.55667539 25.39733148 15.67578125 23.81640625 C15.30364502 23.10943604 14.93150879 22.40246582 14.5480957 21.67407227 C12.22639876 17.66373532 9.57042823 13.85564234 7 10 C6.67 18.91 6.34 27.82 6 37 C4.02 37 2.04 37 0 37 C0 24.79 0 12.58 0 0 Z " fill="#7A272E" transform="translate(417,102)"/>
<path d="M0 0 C3.1875 -0.3125 3.1875 -0.3125 6 0 C6.27674561 0.6391333 6.55349121 1.2782666 6.83862305 1.93676758 C8.12057026 4.89578454 9.40402857 7.85414387 10.6875 10.8125 C11.34008789 12.31973633 11.34008789 12.31973633 12.00585938 13.85742188 C14.61156341 19.86019192 17.28542508 25.81781176 20.09301758 31.72924805 C21 34 21 34 21 37 C18.69 37 16.38 37 14 37 C13.01 34.03 12.02 31.06 11 28 C5.39 28 -0.22 28 -6 28 C-6.99 30.97 -7.98 33.94 -9 37 C-11.31 37 -13.62 37 -16 37 C-14.68019696 32.80290123 -13.08772655 28.90340819 -11.1875 24.9375 C-8.55902531 19.34077219 -6.28889286 13.68424155 -4.17578125 7.875 C-1.91880052 2.35626972 -1.91880052 2.35626972 0 0 Z " fill="#7C2629" transform="translate(213,102)"/>
<path d="M0 0 C1.98 0 3.96 0 6 0 C9.34496838 7.43879216 12.55991762 14.93117754 15.75 22.4375 C16.25660156 23.62021484 16.76320313 24.80292969 17.28515625 26.02148438 C17.76339844 27.14748047 18.24164063 28.27347656 18.734375 29.43359375 C19.38744629 30.96584595 19.38744629 30.96584595 20.05371094 32.52905273 C21 35 21 35 21 37 C18.69 37 16.38 37 14 37 C13.01 34.36 12.02 31.72 11 29 C5.39 28.67 -0.22 28.34 -6 28 C-6.33 29.32 -6.66 30.64 -7 32 C-7.6469365 33.6744239 -8.30959426 35.34302621 -9 37 C-10.98 37 -12.96 37 -15 37 C-13.9833443 29.88341007 -11.30697356 24.27708437 -8.04077148 17.96826172 C-5.64800547 13.34024207 -3.53534335 8.69889048 -1.69140625 3.8203125 C-1 2 -1 2 0 0 Z " fill="#833839" transform="translate(292,102)"/>
<path d="M0 0 C8.25 0 16.5 0 25 0 C25 1.98 25 3.96 25 6 C19.06 6 13.12 6 7 6 C7 8.97 7 11.94 7 15 C12.61 15 18.22 15 24 15 C24 16.98 24 18.96 24 21 C18.39 21 12.78 21 7 21 C7 24.3 7 27.6 7 31 C12.94 31 18.88 31 25 31 C25 32.98 25 34.96 25 37 C16.75 37 8.5 37 0 37 C0 24.79 0 12.58 0 0 Z " fill="#92484C" transform="translate(384,102)"/>
<path d="M0 0 C7.92 0 15.84 0 24 0 C24 1.98 24 3.96 24 6 C18.06 6 12.12 6 6 6 C6 8.97 6 11.94 6 15 C11.61 15 17.22 15 23 15 C23 16.98 23 18.96 23 21 C17.39 21 11.78 21 6 21 C6 24.63 6 28.26 6 32 C12.27 32 18.54 32 25 32 C25 33.65 25 35.3 25 37 C16.75 37 8.5 37 0 37 C0 24.79 0 12.58 0 0 Z " fill="#781A1C" transform="translate(352,102)"/>
<path d="M0 0 C2.31 0 4.62 0 7 0 C7 8.58 7 17.16 7 26 C-13.79 26 -34.58 26 -56 26 C-56.66 24.35 -57.32 22.7 -58 21 C-57 20 -57 20 -54.71580505 19.87974548 C-53.70542679 19.88196609 -52.69504852 19.88418671 -51.65405273 19.88647461 C-49.94239174 19.88658791 -49.94239174 19.88658791 -48.19615173 19.88670349 C-46.9545076 19.89186478 -45.71286346 19.89702606 -44.43359375 19.90234375 C-42.53795433 19.90446617 -42.53795433 19.90446617 -40.60401917 19.90663147 C-37.23875111 19.91129418 -33.8735501 19.9202852 -30.50830078 19.93133545 C-27.0765033 19.94155154 -23.64469891 19.94612951 -20.21289062 19.95117188 C-13.47523936 19.9622262 -6.73762889 19.97950363 0 20 C0 13.4 0 6.8 0 0 Z " fill="#8C8C8C" transform="translate(299,52)"/>
<path d="M0 0 C2.31 0 4.62 0 7 0 C7.06058594 1.04800781 7.12117188 2.09601562 7.18359375 3.17578125 C7.26801738 4.55470048 7.35266447 5.93360605 7.4375 7.3125 C7.47681641 8.00279297 7.51613281 8.69308594 7.55664062 9.40429688 C7.74927415 12.47161535 8.02322717 15.06968152 9 18 C14.61 18.33 20.22 18.66 26 19 C26 19.33 26 19.66 26 20 C21.71 20 17.42 20 13 20 C13 21.65 13 23.3 13 25 C11.02 24.67 9.04 24.34 7 24 C6.97421875 24.59167969 6.9484375 25.18335937 6.921875 25.79296875 C6.54643313 31.02355666 5.98857536 34.24604672 2 38 C-1.01490557 39.00496852 -3.04181692 39.10335303 -6.1875 39.0625 C-7.08855469 39.05347656 -7.98960937 39.04445312 -8.91796875 39.03515625 C-9.60503906 39.02355469 -10.29210937 39.01195312 -11 39 C-11.04254356 37.00045254 -11.04080783 34.99958364 -11 33 C-9.19533017 31.19533017 -6.26897184 31.58507442 -3.8125 31.37890625 C-3.214375 31.25386719 -2.61625 31.12882812 -2 31 C-0.57732138 28.15464275 -0.78028131 25.63781448 -0.68359375 22.4609375 C-0.64169922 21.15898438 -0.59980469 19.85703125 -0.55664062 18.515625 C-0.51682701 17.13541955 -0.47711478 15.75521117 -0.4375 14.375 C-0.39430593 12.98696585 -0.35069135 11.59894472 -0.30664062 10.2109375 C-0.20028 6.80739744 -0.09825286 3.40378222 0 0 Z " fill="#8D8D8D" transform="translate(322,52)"/>
<path d="M0 0 C2.31 0 4.62 0 7 0 C7 10.23 7 20.46 7 31 C11.95 31 16.9 31 22 31 C22 32.98 22 34.96 22 37 C14.74 37 7.48 37 0 37 C0 24.79 0 12.58 0 0 Z " fill="#95555A" transform="translate(239,102)"/>
<path d="M0 0 C3.37462715 0.54723683 5.08235 1.0549 8 3 C8.5434543 8.52511873 8.23919219 11.39038034 5 16 C4.01 18.475 4.01 18.475 3 21 C22.8 21 42.6 21 63 21 C63 21.33 63 21.66 63 22 C55.09846051 22.09264725 47.19714762 22.16373735 39.29519939 22.20724869 C35.62604792 22.22813122 31.9572678 22.25645977 28.28833008 22.30175781 C24.74809428 22.34519373 21.20821583 22.36913209 17.66773415 22.37950897 C15.65847095 22.39050595 13.6493517 22.42173582 11.64030457 22.45318604 C9.80874565 22.45363922 9.80874565 22.45363922 7.94018555 22.45410156 C6.86318893 22.46298401 5.78619232 22.47186646 4.67655945 22.48101807 C2 22 2 22 0.1287384 19.97161865 C-0.42998711 18.99566742 -0.42998711 18.99566742 -1 18 C-2.65 18.66 -4.3 19.32 -6 20 C-7.36646148 18.40629329 -8.71787166 16.79967018 -10.0625 15.1875 C-10.81660156 14.29417969 -11.57070313 13.40085937 -12.34765625 12.48046875 C-12.89292969 11.66191406 -13.43820312 10.84335937 -14 10 C-13.67 9.01 -13.34 8.02 -13 7 C-10.49609375 6.05078125 -10.49609375 6.05078125 -7.4375 5.3125 C-5.91962891 4.93544922 -5.91962891 4.93544922 -4.37109375 4.55078125 C-3.58863281 4.36902344 -2.80617188 4.18726563 -2 4 C-2 3.34 -2 2.68 -2 2 C-1.34 2 -0.68 2 0 2 C0 1.34 0 0.68 0 0 Z M-1 15 C0 17 0 17 0 17 Z " fill="#A1A1A1" transform="translate(362,50)"/>
<path d="M0 0 C2.31 0 4.62 0 7 0 C7 15.51 7 31.02 7 47 C4.69 47 2.38 47 0 47 C0 31.49 0 15.98 0 0 Z " fill="#929292" transform="translate(444,31)"/>
<path d="M0 0 C0.33 0 0.66 0 1 0 C2.77445674 8.54965522 1.02954538 16.03311307 -3.5 23.5 C-7.43205528 29.44849388 -7.43205528 29.44849388 -10.91015625 30.671875 C-15.72922482 31.4285138 -20.26132321 31.64255447 -24.875 29.9375 C-27.86005354 27.21583353 -28.74365956 24.83881803 -30 21 C-29.67 20.34 -29.34 19.68 -29 19 C-28.01 19 -27.02 19 -26 19 C-25.67 14.71 -25.34 10.42 -25 6 C-24.67 6 -24.34 6 -24 6 C-23.81824219 6.80824219 -23.63648438 7.61648437 -23.44921875 8.44921875 C-23.19785156 9.51785156 -22.94648438 10.58648437 -22.6875 11.6875 C-22.44386719 12.74324219 -22.20023438 13.79898438 -21.94921875 14.88671875 C-21.00739175 17.97575628 -19.77627063 20.31817964 -18 23 C-13.97909336 22.81298109 -12.38674517 22.39653619 -9.53125 19.46875 C-6.66217423 15.83787208 -4.93157718 11.88316635 -3.1875 7.625 C-2.87619141 6.88894531 -2.56488281 6.15289062 -2.24414062 5.39453125 C-1.4868115 3.60024378 -0.7420733 1.80065048 0 0 Z " fill="#F8F6F7" transform="translate(161,86)"/>
<path d="M0 0 C0.763125 0.0825 1.52625 0.165 2.3125 0.25 C2.3125 2.23 2.3125 4.21 2.3125 6.25 C0.6625 6.58 -0.9875 6.91 -2.6875 7.25 C-2.625625 8.24 -2.56375 9.23 -2.5 10.25 C-2.47258355 14.71888211 -3.9666773 18.16304608 -5.6875 22.25 C-0.7375 22.25 4.2125 22.25 9.3125 22.25 C9.6425 23.57 9.9725 24.89 10.3125 26.25 C9.3125 27.25 9.3125 27.25 7.54663086 27.36352539 C6.79776611 27.35828857 6.04890137 27.35305176 5.27734375 27.34765625 C4.46845703 27.34443359 3.65957031 27.34121094 2.82617188 27.33789062 C1.97603516 27.32951172 1.12589844 27.32113281 0.25 27.3125 C-0.60400391 27.30798828 -1.45800781 27.30347656 -2.33789062 27.29882812 C-4.45445663 27.28700373 -6.57098685 27.26906769 -8.6875 27.25 C-9.6775 30.22 -10.6675 33.19 -11.6875 36.25 C-13.9975 36.25 -16.3075 36.25 -18.6875 36.25 C-17.36769696 32.05290123 -15.77522655 28.15340819 -13.875 24.1875 C-11.23009166 18.56223153 -8.96666275 12.87488887 -6.86328125 7.02734375 C-4.0476757 0.37652797 -4.0476757 0.37652797 0 0 Z " fill="#7F2D32" transform="translate(215.6875,102.75)"/>
<path d="M0 0 C0.99 0.33 1.98 0.66 3 1 C3.33333333 2.33333333 3.66666667 3.66666667 4 5 C4.99 5.33 5.98 5.66 7 6 C8.20227899 8.31387514 9.22074739 10.52897313 10.1875 12.9375 C10.46013672 13.58396484 10.73277344 14.23042969 11.01367188 14.89648438 C13 19.69055451 13 19.69055451 13 22 C10.69 22 8.38 22 6 22 C5.01 19.36 4.02 16.72 3 14 C-2.61 13.67 -8.22 13.34 -14 13 C-14.33 14.32 -14.66 15.64 -15 17 C-15.6469365 18.6744239 -16.30959426 20.34302621 -17 22 C-18.98 22 -20.96 22 -23 22 C-22.71517632 20.58194169 -22.42181856 19.16559621 -22.125 17.75 C-21.96257812 16.96109375 -21.80015625 16.1721875 -21.6328125 15.359375 C-21.00849925 13.03168856 -20.15161458 11.10968048 -19 9 C-18.01 9 -17.02 9 -16 9 C-16 8.01 -16 7.02 -16 6 C-15.34 6 -14.68 6 -14 6 C-13.67 4.35 -13.34 2.7 -13 1 C-12.34 1.33 -11.68 1.66 -11 2 C-11.33 4.31 -11.66 6.62 -12 9 C-7.71 9 -3.42 9 1 9 C0.67 6.03 0.34 3.06 0 0 Z " fill="#79272A" transform="translate(300,117)"/>
<path d="M0 0 C2.64 0 5.28 0 8 0 C8.66 0.66 9.32 1.32 10 2 C9.70700977 3.67422986 9.37309899 5.34178227 9 7 C9.33 7.66 9.66 8.32 10 9 C9.01 9.33 8.02 9.66 7 10 C6.67 18.91 6.34 27.82 6 37 C4.02 37 2.04 37 0 37 C0 24.79 0 12.58 0 0 Z " fill="#833036" transform="translate(417,102)"/>
<path d="M0 0 C7.92 0 15.84 0 24 0 C24 1.98 24 3.96 24 6 C18.06 6 12.12 6 6 6 C6 8.97 6 11.94 6 15 C5.67 15 5.34 15 5 15 C4.67 12.69 4.34 10.38 4 8 C1.74129892 11.38805161 1.70740587 12.77350741 1.5859375 16.76171875 C1.54726563 17.87998047 1.50859375 18.99824219 1.46875 20.15039062 C1.4378125 21.31763672 1.406875 22.48488281 1.375 23.6875 C1.33632813 24.86634766 1.29765625 26.04519531 1.2578125 27.25976562 C1.16345943 30.17291668 1.08063758 33.08643703 1 36 C8.59 36 16.18 36 24 36 C24.33 34.68 24.66 33.36 25 32 C25 33.65 25 35.3 25 37 C16.75 37 8.5 37 0 37 C0 24.79 0 12.58 0 0 Z " fill="#89484C" transform="translate(352,102)"/>
<path d="M0 0 C0 1.32 0 2.64 0 4 C-6.435 5.98 -6.435 5.98 -13 8 C-11.44455189 11.11089621 -9.80979645 14.03851491 -8 17 C-9.28965176 18.37562854 -10.62689293 19.70766393 -12 21 C-12.66 21 -13.32 21 -14 21 C-15.7265625 18.76953125 -15.7265625 18.76953125 -17.625 15.8125 C-18.57246094 14.36810547 -18.57246094 14.36810547 -19.5390625 12.89453125 C-21.06552291 9.87018055 -21.58897574 8.32070131 -21 5 C-15.77200223 -1.39679486 -7.45266378 -0.51123456 0 0 Z " fill="#939393" transform="translate(362,50)"/>
<path d="M0 0 C0.33 0 0.66 0 1 0 C0.91253716 1.43861294 0.80434652 2.87597508 0.6875 4.3125 C0.62949219 5.11300781 0.57148437 5.91351563 0.51171875 6.73828125 C0 9 0 9 -1.52734375 10.46875 C-3.22590287 11.93499306 -3.22590287 11.93499306 -3.328125 14.35546875 C-3.30234375 15.29003906 -3.2765625 16.22460938 -3.25 17.1875 C-3.22421875 18.23808594 -3.1984375 19.28867188 -3.171875 20.37109375 C-2.86169821 26.92005364 -2.46475217 33.46027299 -2 40 C-1.34 40 -0.68 40 0 40 C0.061875 39.01 0.12375 38.02 0.1875 37 C0.86032681 32.23254146 3.36555296 28.92103746 6 25 C7.36802305 22.68488407 8.68154094 20.34392722 10 18 C10.66 18 11.32 18 12 18 C12 17.34 12 16.68 12 16 C12.66 16.33 13.32 16.66 14 17 C13.12988281 18.52367187 13.12988281 18.52367187 12.2421875 20.078125 C7.58203144 28.27760217 3.10302227 36.50433035 -1 45 C-1.66 45 -2.32 45 -3 45 C-8.50708893 32.54348933 -7.4475622 16.94890144 -3.0703125 4.3359375 C-2 2 -2 2 0 0 Z " fill="#71292C" transform="translate(58,71)"/>
<path d="M0 0 C15 0 15 0 18 2 C14.34641788 3.82679106 10.01991656 3.63923826 6 4 C5.67 7.96 5.34 11.92 5 16 C3.68 15.67 2.36 15.34 1 15 C1 20.94 1 26.88 1 33 C1.99 32.505 1.99 32.505 3 32 C3 28.04 3 24.08 3 20 C3.66 20 4.32 20 5 20 C5 25.28 5 30.56 5 36 C3.35 36 1.7 36 0 36 C0 24.12 0 12.24 0 0 Z " fill="#6B1F25" transform="translate(319,103)"/>
<path d="M0 0 C0.33 0 0.66 0 1 0 C1 3.63 1 7.26 1 11 C7.27 11 13.54 11 20 11 C20 12.65 20 14.3 20 16 C12.08 16 4.16 16 -4 16 C-4 13.03 -4 10.06 -4 7 C-3.01 7 -2.02 7 -1 7 C-0.67 4.69 -0.34 2.38 0 0 Z " fill="#78232B" transform="translate(389,123)"/>
<path d="M0 0 C8.02217295 -0.35920177 8.02217295 -0.35920177 12.0625 1.125 C14 3 14 3 14.3125 6.1875 C14.1578125 7.5796875 14.1578125 7.5796875 14 9 C10.78817851 10.90608098 8.46117397 11.22266247 4.75 11.125 C3.1825 11.08375 1.615 11.0425 0 11 C0 7.37 0 3.74 0 0 Z " fill="#F5E8E7" transform="translate(324,107)"/>
<path d="M0 0 C20.89655172 0 20.89655172 0 25.875 4.8125 C27.33532369 7.65201828 27.21457149 9.85295141 27 13 C26.71125 12.360625 26.4225 11.72125 26.125 11.0625 C25.17176549 8.84793921 25.17176549 8.84793921 23 8 C22.34 9.65 21.68 11.3 21 13 C20.67 13 20.34 13 20 13 C19.34 11.02 18.68 9.04 18 7 C14.37 6.34 10.74 5.68 7 5 C7 4.67 7 4.34 7 4 C10.3 3.67 13.6 3.34 17 3 C13.19941525 -0.80058475 6.36293408 1.35752894 1 1 C1 12.88 1 24.76 1 37 C0.67 37 0.34 37 0 37 C0 24.79 0 12.58 0 0 Z " fill="#935256" transform="translate(318,102)"/>
<path d="M0 0 C0.33 0 0.66 0 1 0 C1 12.21 1 24.42 1 37 C-5 40 -5 40 -7.25 39.8125 C-9 39 -9 39 -11 37 C-8.69 37 -6.38 37 -4 37 C-4.28875 36.37351563 -4.5775 35.74703125 -4.875 35.1015625 C-5.24625 34.28429687 -5.6175 33.46703125 -6 32.625 C-6.37125 31.81289062 -6.7425 31.00078125 -7.125 30.1640625 C-8 28 -8 28 -8 26 C-5.69 26 -3.38 26 -1 26 C-0.67 17.42 -0.34 8.84 0 0 Z " fill="#FBF1F0" transform="translate(317,102)"/>
<path d="M0 0 C0.33 0 0.66 0 1 0 C1 11.88 1 23.76 1 36 C8.26 36 15.52 36 23 36 C23 36.33 23 36.66 23 37 C22.34926514 37.05534912 21.69853027 37.11069824 21.02807617 37.16772461 C18.08087901 37.42053693 15.1341994 37.67895326 12.1875 37.9375 C10.65125977 38.06801758 10.65125977 38.06801758 9.08398438 38.20117188 C7.60961914 38.33168945 7.60961914 38.33168945 6.10546875 38.46484375 C4.74651489 38.58267212 4.74651489 38.58267212 3.36010742 38.70288086 C0.85319251 38.94046098 0.85319251 38.94046098 -2 40 C-2.33 39.34 -2.66 38.68 -3 38 C-5.12576782 37.53348793 -5.12576782 37.53348793 -7.5625 37.375 C-8.38878906 37.30023438 -9.21507812 37.22546875 -10.06640625 37.1484375 C-10.70449219 37.09945312 -11.34257812 37.05046875 -12 37 C-11.67 35.68 -11.34 34.36 -11 33 C-11 33.99 -11 34.98 -11 36 C-8.69 36 -6.38 36 -4 36 C-4.66 34.02 -5.32 32.04 -6 30 C-5.34 30 -4.68 30 -4 30 C-3.67 29.34 -3.34 28.68 -3 28 C-2.01 28 -1.02 28 0 28 C0 18.76 0 9.52 0 0 Z " fill="#FBEAEB" transform="translate(238,103)"/>
<path d="M0 0 C0.87785156 -0.00257812 1.75570313 -0.00515625 2.66015625 -0.0078125 C4.9375 0.125 4.9375 0.125 6.9375 1.125 C6.9375 5.125 6.9375 5.125 4.6875 7.75 C2.39003256 9.73417642 0.63187871 10.86992616 -2.0625 12.125 C-3.26209375 10.86557614 -4.44689443 9.59204714 -5.625 8.3125 C-6.61693359 7.25095703 -6.61693359 7.25095703 -7.62890625 6.16796875 C-8.10199219 5.49378906 -8.57507813 4.81960937 -9.0625 4.125 C-8.7325 3.135 -8.4025 2.145 -8.0625 1.125 C-5.09900719 0.13716906 -3.0912337 -0.00910525 0 0 Z " fill="#F9F9F9" transform="translate(357.0625,55.875)"/>
<path d="M0 0 C0.99 0.33 1.98 0.66 3 1 C3.6875 3.0625 3.6875 3.0625 4 5 C4.66 5 5.32 5 6 5 C6 9 6 9 5 12 C1.54168414 12.02894547 -1.91660072 12.04678 -5.375 12.0625 C-6.85226562 12.07506836 -6.85226562 12.07506836 -8.359375 12.08789062 C-9.77089844 12.09272461 -9.77089844 12.09272461 -11.2109375 12.09765625 C-12.08024902 12.10289307 -12.94956055 12.10812988 -13.84521484 12.11352539 C-16 12 -16 12 -18 11 C-18 10.34 -18 9.68 -18 9 C-17.34 9 -16.68 9 -16 9 C-16 8.01 -16 7.02 -16 6 C-15.34 6 -14.68 6 -14 6 C-13.67 4.35 -13.34 2.7 -13 1 C-12.34 1.33 -11.68 1.66 -11 2 C-11.33 4.31 -11.66 6.62 -12 9 C-7.71 9 -3.42 9 1 9 C0.67 6.03 0.34 3.06 0 0 Z " fill="#7C181D" transform="translate(300,117)"/>
<path d="M0 0 C0.33 0 0.66 0 1 0 C2.7997576 8.67155933 0.98199352 16.17107881 -3.6875 23.6875 C-4.44422577 24.80138247 -5.20963271 25.90973049 -6 27 C-7.32 26.01 -8.64 25.02 -10 24 C-9.67 23.67 -9.34 23.34 -9 23 C-9.66 22.34 -10.32 21.68 -11 21 C-10.41734375 20.34644531 -9.8346875 19.69289063 -9.234375 19.01953125 C-6.57653357 15.42772807 -4.95922156 11.79183246 -3.25 7.6875 C-2.93417969 6.94693359 -2.61835938 6.20636719 -2.29296875 5.44335938 C-1.52162841 3.63187828 -0.75983142 1.81633859 0 0 Z " fill="#F5F5F6" transform="translate(161,86)"/>
<path d="M0 0 C0.99 0.33 1.98 0.66 3 1 C3 10.57 3 20.14 3 30 C2.01 30 1.02 30 0 30 C-1.00000799 26.67276389 -1.12897955 23.64213988 -1.1328125 20.17578125 C-1.13410156 19.06525391 -1.13539063 17.95472656 -1.13671875 16.81054688 C-1.13285156 15.65619141 -1.12898437 14.50183594 -1.125 13.3125 C-1.12886719 12.14654297 -1.13273438 10.98058594 -1.13671875 9.77929688 C-1.13542969 8.67263672 -1.13414062 7.56597656 -1.1328125 6.42578125 C-1.13168457 5.40911377 -1.13055664 4.39244629 -1.12939453 3.3449707 C-1 1 -1 1 0 0 Z " fill="#78181C" transform="translate(241,104)"/>
<path d="M0 0 C0.66 0 1.32 0 2 0 C2 2.64 2 5.28 2 8 C8.27 8 14.54 8 21 8 C21 9.32 21 10.64 21 12 C13.41 12 5.82 12 -2 12 C-2 10.02 -2 8.04 -2 6 C-1.34 6 -0.68 6 0 6 C0 4.02 0 2.04 0 0 Z " fill="#79181F" transform="translate(355,126)"/>
<path d="M0 0 C0.66 0 1.32 0 2 0 C3.80230168 3.82989106 4.19622241 6.78121808 4 11 C4.66 11 5.32 11 6 11 C6.65035371 13.51974253 7.29537493 16.04065935 7.9375 18.5625 C8.11990234 19.26697266 8.30230469 19.97144531 8.49023438 20.69726562 C9.35504882 24.10935169 10.04199219 27.34503587 10.46875 30.8515625 C11.15674817 34.92896342 12.9866377 36.2957005 16 39 C16 39.66 16 40.32 16 41 C13.6875 40.8125 13.6875 40.8125 11 40 C8.21213266 36.20540278 7.14946768 32.41880483 6.0625 27.875 C5.8984668 27.19501953 5.73443359 26.51503906 5.56542969 25.81445312 C3.53046846 17.2498535 1.76229841 8.62401349 0 0 Z " fill="#77282B" transform="translate(131,69)"/>
<path d="M0 0 C0.33 0 0.66 0 1 0 C1.51774553 9.59267411 0.88950403 18.09956561 -3 27 C-3.66 27.33 -4.32 27.66 -5 28 C-5 26.68 -5 25.36 -5 24 C-6.98 23.67 -8.96 23.34 -11 23 C-10.67 22.34 -10.34 21.68 -10 21 C-9.34 21 -8.68 21 -8 21 C-7.731875 20.29875 -7.46375 19.5975 -7.1875 18.875 C-6 16 -6 16 -4.5625 13.3125 C-2.53137324 9.00651128 -1.27552279 4.57740804 0 0 Z " fill="#939292" transform="translate(163,92)"/>
<path d="M0 0 C0.66 0 1.32 0 2 0 C2.67220351 1.93558599 3.33758077 3.87354372 4 5.8125 C4.556875 7.43091797 4.556875 7.43091797 5.125 9.08203125 C6 12 6 12 6 15 C2.37 15 -1.26 15 -5 15 C-3.91463082 9.48966417 -2.78609311 4.93898323 0 0 Z " fill="#F3DBD9" transform="translate(294,110)"/>
<path d="M0 0 C0 0.33 0 0.66 0 1 C-1.41538717 1.33872513 -2.83237963 1.67074624 -4.25 2 C-5.03890625 2.185625 -5.8278125 2.37125 -6.640625 2.5625 C-9 3 -9 3 -13 3 C-12.67 1.68 -12.34 0.36 -12 -1 C-14.75006608 -1.0270203 -17.49986546 -1.04684883 -20.25 -1.0625 C-21.02730469 -1.07087891 -21.80460937 -1.07925781 -22.60546875 -1.08789062 C-23.35957031 -1.09111328 -24.11367187 -1.09433594 -24.890625 -1.09765625 C-25.58188477 -1.10289307 -26.27314453 -1.10812988 -26.98535156 -1.11352539 C-29.10392821 -0.99414365 -30.94669601 -0.51687492 -33 0 C-35.33300933 0.03888349 -37.66709801 0.0448635 -40 0 C-40.33 -0.66 -40.66 -1.32 -41 -2 C-26.49553773 -5.31530566 -14.07598082 -4.09483079 0 0 Z " fill="#74242D" transform="translate(132,45)"/>
<path d="M0 0 C0.33 0.66 0.66 1.32 1 2 C2.65 1.67 4.3 1.34 6 1 C7.33602438 3.14419985 8.66892004 5.29023418 10 7.4375 C10.3815625 8.04916016 10.763125 8.66082031 11.15625 9.29101562 C14 13.88671875 14 13.88671875 14 15 C11.36 15 8.72 15 6 15 C3.69 10.38 1.38 5.76 -1 1 C-0.67 0.67 -0.34 0.34 0 0 Z " fill="#762529" transform="translate(332,124)"/>
<path d="M0 0 C2.7920147 1.39600735 3.00162933 3.00416384 4.125 5.875 C4.65480469 7.20144531 4.65480469 7.20144531 5.1953125 8.5546875 C6 11 6 11 6 14 C2.37 14 -1.26 14 -5 14 C-4.46515599 8.65155992 -2.53309233 4.64203897 0 0 Z " fill="#FAEDEC" transform="translate(215,111)"/>
<path d="M0 0 C0 0.66 0 1.32 0 2 C-0.61875 2.04125 -1.2375 2.0825 -1.875 2.125 C-2.57625 2.41375 -3.2775 2.7025 -4 3 C-4.33 3.99 -4.66 4.98 -5 6 C-5.33 6.99 -5.66 7.98 -6 9 C-8 9.9375 -8 9.9375 -10 10 C-10.66 9.67 -11.32 9.34 -12 9 C-12.66 10.32 -13.32 11.64 -14 13 C-14 12.34 -14 11.68 -14 11 C-14.66 11 -15.32 11 -16 11 C-15.67 11.99 -15.34 12.98 -15 14 C-16.375 15.5 -16.375 15.5 -18 17 C-18.66 17 -19.32 17 -20 17 C-20.433125 18.134375 -20.86625 19.26875 -21.3125 20.4375 C-21.869375 21.613125 -22.42625 22.78875 -23 24 C-23.99 24.33 -24.98 24.66 -26 25 C-25.125 20.25 -25.125 20.25 -24 18 C-23.34 18 -22.68 18 -22 18 C-21.773125 17.443125 -21.54625 16.88625 -21.3125 16.3125 C-17.83049598 10.17754054 -7.66383636 0 0 0 Z " fill="#7A2D32" transform="translate(85,46)"/>
<path d="M0 0 C2 3 2 3 2 6 C2.99 6.33 3.98 6.66 5 7 C0.27805833 10.77755334 -4.25928072 10.30096975 -10 10 C-10.04254356 8.00045254 -10.04080783 5.99958364 -10 4 C-8.19533017 2.19533017 -5.26897184 2.58507442 -2.8125 2.37890625 C-2.214375 2.25386719 -1.61625 2.12882812 -1 2 C-0.67 1.34 -0.34 0.68 0 0 Z " fill="#929292" transform="translate(321,81)"/>
<path d="M0 0 C0.99 0.33 1.98 0.66 3 1 C3 2.32 3 3.64 3 5 C4.916588 5.02712153 6.8332873 5.04645097 8.75 5.0625 C9.81734375 5.07410156 10.8846875 5.08570312 11.984375 5.09765625 C14.53368501 5.01510087 16.57933591 4.74617558 19 4 C19.33 5.32 19.66 6.64 20 8 C15.85340627 9.19799449 12.00630953 8.8896192 7.75 8.5625 C7.00492188 8.51029297 6.25984375 8.45808594 5.4921875 8.40429688 C3.66105139 8.2751783 1.83046187 8.13834886 0 8 C-0.38063221 5.6739143 -0.71269945 3.33944736 -1 1 C-0.67 0.67 -0.34 0.34 0 0 Z " fill="#7D161C" transform="translate(206,121)"/>
<path d="M0 0 C7.59 0 15.18 0 23 0 C23 1.32 23 2.64 23 4 C20.4374282 4.02710123 17.87514635 4.04688771 15.3125 4.0625 C14.2306543 4.07506836 14.2306543 4.07506836 13.12695312 4.08789062 C9.28444618 4.10543632 5.73360474 3.93524221 2 3 C2 2.34 2 1.68 2 1 C1.34 0.67 0.68 0.34 0 0 Z " fill="#7B171D" transform="translate(353,103)"/>
<path d="M0 0 C2.248125 -0.04125 4.49625 -0.0825 6.8125 -0.125 C8.07707031 -0.14820312 9.34164063 -0.17140625 10.64453125 -0.1953125 C14 0 14 0 17 2 C13.34641788 3.82679106 9.01991656 3.63923826 5 4 C4.01 7.3 3.02 10.6 2 14 C1.34 14 0.68 14 0 14 C0 9.38 0 4.76 0 0 Z " fill="#7A181E" transform="translate(320,103)"/>
<path d="M0 0 C0.99 0.33 1.98 0.66 3 1 C3.48798077 7.34375 3.48798077 7.34375 1.1875 10.4375 C-1 12 -1 12 -4 12 C-4.33 12.66 -4.66 13.32 -5 14 C-5.99 13.34 -6.98 12.68 -8 12 C-7.01 11.01 -6.02 10.02 -5 9 C-8.63 9 -12.26 9 -16 9 C-16 8.67 -16 8.34 -16 8 C-15.18015625 7.92523438 -14.3603125 7.85046875 -13.515625 7.7734375 C-7.47997675 7.27380243 -7.47997675 7.27380243 -2.3125 4.53125 C-1.09864117 2.73597902 -1.09864117 2.73597902 0 0 Z " fill="#7C3035" transform="translate(341,110)"/>
<path d="M0 0 C1.2065625 0.0309375 1.2065625 0.0309375 2.4375 0.0625 C2.4375 2.0425 2.4375 4.0225 2.4375 6.0625 C0.7875 6.3925 -0.8625 6.7225 -2.5625 7.0625 C-2.5625 9.3725 -2.5625 11.6825 -2.5625 14.0625 C-4.5425 15.0525 -4.5425 15.0525 -6.5625 16.0625 C-7.95612292 10.4880083 -7.33903111 7.67873466 -4.5703125 2.6640625 C-2.93901039 0.07168318 -2.93901039 0.07168318 0 0 Z " fill="#7D2328" transform="translate(215.5625,102.9375)"/>
<path d="M0 0 C1.96875 0.875 1.96875 0.875 3.015625 3.16015625 C3.24765625 4.07667969 3.4796875 4.99320312 3.71875 5.9375 C3.96109375 6.85660156 4.2034375 7.77570313 4.453125 8.72265625 C4.62328125 9.43292969 4.7934375 10.14320312 4.96875 10.875 C3.97875 10.545 2.98875 10.215 1.96875 9.875 C2.29875 8.885 2.62875 7.895 2.96875 6.875 C2.30875 6.875 1.64875 6.875 0.96875 6.875 C0.63875 8.195 0.30875 9.515 -0.03125 10.875 C-0.69125 10.875 -1.35125 10.875 -2.03125 10.875 C-2.36125 11.535 -2.69125 12.195 -3.03125 12.875 C-3.53740298 11.60660474 -4.03594099 10.33516898 -4.53125 9.0625 C-4.8096875 8.35480469 -5.088125 7.64710937 -5.375 6.91796875 C-6.03125 4.875 -6.03125 4.875 -6.03125 1.875 C-3.88148424 0.56978508 -2.54257846 -0.15646637 0 0 Z " fill="#9A9A9A" transform="translate(234.03125,59.125)"/>
<path d="M0 0 C5.61 0 11.22 0 17 0 C17 1.98 17 3.96 17 6 C11.39 6 5.78 6 0 6 C1.32 5.34 2.64 4.68 4 4 C4 3.34 4 2.68 4 2 C2.68 1.34 1.36 0.68 0 0 Z " fill="#894145" transform="translate(358,117)"/>
<path d="M0 0 C0.99 0.495 0.99 0.495 2 1 C2.21746617 5.48338319 2.41423715 9.96705805 2.59204102 14.45214844 C2.65539303 15.9771336 2.72435294 17.5018967 2.79907227 19.02636719 C2.90562523 21.22035709 2.99185001 23.41436036 3.07421875 25.609375 C3.11157639 26.2886908 3.14893402 26.96800659 3.18742371 27.66790771 C3.33290355 32.26899256 2.95184638 33.06420483 0 37 C0 24.79 0 12.58 0 0 Z " fill="#FEEDEB" transform="translate(450,102)"/>
<path d="M0 0 C3.37462715 0.54723683 5.08235 1.0549 8 3 C8.40843923 5.71203652 8.13336867 8.2437142 8 11 C7.67 9.68 7.34 8.36 7 7 C6.01 7.495 6.01 7.495 5 8 C5 8.66 5 9.32 5 10 C4.01 10.33 3.02 10.66 2 11 C2 9.68 2 8.36 2 7 C-0.97 6.67 -3.94 6.34 -7 6 C-7 5.67 -7 5.34 -7 5 C-5.35 4.67 -3.7 4.34 -2 4 C-2 3.34 -2 2.68 -2 2 C-1.34 2 -0.68 2 0 2 C0 1.34 0 0.68 0 0 Z " fill="#959595" transform="translate(362,50)"/>
<path d="M0 0 C1.98 0 3.96 0 6 0 C6.69699552 1.45381897 7.38233866 2.91322953 8.0625 4.375 C8.44535156 5.18710938 8.82820312 5.99921875 9.22265625 6.8359375 C9.47917969 7.55007812 9.73570312 8.26421875 10 9 C8.68221547 11.63556905 6.85780102 13.72269553 5 16 C4.34 14.02 3.68 12.04 3 10 C2.01 10.66 1.02 11.32 0 12 C0 11.01 0 10.02 0 9 C-0.66 8.67 -1.32 8.34 -2 8 C1.465 7.505 1.465 7.505 5 7 C5 5.02 5 3.04 5 1 C3.35 1 1.7 1 0 1 C0 0.67 0 0.34 0 0 Z " fill="#873D41" transform="translate(213,102)"/>
<path d="M0 0 C0.33 0 0.66 0 1 0 C1 1.65 1 3.3 1 5 C-5.93 5 -12.86 5 -20 5 C-18.68 4.34 -17.36 3.68 -16 3 C-15.01 2.34 -14.02 1.68 -13 1 C-10.3359375 0.76953125 -10.3359375 0.76953125 -7.375 0.8125 C-6.39273438 0.81894531 -5.41046875 0.82539063 -4.3984375 0.83203125 C-2 1 -2 1 -1 2 C-0.67 1.34 -0.34 0.68 0 0 Z " fill="#7E2934" transform="translate(260,134)"/>
<path d="M0 0 C0.33 0 0.66 0 1 0 C0.91253716 1.43861294 0.80434652 2.87597508 0.6875 4.3125 C0.62949219 5.11300781 0.57148437 5.91351563 0.51171875 6.73828125 C0 9 0 9 -1.48632812 10.30859375 C-3.54932061 12.61382148 -3.51068538 14.26415798 -3.73046875 17.32421875 C-3.81103516 18.35224609 -3.89160156 19.38027344 -3.97460938 20.43945312 C-4.04486328 21.51130859 -4.11511719 22.58316406 -4.1875 23.6875 C-4.26935547 24.77095703 -4.35121094 25.85441406 -4.43554688 26.97070312 C-4.63593586 29.64648542 -4.82357264 32.32254851 -5 35 C-5.33 35 -5.66 35 -6 35 C-6.80782858 12.49299814 -6.80782858 12.49299814 -2 2 C-1.34 1.34 -0.68 0.68 0 0 Z " fill="#8F4A4F" transform="translate(58,71)"/>
<path d="M0 0 C1.60911678 3.21823356 0.83787981 5.5886322 0 9 C-2.4375 10.625 -2.4375 10.625 -5 12 C-6.34689915 14.57099402 -6.34689915 14.57099402 -7 17 C-7.66 17 -8.32 17 -9 17 C-9.33 18.65 -9.66 20.3 -10 22 C-10.99 22 -11.98 22 -13 22 C-11.32887344 17.14895833 -8.67263602 13.05193955 -5.9375 8.75 C-5.47794922 8.0178125 -5.01839844 7.285625 -4.54492188 6.53125 C-1.15472274 1.15472274 -1.15472274 1.15472274 0 0 Z " fill="#F1DBDA" transform="translate(78,78)"/>
<path d="M0 0 C0.66 0 1.32 0 2 0 C2 0.66 2 1.32 2 2 C8.93 2.33 15.86 2.66 23 3 C23 3.33 23 3.66 23 4 C17.06 4 11.12 4 5 4 C5 6.97 5 9.94 5 13 C4.67 13 4.34 13 4 13 C3.67 10.69 3.34 8.38 3 6 C2.01 6.99 1.02 7.98 0 9 C0 6.03 0 3.06 0 0 Z " fill="#924246" transform="translate(353,104)"/>
<path d="M0 0 C0.33 0 0.66 0 1 0 C1.33 6.27 1.66 12.54 2 19 C9.34258876 19.68599434 9.34258876 19.68599434 12.5 17.5 C12.995 17.005 13.49 16.51 14 16 C14 17.32 14 18.64 14 20 C14.66 20 15.32 20 16 20 C16 22.31 16 24.62 16 27 C15.67 27 15.34 27 15 27 C15 25.02 15 23.04 15 21 C10.05 21 5.1 21 0 21 C0 14.07 0 7.14 0 0 Z " fill="#FEF2F1" transform="translate(246,112)"/>
<path d="M0 0 C-2.00604503 1.50789962 -4.01499146 3.01104937 -6.03515625 4.5 C-6.70417969 4.995 -7.37320313 5.49 -8.0625 6 C-8.73410156 6.495 -9.40570313 6.99 -10.09765625 7.5 C-11.87267515 8.89960423 -13.44019077 10.36730249 -15 12 C-15 7.74833085 -14.86411278 7.29543562 -12.25 4.3125 C-11.73953125 3.71050781 -11.2290625 3.10851563 -10.703125 2.48828125 C-7.50146903 -0.3094961 -4.09782829 -0.11382856 0 0 Z " fill="#F4E0E3" transform="translate(80,48)"/>
<path d="M0 0 C1.66666667 1.66666667 3.33333333 3.33333333 5 5 C4.34 6.98 3.68 8.96 3 11 C6.63 11 10.26 11 14 11 C14 11.33 14 11.66 14 12 C10.04 12 6.08 12 2 12 C1.67 10.68 1.34 9.36 1 8 C0.34 8 -0.32 8 -1 8 C-1.33 9.65 -1.66 11.3 -2 13 C-2.66 12.67 -3.32 12.34 -4 12 C-3.52309796 10.37433394 -3.04340334 8.74948689 -2.5625 7.125 C-2.29566406 6.22007813 -2.02882812 5.31515625 -1.75390625 4.3828125 C-1 2 -1 2 0 0 Z " fill="#894244" transform="translate(207,114)"/>
<path d="M0 0 C3.42931954 3.7559214 4.56429083 8.23466745 6 13 C5.34 13 4.68 13 4 13 C3.67 11.68 3.34 10.36 3 9 C2.34 9 1.68 9 1 9 C0.34 10.32 -0.32 11.64 -1 13 C-1.66 10.03 -2.32 7.06 -3 4 C-2.34 3.67 -1.68 3.34 -1 3 C-0.67 2.01 -0.34 1.02 0 0 Z " fill="#833237" transform="translate(300,109)"/>
<path d="M0 0 C5.94 0 11.88 0 18 0 C18 1.32 18 2.64 18 4 C10.41 4 2.82 4 -5 4 C-4.67 3.34 -4.34 2.68 -4 2 C2.27 2.33 8.54 2.66 15 3 C15 2.34 15 1.68 15 1 C10.05 1 5.1 1 0 1 C0 0.67 0 0.34 0 0 Z " fill="#741E26" transform="translate(358,134)"/>
<path d="M0 0 C0.45375 0.495 0.9075 0.99 1.375 1.5 C2.87635519 3.22609337 2.87635519 3.22609337 5 3 C4.67 4.32 4.34 5.64 4 7 C4.66 7 5.32 7 6 7 C5.34 8.98 4.68 10.96 4 13 C1.11007004 9.73717585 -0.65209488 7.40679813 -1 3 C-0.67 2.01 -0.34 1.02 0 0 Z " fill="#7D2328" transform="translate(437,124)"/>
<path d="M0 0 C2.67611698 0.36911958 3.8431469 0.84855563 5.8125 2.75 C7.31690887 5.6004589 6.92250763 6.98088413 6 10 C5.01 10 4.02 10 3 10 C3 9.01 3 8.02 3 7 C2.01 7.33 1.02 7.66 0 8 C0 5.36 0 2.72 0 0 Z " fill="#7D1A21" transform="translate(293,103)"/>
<path d="M0 0 C1.98 0 3.96 0 6 0 C6.66 1.65 7.32 3.3 8 5 C5 4 5 4 2 1 C2 5.95 2 10.9 2 16 C1.34 16 0.68 16 0 16 C0 10.72 0 5.44 0 0 Z " fill="#E3C4C4" transform="translate(324,123)"/>
<path d="M0 0 C0.99 0.33 1.98 0.66 3 1 C2.06558465 2.27310312 1.12732889 3.543388 0.1875 4.8125 C-0.33457031 5.52019531 -0.85664062 6.22789063 -1.39453125 6.95703125 C-2.83128877 8.78531393 -4.31815763 10.39896688 -6 12 C-6.9765625 5.9453125 -6.9765625 5.9453125 -7 4 C-6.34 3.34 -5.68 2.68 -5 2 C-5 2.66 -5 3.32 -5 4 C-4.01 4 -3.02 4 -2 4 C-1.34 2.68 -0.68 1.36 0 0 Z " fill="#7B1D24" transform="translate(80,71)"/>
<path d="M0 0 C2.64 0 5.28 0 8 0 C8.59732819 2.76264289 9 5.16032769 9 8 C7.35 7.67 5.7 7.34 4 7 C4.66 6.67 5.32 6.34 6 6 C4.68 4.68 3.36 3.36 2 2 C2 3.65 2 5.3 2 7 C1.34 7 0.68 7 0 7 C0 4.69 0 2.38 0 0 Z " fill="#741D24" transform="translate(418,103)"/>
<path d="M0 0 C4 4 4 4 5 7 C4.01 7.495 4.01 7.495 3 8 C2.34 7.67 1.68 7.34 1 7 C1 13.93 1 20.86 1 28 C0.67 28 0.34 28 0 28 C0 18.76 0 9.52 0 0 Z " fill="#FAE2E1" transform="translate(423,111)"/>
<path d="M0 0 C0.80566406 0.04833984 1.61132812 0.09667969 2.44140625 0.14648438 C3.28316406 0.20255859 4.12492187 0.25863281 4.9921875 0.31640625 C6.26642578 0.3947168 6.26642578 0.3947168 7.56640625 0.47460938 C9.66697874 0.60442003 11.76712941 0.74102365 13.8671875 0.87890625 C13.8671875 1.20890625 13.8671875 1.53890625 13.8671875 1.87890625 C9.5771875 1.87890625 5.2871875 1.87890625 0.8671875 1.87890625 C0.8671875 3.52890625 0.8671875 5.17890625 0.8671875 6.87890625 C-0.4528125 6.87890625 -1.7728125 6.87890625 -3.1328125 6.87890625 C-3.4628125 5.55890625 -3.7928125 4.23890625 -4.1328125 2.87890625 C-4.7928125 2.87890625 -5.4528125 2.87890625 -6.1328125 2.87890625 C-6.1328125 2.21890625 -6.1328125 1.55890625 -6.1328125 0.87890625 C-3.77622853 -0.29938574 -2.60708014 -0.16523747 0 0 Z " fill="#979797" transform="translate(334.1328125,70.12109375)"/>
<path d="M0 0 C1.65 0 3.3 0 5 0 C5.66 1.32 6.32 2.64 7 4 C6.01 5.485 6.01 5.485 5 7 C4.67 5.35 4.34 3.7 4 2 C3.01 1.67 2.02 1.34 1 1 C1.33 1.99 1.66 2.98 2 4 C1.525625 4.680625 1.05125 5.36125 0.5625 6.0625 C-1.70095432 10.31779411 -1.24777479 14.27392524 -1 19 C-3.36281649 16.63718351 -3.29567658 16.09388178 -3.3125 12.875 C-3.22634465 8.04246792 -1.92272098 4.40623557 0 0 Z " fill="#A4A4A4" transform="translate(204,64)"/>
<path d="M0 0 C13.6332574 -0.3690205 13.6332574 -0.3690205 20 2 C20 2.33 20 2.66 20 3 C18.58461283 3.33872513 17.16762037 3.67074624 15.75 4 C14.96109375 4.185625 14.1721875 4.37125 13.359375 4.5625 C11 5 11 5 7 5 C7.33 3.68 7.66 2.36 8 1 C5.36 1 2.72 1 0 1 C0 0.67 0 0.34 0 0 Z " fill="#7F2228" transform="translate(112,43)"/>
<path d="M0 0 C5.61 0 11.22 0 17 0 C17 0.99 17 1.98 17 3 C11.39 3 5.78 3 0 3 C0 2.01 0 1.02 0 0 Z " fill="#E6CCCA" transform="translate(286,130)"/>
<path d="M0 0 C1.98 0.495 1.98 0.495 4 1 C4 4.96 4 8.92 4 13 C3.67 13 3.34 13 3 13 C3 10.36 3 7.72 3 5 C2.34 5 1.68 5 1 5 C1 6.98 1 8.96 1 11 C0.34 11 -0.32 11 -1 11 C-1.02688151 9.35425434 -1.04634123 7.70838587 -1.0625 6.0625 C-1.07410156 5.14597656 -1.08570313 4.22945313 -1.09765625 3.28515625 C-1 1 -1 1 0 0 Z " fill="#812A31" transform="translate(354,121)"/>
<path d="M0 0 C1.67542976 0.28604898 3.34385343 0.61781233 5 1 C5.625 2.875 5.625 2.875 6 5 C5.34 5.66 4.68 6.32 4 7 C1.375 6.625 1.375 6.625 -1 6 C-1.042721 4.33388095 -1.04063832 2.66617115 -1 1 C-0.67 0.67 -0.34 0.34 0 0 Z " fill="#989898" transform="translate(219,45)"/>
<path d="M0 0 C0.66 0 1.32 0 2 0 C2.25394531 0.62648438 2.50789062 1.25296875 2.76953125 1.8984375 C3.11371094 2.71570313 3.45789063 3.53296875 3.8125 4.375 C4.14894531 5.18710938 4.48539063 5.99921875 4.83203125 6.8359375 C5.94439082 9.30147458 5.94439082 9.30147458 9 11 C9 11.66 9 12.32 9 13 C6.6875 12.8125 6.6875 12.8125 4 12 C0.95166681 8.29845255 0.46007655 4.6927808 0 0 Z " fill="#7F3A3D" transform="translate(138,97)"/>
<path d="M0 0 C3.6875 1.5 3.6875 1.5 6 3 C5.01 3.495 5.01 3.495 4 4 C3.01 3.67 2.02 3.34 1 3 C-4.15701618 2.82809946 -8.91682196 3.15280366 -14 4 C-14 3.34 -14 2.68 -14 2 C-9.54359745 -0.97093503 -5.2291213 -0.51397346 0 0 Z " fill="#833B41" transform="translate(116,52)"/>
<path d="M0 0 C0.99 0.33 1.98 0.66 3 1 C3 3.31 3 5.62 3 8 C1.02 8.33 -0.96 8.66 -3 9 C-2.5020163 5.26512223 -2.12508244 3.18762365 0 0 Z " fill="#791D22" transform="translate(341,110)"/>
<path d="M0 0 C1.9375 1.5 1.9375 1.5 2.6875 5.125 C2.77 6.23875 2.8525 7.3525 2.9375 8.5 C2.2775 8.5 1.6175 8.5 0.9375 8.5 C0.6075 10.15 0.2775 11.8 -0.0625 13.5 C-1.0625 11.5 -1.0625 11.5 -0.9375 8.6875 C-1.07895919 5.08029058 -2.00873052 3.40950677 -4.0625 0.5 C-2.0625 -0.5 -2.0625 -0.5 0 0 Z " fill="#F6EAE6" transform="translate(345.0625,103.5)"/>
<path d="M0 0 C1.85811 2.787165 3.22897347 5.46303 4.625 8.5 C5.07101563 9.4590625 5.51703125 10.418125 5.9765625 11.40625 C7 14 7 14 7 17 C4.69 17 2.38 17 0 17 C1.32 16.67 2.64 16.34 4 16 C3.34 14.02 2.68 12.04 2 10 C1.67 10 1.34 10 1 10 C0.67 6.7 0.34 3.4 0 0 Z " fill="#854949" transform="translate(227,122)"/>
<path d="M0 0 C1.2065625 0.0309375 1.2065625 0.0309375 2.4375 0.0625 C2.81968767 1.71864657 3.15145102 3.38707024 3.4375 5.0625 C2.4375 6.0625 2.4375 6.0625 -0.125 6.125 C-1.3315625 6.0940625 -1.3315625 6.0940625 -2.5625 6.0625 C-2.94468767 4.40635343 -3.27645102 2.73792976 -3.5625 1.0625 C-2.5625 0.0625 -2.5625 0.0625 0 0 Z " fill="#949494" transform="translate(304.5625,83.9375)"/>
<path d="M0 0 C2.05078125 0.03255208 4.1015625 0.06510417 6.15234375 0.09765625 C4.83234375 1.41765625 3.51234375 2.73765625 2.15234375 4.09765625 C2.48234375 4.75765625 2.81234375 5.41765625 3.15234375 6.09765625 C1.17234375 6.42765625 -0.80765625 6.75765625 -2.84765625 7.09765625 C-2.89019981 5.09810879 -2.88846408 3.09723989 -2.84765625 1.09765625 C-1.84765625 0.09765625 -1.84765625 0.09765625 0 0 Z " fill="#A0A0A0" transform="translate(313.84765625,83.90234375)"/>
<path d="M0 0 C0.33 0.66 0.66 1.32 1 2 C1.99 2.33 2.98 2.66 4 3 C4.33 3.99 4.66 4.98 5 6 C4.67 6.66 4.34 7.32 4 8 C1.69 8 -0.62 8 -3 8 C-1.125 2.25 -1.125 2.25 0 0 Z " fill="#7F3133" transform="translate(200,131)"/>
<path d="M0 0 C0.99 0.33 1.98 0.66 3 1 C3.33 1.99 3.66 2.98 4 4 C2.02 4 0.04 4 -2 4 C-2.33 4.99 -2.66 5.98 -3 7 C-4.32 6.67 -5.64 6.34 -7 6 C-6.67 4.68 -6.34 3.36 -6 2 C-4.02 2 -2.04 2 0 2 C0 1.34 0 0.68 0 0 Z " fill="#F7F1EF" transform="translate(215,98)"/>
<path d="M0 0 C0.94616328 3.42984189 1 6.44175575 1 10 C-1.31 10.66 -3.62 11.32 -6 12 C-4.43358249 7.69235185 -2.31663844 3.93828536 0 0 Z " fill="#A3A3A3" transform="translate(93,93)"/>
<path d="M0 0 C0.66 0.99 1.32 1.98 2 3 C1.34 3 0.68 3 0 3 C0 5.31 0 7.62 0 10 C0.99 9.67 1.98 9.34 3 9 C2.67 10.32 2.34 11.64 2 13 C0.02 13 -1.96 13 -4 13 C-3.71517632 11.58194169 -3.42181856 10.16559621 -3.125 8.75 C-2.96257812 7.96109375 -2.80015625 7.1721875 -2.6328125 6.359375 C-2.00849925 4.03168856 -1.15161458 2.10968048 0 0 Z " fill="#874749" transform="translate(281,126)"/>
<path d="M0 0 C0.66 0 1.32 0 2 0 C2 5.28 2 10.56 2 16 C0.35 16 -1.3 16 -3 16 C-3 14.02 -3 12.04 -3 10 C-2.67 10.99 -2.34 11.98 -2 13 C-1.34 12.67 -0.68 12.34 0 12 C0 8.04 0 4.08 0 0 Z " fill="#71262D" transform="translate(322,123)"/>
<path d="M0 0 C2.31 0.66 4.62 1.32 7 2 C7 3.65 7 5.3 7 7 C5.35 7.33 3.7 7.66 2 8 C0.875 4.25 0.875 4.25 2 2 C1.34 2 0.68 2 0 2 C0 1.34 0 0.68 0 0 Z " fill="#82151C" transform="translate(441,129)"/>
<path d="M0 0 C7.59 0 15.18 0 23 0 C23 1.32 23 2.64 23 4 C21.35 4 19.7 4 18 4 C18.66 3.67 19.32 3.34 20 3 C20 2.34 20 1.68 20 1 C13.4 1 6.8 1 0 1 C0 0.67 0 0.34 0 0 Z " fill="#722027" transform="translate(353,103)"/>
<path d="M0 0 C1.98 0 3.96 0 6 0 C6.33 1.32 6.66 2.64 7 4 C4.5625 3.625 4.5625 3.625 2 3 C1.67 2.34 1.34 1.68 1 1 C0.9175 2.11375 0.835 3.2275 0.75 4.375 C0 8 0 8 -2.0625 9.4375 C-3.0215625 9.7159375 -3.0215625 9.7159375 -4 10 C-2.66666667 6.66666667 -1.33333333 3.33333333 0 0 Z " fill="#87424A" transform="translate(292,102)"/>
<path d="M0 0 C1.65 0 3.3 0 5 0 C5.042721 1.66611905 5.04063832 3.33382885 5 5 C4 6 4 6 1.4375 6.0625 C0.2309375 6.0315625 0.2309375 6.0315625 -1 6 C-0.67 4.02 -0.34 2.04 0 0 Z " fill="#929292" transform="translate(292,84)"/>
<path d="M0 0 C4 4.875 4 4.875 4 6 C1.36 6 -1.28 6 -4 6 C-4.33 4.68 -4.66 3.36 -5 2 C-3.35 2 -1.7 2 0 2 C0 1.34 0 0.68 0 0 Z " fill="#7F3C3F" transform="translate(342,133)"/>
<path d="M0 0 C0.33 0 0.66 0 1 0 C1.33 5.28 1.66 10.56 2 16 C1.01 15.67 0.02 15.34 -1 15 C-1.02685412 12.68756208 -1.04632841 10.3750373 -1.0625 8.0625 C-1.07410156 6.77472656 -1.08570313 5.48695312 -1.09765625 4.16015625 C-1 1 -1 1 0 0 Z " fill="#782024" transform="translate(54,95)"/>
<path d="M0 0 C-0.59950296 3.68266103 -1.24758891 7.34543185 -2 11 C-2.99 11 -3.98 11 -5 11 C-4.8864371 9.35333797 -4.75882619 7.70763918 -4.625 6.0625 C-4.55539062 5.14597656 -4.48578125 4.22945313 -4.4140625 3.28515625 C-4.27742188 2.53105469 -4.14078125 1.77695313 -4 1 C-2 0 -2 0 0 0 Z " fill="#81181E" transform="translate(390,119)"/>
<path d="M0 0 C0.33 0.66 0.66 1.32 1 2 C3.64 2 6.28 2 9 2 C9 2.66 9 3.32 9 4 C8.360625 4.12375 7.72125 4.2475 7.0625 4.375 C6.0415625 4.684375 6.0415625 4.684375 5 5 C4.67 5.66 4.34 6.32 4 7 C3.01 7 2.02 7 1 7 C1 6.01 1 5.02 1 4 C0.34 3.34 -0.32 2.68 -1 2 C-0.67 1.34 -0.34 0.68 0 0 Z " fill="#F8ECEC" transform="translate(337,137)"/>
<path d="M0 0 C0.33 0 0.66 0 1 0 C0.5317879 4.77576339 -0.24331998 8.04476345 -3 12 C-4.32 11.67 -5.64 11.34 -7 11 C-6.401875 10.29875 -5.80375 9.5975 -5.1875 8.875 C-3.02259039 6.02969023 -1.50403364 3.23367233 0 0 Z " fill="#F0D8D9" transform="translate(157,96)"/>
<path d="M0 0 C4.31320068 1.75722991 7.9031084 4.8062168 10 9 C8.68 9.33 7.36 9.66 6 10 C5.5875 9.236875 5.175 8.47375 4.75 7.6875 C3.04124191 5.0633358 1.58982247 3.69678024 -1 2 C-0.67 1.34 -0.34 0.68 0 0 Z " fill="#7E333A" transform="translate(140,51)"/>
<path d="M0 0 C0.33 0 0.66 0 1 0 C1 4.62 1 9.24 1 14 C-2 11 -2 11 -2.109375 8.80859375 C-1.99078125 8.02613281 -1.8721875 7.24367188 -1.75 6.4375 C-1.64171875 5.65246094 -1.5334375 4.86742188 -1.421875 4.05859375 C-1 2 -1 2 0 0 Z " fill="#A9A9A9" transform="translate(163,92)"/>
<path d="M0 0 C0.33 0 0.66 0 1 0 C1.99 4.62 2.98 9.24 4 14 C2.68 13.67 1.36 13.34 0 13 C-1.29676812 8.38926889 -0.71109139 4.66159911 0 0 Z " fill="#EACECD" transform="translate(136,92)"/>
<path d="M0 0 C0.66 0.99 1.32 1.98 2 3 C0.88820837 6.33537489 -0.47411298 7.63707344 -3 10 C-3.33 9.01 -3.66 8.02 -4 7 C-6.00016466 5.79117904 -6.00016466 5.79117904 -8 5 C-5.69 5 -3.38 5 -1 5 C-0.67 3.35 -0.34 1.7 0 0 Z " fill="#F3E4E3" transform="translate(205,134)"/>
<path d="M0 0 C0.99 0 1.98 0 3 0 C3 1.98 3 3.96 3 6 C2.34 6 1.68 6 1 6 C0.34 6.66 -0.32 7.32 -1 8 C-1.66 8 -2.32 8 -3 8 C-2.690625 7.236875 -2.38125 6.47375 -2.0625 5.6875 C-1.32106407 3.81210323 -0.63771783 1.91315348 0 0 Z " fill="#979999" transform="translate(160,102)"/>
<path d="M0 0 C0.33 0 0.66 0 1 0 C2.125 7.75 2.125 7.75 1 10 C-0.32 9.67 -1.64 9.34 -3 9 C-2.01 6.03 -1.02 3.06 0 0 Z " fill="#ECD9D9" transform="translate(161,86)"/>
<path d="M0 0 C0.87785156 -0.00257812 1.75570313 -0.00515625 2.66015625 -0.0078125 C4.9375 0.125 4.9375 0.125 6.9375 1.125 C6.6075 2.445 6.2775 3.765 5.9375 5.125 C5.9375 4.135 5.9375 3.145 5.9375 2.125 C4.35503293 2.04346067 2.77133727 1.98556443 1.1875 1.9375 C0.30578125 1.90269531 -0.5759375 1.86789063 -1.484375 1.83203125 C-4.50921583 2.17576316 -5.81833602 3.12727459 -8.0625 5.125 C-8.0625 3.805 -8.0625 2.485 -8.0625 1.125 C-5.09900719 0.13716906 -3.0912337 -0.00910525 0 0 Z " fill="#CFCFCF" transform="translate(357.0625,55.875)"/>
<path d="M0 0 C0.33 0.66 0.66 1.32 1 2 C0.67 2.99 0.34 3.98 0 5 C3.465 4.505 3.465 4.505 7 4 C7 4.66 7 5.32 7 6 C3.33333333 6 -0.33333333 6 -4 6 C-4.33 5.01 -4.66 4.02 -5 3 C-3.35 2.01 -1.7 1.02 0 0 Z " fill="#F3DEDF" transform="translate(277,134)"/>
<path d="M0 0 C4.95 0 9.9 0 15 0 C15 0.33 15 0.66 15 1 C9.06 1.495 9.06 1.495 3 2 C2.34 3.98 1.68 5.96 1 8 C0.67 8 0.34 8 0 8 C0 5.36 0 2.72 0 0 Z " fill="#FEF4F1" transform="translate(359,108)"/>
<path d="M0 0 C1.98 0 3.96 0 6 0 C5.814375 0.61875 5.62875 1.2375 5.4375 1.875 C4.76313824 4.04160178 4.76313824 4.04160178 6 6 C4.02 6 2.04 6 0 6 C0.33 5.01 0.66 4.02 1 3 C0.67 2.01 0.34 1.02 0 0 Z " fill="#F8F3F3" transform="translate(444,96)"/>
<path d="M0 0 C2.35302007 2.35302007 2.39392208 3.27435295 2.75 6.5 C2.84796875 7.2940625 2.9459375 8.088125 3.046875 8.90625 C3 11 3 11 1 13 C-0.10228696 8.59085217 -0.07654536 4.51617599 0 0 Z " fill="#8A4B4E" transform="translate(159,75)"/>
<path d="M0 0 C0.99 0.33 1.98 0.66 3 1 C3.25 3.3125 3.25 3.3125 3 6 C1 7.8125 1 7.8125 -1 9 C-0.67 6.03 -0.34 3.06 0 0 Z " fill="#77191C" transform="translate(281,129)"/>
<path d="M0 0 C0 1.66666667 0 3.33333333 0 5 C-0.99 5 -1.98 5 -3 5 C-3 6.65 -3 8.3 -3 10 C-4.5 8.6875 -4.5 8.6875 -6 7 C-6 6.01 -6 5.02 -6 4 C-3.5625 2.375 -3.5625 2.375 -1 1 C-0.67 0.67 -0.34 0.34 0 0 Z " fill="#EFD9D7" transform="translate(343,118)"/>
<path d="M0 0 C1.0326802 2.78823655 1.04509293 3.8677274 0.0625 6.75 C-0.288125 7.4925 -0.63875 8.235 -1 9 C-1.66 9 -2.32 9 -3 9 C-3 9.99 -3 10.98 -3 12 C-3.66 12 -4.32 12 -5 12 C-4.54738642 10.56068883 -4.08767021 9.12361001 -3.625 7.6875 C-3.24214844 6.48673828 -3.24214844 6.48673828 -2.8515625 5.26171875 C-2 3 -2 3 0 0 Z " fill="#863940" transform="translate(287,114)"/>
<path d="M0 0 C3.63 0 7.26 0 11 0 C11 0.33 11 0.66 11 1 C8.03 1 5.06 1 2 1 C2 1.66 2 2.32 2 3 C3.98 3 5.96 3 8 3 C8 3.33 8 3.66 8 4 C5.36 4 2.72 4 0 4 C-0.33 3.34 -0.66 2.68 -1 2 C-0.67 1.34 -0.34 0.68 0 0 Z " fill="#751F27" transform="translate(360,118)"/>
<path d="M0 0 C0 3.94405202 -1.49401172 5.0517785 -4 8 C-4.99 9.485 -4.99 9.485 -6 11 C-6.99 10.34 -7.98 9.68 -9 9 C-6.03 6.03 -3.06 3.06 0 0 Z " fill="#F1D7D7" transform="translate(89,66)"/>
<path d="M0 0 C2.4375 0.375 2.4375 0.375 5 1 C5.33 1.66 5.66 2.32 6 3 C3.125 3.625 3.125 3.625 0 4 C-0.66 3.34 -1.32 2.68 -2 2 C-1.34 2 -0.68 2 0 2 C0 1.34 0 0.68 0 0 Z M0 5 C-1 6 -1 6 -4.0625 6.0625 C-5.5165625 6.0315625 -5.5165625 6.0315625 -7 6 C-7 5.67 -7 5.34 -7 5 C-2.25 3.875 -2.25 3.875 0 5 Z " fill="#A3A3A3" transform="translate(362,50)"/>
<path d="M0 0 C2.64 0 5.28 0 8 0 C8.33 0.99 8.66 1.98 9 3 C8.34 3.66 7.68 4.32 7 5 C7 4.34 7 3.68 7 3 C6.01 3.33 5.02 3.66 4 4 C2.68 2.68 1.36 1.36 0 0 Z " fill="#FBE7EA" transform="translate(442,139)"/>
<path d="M0 0 C0.33 0.66 0.66 1.32 1 2 C2.65 1.67 4.3 1.34 6 1 C6.66 2.65 7.32 4.3 8 6 C7.21625 5.814375 6.4325 5.62875 5.625 5.4375 C3.02910225 4.74037734 3.02910225 4.74037734 1 6 C0.34 4.35 -0.32 2.7 -1 1 C-0.67 0.67 -0.34 0.34 0 0 Z " fill="#7C3334" transform="translate(332,124)"/>
<path d="M0 0 C1.9375 0.6875 1.9375 0.6875 4 2 C4.75 4.625 4.75 4.625 5 7 C3.35 6.67 1.7 6.34 0 6 C-1.125 2.25 -1.125 2.25 0 0 Z " fill="#871B21" transform="translate(420,105)"/>
<path d="M0 0 C1.32 0 2.64 0 4 0 C3.67 1.98 3.34 3.96 3 6 C1.68 6 0.36 6 -1 6 C-0.67 4.02 -0.34 2.04 0 0 Z " fill="#F4FDFD" transform="translate(293,117)"/>
<path d="M0 0 C0.99 0.33 1.98 0.66 3 1 C2.34 3.31 1.68 5.62 1 8 C0.01 6.68 -0.98 5.36 -2 4 C-1.34 2.68 -0.68 1.36 0 0 Z " fill="#F4F0EA" transform="translate(436,112)"/>
<path d="M0 0 C2.86724686 0.57344937 3.8614515 0.8614515 6 3 C6 3.66 6 4.32 6 5 C4.02 5 2.04 5 0 5 C0 3.35 0 1.7 0 0 Z " fill="#8A8A8A" transform="translate(315,86)"/>
<path d="M0 0 C0.33 0.66 0.66 1.32 1 2 C-0.25 5.5625 -0.25 5.5625 -2 9 C-2.99 9.33 -3.98 9.66 -5 10 C-4.125 5.25 -4.125 5.25 -3 3 C-2.34 3 -1.68 3 -1 3 C-0.67 2.01 -0.34 1.02 0 0 Z " fill="#813E41" transform="translate(64,61)"/>
<path d="M0 0 C0.99 0 1.98 0 3 0 C3 0.66 3 1.32 3 2 C2.34 2 1.68 2 1 2 C0.566875 3.7015625 0.566875 3.7015625 0.125 5.4375 C-0.24625 6.613125 -0.6175 7.78875 -1 9 C-1.99 9.495 -1.99 9.495 -3 10 C-2.67 8.68 -2.34 7.36 -2 6 C-2.66 5.67 -3.32 5.34 -4 5 C-2.1875 2.5 -2.1875 2.5 0 0 Z " fill="#ECD6D7" transform="translate(60,62)"/>
<path d="M0 0 C1.32 0 2.64 0 4 0 C4 1.32 4 2.64 4 4 C2.35 4.33 0.7 4.66 -1 5 C-1 1 -1 1 0 0 Z " fill="#8A8A8A" transform="translate(358,50)"/>
<path d="M0 0 C2.40072955 2.88087546 4.47291037 5.56404834 6 9 C5.01 9 4.02 9 3 9 C3 8.34 3 7.68 3 7 C2.34 7 1.68 7 1 7 C0.67 4.69 0.34 2.38 0 0 Z " fill="#F0DFDF" transform="translate(428,118)"/>
<path d="M0 0 C2.15377564 2.62198774 3.40072174 4.64404172 4 8 C3.34 8 2.68 8 2 8 C1.34 7.34 0.68 6.68 0 6 C-0.66 5.67 -1.32 5.34 -2 5 C-2.33 5.66 -2.66 6.32 -3 7 C-3 6.01 -3 5.02 -3 4 C-2.34 3.67 -1.68 3.34 -1 3 C-0.67 2.01 -0.34 1.02 0 0 Z " fill="#8C444A" transform="translate(300,109)"/>
<path d="M0 0 C2.31 0 4.62 0 7 0 C7.33 0.99 7.66 1.98 8 3 C5.69 3 3.38 3 1 3 C0.67 2.01 0.34 1.02 0 0 Z " fill="#7E1420" transform="translate(399,103)"/>
<path d="M0 0 C0.66 0.33 1.32 0.66 2 1 C1.21718695 2.33855056 0.42348123 3.67073644 -0.375 5 C-0.81585938 5.7425 -1.25671875 6.485 -1.7109375 7.25 C-2.34902344 8.11625 -2.34902344 8.11625 -3 9 C-3.66 9 -4.32 9 -5 9 C-4.38722388 6.03824877 -3.74627478 4.61941217 -2 2 C-1.34 2 -0.68 2 0 2 C0 1.34 0 0.68 0 0 Z " fill="#802F34" transform="translate(70,87)"/>
<path d="M0 0 C2.53408774 1.26704387 2.93209972 2.43123157 4.1875 4.9375 C4.55230469 5.64777344 4.91710937 6.35804687 5.29296875 7.08984375 C5.52628906 7.72019531 5.75960937 8.35054687 6 9 C5.67 9.66 5.34 10.32 5 11 C2 9 2 9 1.26953125 6.8359375 C1.11871094 6.02382812 0.96789062 5.21171875 0.8125 4.375 C0.65394531 3.55773437 0.49539062 2.74046875 0.33203125 1.8984375 C0.22246094 1.27195312 0.11289063 0.64546875 0 0 Z " fill="#925458" transform="translate(153,64)"/>
<path d="M0 0 C-2.64 1.65 -5.28 3.3 -8 5 C-8.33 3.68 -8.66 2.36 -9 1 C-3.375 -1.125 -3.375 -1.125 0 0 Z " fill="#773133" transform="translate(102,57)"/>
<path d="M0 0 C2.4375 0.625 2.4375 0.625 5 2 C5.8125 5.125 5.8125 5.125 6 8 C1.125 3.375 1.125 3.375 0 0 Z " fill="#F7E7E3" transform="translate(437,120)"/>
<path d="M0 0 C0.33 0.66 0.66 1.32 1 2 C1.66 2 2.32 2 3 2 C3 1.34 3 0.68 3 0 C4.32 0.33 5.64 0.66 7 1 C6.01 2.485 6.01 2.485 5 4 C2.375 4.1875 2.375 4.1875 0 4 C0 2.68 0 1.36 0 0 Z " fill="#80151A" transform="translate(385,104)"/>
<path d="M0 0 C1.98 0.495 1.98 0.495 4 1 C3.67 2.65 3.34 4.3 3 6 C2.01 6 1.02 6 0 6 C-0.33 5.01 -0.66 4.02 -1 3 C-0.34 3 0.32 3 1 3 C0.67 2.01 0.34 1.02 0 0 Z " fill="#F4F0F1" transform="translate(427,100)"/>
<path d="M0 0 C1.32 0 2.64 0 4 0 C4.33 1.98 4.66 3.96 5 6 C4.01 6.495 4.01 6.495 3 7 C2.01 4.69 1.02 2.38 0 0 Z " fill="#7A282C" transform="translate(127,61)"/>
<path d="M0 0 C0.75 1.75 0.75 1.75 1 4 C-0.9375 6.25 -0.9375 6.25 -3 8 C-3 3.73173127 -2.62386487 3.06117568 0 0 Z " fill="#F7EAE9" transform="translate(68,52)"/>
<path d="M0 0 C0.33 1.32 0.66 2.64 1 4 C1.66 4 2.32 4 3 4 C3 6.31 3 8.62 3 11 C2.67 11 2.34 11 2 11 C2 9.02 2 7.04 2 5 C0.35 4.67 -1.3 4.34 -3 4 C-2.01 2.68 -1.02 1.36 0 0 Z " fill="#EEE4E0" transform="translate(259,128)"/>
<path d="M0 0 C2.31 0 4.62 0 7 0 C6 2 6 2 2.9375 3.125 C1.4834375 3.558125 1.4834375 3.558125 0 4 C-0.33 3.34 -0.66 2.68 -1 2 C-0.67 1.34 -0.34 0.68 0 0 Z " fill="#F1F1F1" transform="translate(104,99)"/>
<path d="M0 0 C0.99 1.32 1.98 2.64 3 4 C1.71034824 5.37562854 0.37310707 6.70766393 -1 8 C-1.66 8 -2.32 8 -3 8 C-3.33 7.01 -3.66 6.02 -4 5 C-3.01 4.34 -2.02 3.68 -1 3 C-0.67 2.01 -0.34 1.02 0 0 Z " fill="#9B9B9B" transform="translate(351,63)"/>
<path d="M0 0 C2.35953094 2.35953094 2.49141413 3.77895617 3 7 C0.69 7 -1.62 7 -4 7 C-2.68 6.67 -1.36 6.34 0 6 C0 4.02 0 2.04 0 0 Z " fill="#82474D" transform="translate(310,132)"/>
<path d="M0 0 C2.0625 0.4375 2.0625 0.4375 4 1 C4 1.66 4 2.32 4 3 C2.02 3.99 0.04 4.98 -2 6 C-1.125 1.125 -1.125 1.125 0 0 Z " fill="#F8F6F5" transform="translate(329,127)"/>
<path d="M0 0 C4.55384615 -0.36923077 4.55384615 -0.36923077 6.8125 1.5 C7.204375 1.995 7.59625 2.49 8 3 C5.36 3 2.72 3 0 3 C0 2.01 0 1.02 0 0 Z " fill="#F4FDF6" transform="translate(400,98)"/>
<path d="M0 0 C0.99 0.33 1.98 0.66 3 1 C1.69593116 3.01920337 0.36176581 5.01924973 -1 7 C-1.33 7 -1.66 7 -2 7 C-2.125 4.625 -2.125 4.625 -2 2 C-1.34 1.34 -0.68 0.68 0 0 Z " fill="#782C2F" transform="translate(80,71)"/>
<path d="M0 0 C0.66 0.33 1.32 0.66 2 1 C2.33 1.99 2.66 2.98 3 4 C3.66 4.66 4.32 5.32 5 6 C3.02 6 1.04 6 -1 6 C-1.33 4.35 -1.66 2.7 -2 1 C-1.34 0.67 -0.68 0.34 0 0 Z " fill="#7B1923" transform="translate(138,50)"/>
<path d="M0 0 C0.99 0 1.98 0 3 0 C3 2.31 3 4.62 3 7 C1.68 6.01 0.36 5.02 -1 4 C-0.67 2.68 -0.34 1.36 0 0 Z " fill="#751A1E" transform="translate(202,129)"/>
<path d="M0 0 C-0.66 1.65 -1.32 3.3 -2 5 C-5 5 -5 5 -7 4 C-2.25 0 -2.25 0 0 0 Z " fill="#A0A0A0" transform="translate(100,106)"/>
</svg>
