<?xml version="1.0" encoding="UTF-8"?>
<svg version="1.1" xmlns="http://www.w3.org/2000/svg" width="447" height="447">
<path d="M0 0 C147.51 0 295.02 0 447 0 C447 147.51 447 295.02 447 447 C299.49 447 151.98 447 0 447 C0 299.49 0 151.98 0 0 Z " fill="#FEFEFE" transform="translate(0,0)"/>
<path d="M0 0 C4.95 0 9.9 0 15 0 C15 7.92 15 15.84 15 24 C15.66 24 16.32 24 17 24 C17 23.34 17 22.68 17 22 C18.98 21.67 20.96 21.34 23 21 C22.505 20.360625 22.01 19.72125 21.5 19.0625 C19.49318183 14.96524623 19.12081639 11.48546452 20 7 C23.19419325 2.82980325 26.4918903 0.37748684 31.69921875 -0.40625 C39.39599995 -0.64771765 44.26105774 0.73816695 50 6 C51.60331444 9.20662888 51.48652213 12.52103353 51 16 C49.1891409 19.03965634 48.09599977 20.60422231 44.75 21.8125 C44.1725 21.874375 43.595 21.93625 43 22 C43.66 22.99 44.32 23.98 45 25 C47.52328175 24.56495142 48.73159623 24.29077075 50.5 22.375 C50.995 21.92125 51.49 21.4675 52 21 C54.1875 21.3125 54.1875 21.3125 56 22 C55.938125 20.96875 55.87625 19.9375 55.8125 18.875 C56.11538402 12.61539699 58.35367074 9.378912 62.875 5.25 C68.96074704 -0.04817978 74.51562475 -0.48141448 82.3984375 -0.3984375 C87.67729151 0.1855572 93.15158257 2.15158257 97 6 C97.33 4.02 97.66 2.04 98 0 C103.28 0 108.56 0 114 0 C114.495 14.355 114.495 14.355 115 29 C116.98 29 118.96 29 121 29 C121.33 19.43 121.66 9.86 122 0 C131.24 0 140.48 0 150 0 C151.98 4.455 151.98 4.455 154 9 C156.475 4.545 156.475 4.545 159 0 C166.92 0 174.84 0 183 0 C182.67 0.99 182.34 1.98 182 3 C180.02 2.01 180.02 2.01 178 1 C177.67 1.66 177.34 2.32 177 3 C176.34 3 175.68 3 175 3 C174.46890625 3.94101563 173.9378125 4.88203125 173.390625 5.8515625 C172.67720096 7.10944172 171.96365265 8.36725047 171.25 9.625 C170.90195312 10.24246094 170.55390625 10.85992187 170.1953125 11.49609375 C169.84726562 12.10839844 169.49921875 12.72070312 169.140625 13.3515625 C168.78967773 13.97305176 168.43873047 14.59454102 168.07714844 15.23486328 C167 17 167 17 164.78125 19.78125 C162.21899084 24.41129726 162.32768672 28.66292719 162.25 33.875 C162.22035156 34.84953125 162.19070313 35.8240625 162.16015625 36.828125 C162.08985662 39.21831241 162.04261749 41.6091588 162 44 C157.05 44 152.1 44 147 44 C147.00902344 42.60007813 147.01804687 41.20015625 147.02734375 39.7578125 C147.06021851 26.09162154 147.06021851 26.09162154 140.49609375 14.44921875 C139.75552734 13.73185547 139.75552734 13.73185547 139 13 C138.98582031 14.27875 138.97164062 15.5575 138.95703125 16.875 C138.91009806 18.58336796 138.86185088 20.29170017 138.8125 22 C138.80379883 23.25876953 138.80379883 23.25876953 138.79492188 24.54296875 C138.57692914 30.79209369 137.08142737 35.19344594 133 40 C127.22700808 44.73664637 120.80726703 44.47169264 113.5859375 44.53125 C107.14577407 43.57715171 102.79466127 39.10970966 98 35 C97.67 35.99 97.34 36.98 97 38 C88.96960624 44.16286033 80.87884856 45.07426941 71 44 C64.76190199 41.92360452 60.78715159 38.25314575 57 33 C56.67487761 36.01261802 56.67487761 36.01261802 58.53125 37.7890625 C59.50578125 38.69785156 59.50578125 38.69785156 60.5 39.625 C61.68062146 40.73534638 62.85105004 41.85691203 64 43 C64 43.33 64 43.66 64 44 C61.24940619 44.08107646 58.50120979 44.14052813 55.75 44.1875 C54.58404297 44.22520508 54.58404297 44.22520508 53.39453125 44.26367188 C47.57002825 44.33834499 47.57002825 44.33834499 44.453125 42.48828125 C43.97359375 41.99714844 43.4940625 41.50601563 43 41 C42.154375 41.48726562 41.30875 41.97453125 40.4375 42.4765625 C36.65756599 44.15176053 34.11101394 44.40204614 30 44.375 C28.824375 44.38273437 27.64875 44.39046875 26.4375 44.3984375 C22.70309278 43.96558575 20.2370343 42.86524232 17 41 C17 40.34 17 39.68 17 39 C16.34 39 15.68 39 15 39 C15 40.65 15 42.3 15 44 C10.05 44 5.1 44 0 44 C0 29.48 0 14.96 0 0 Z " fill="#070707" transform="translate(190,195)"/>
<path d="M0 0 C10.89 0 21.78 0 33 0 C33 1.98 33 3.96 33 6 C33.62648437 5.65066406 34.25296875 5.30132812 34.8984375 4.94140625 C35.71570313 4.48636719 36.53296875 4.03132812 37.375 3.5625 C38.18710938 3.11003906 38.99921875 2.65757812 39.8359375 2.19140625 C45.56619883 -0.96334051 52.01400918 -0.88433075 58.39453125 0.53125 C62.51728713 1.98170331 65.86568589 3.96363321 69 7 C69 7.66 69 8.32 69 9 C69.66 9 70.32 9 71 9 C71 6.03 71 3.06 71 0 C84.16984006 -1.35719726 84.16984006 -1.35719726 88.0859375 1.546875 C89.67598616 3.95390999 90.82858481 6.36251917 92 9 C93.39530734 11.56761294 93.39530734 11.56761294 94.81005859 14.12451172 C96.24209334 16.7305392 97.61507162 19.36863607 99 22 C99 14.74 99 7.48 99 0 C103.95 0 108.9 0 114 0 C114 14.52 114 29.04 114 44 C109.05 44 104.1 44 99 44 C96.14383093 40.42978866 94.36338916 38.06581627 92.5 34.125 C90.50203931 29.9265826 88.33040246 26.0782043 86 22 C86 29.59 86 37.18 86 45 C80.72 45 75.44 45 70 45 C69.505 41.535 69.505 41.535 69 38 C68.45730469 38.34933594 67.91460937 38.69867188 67.35546875 39.05859375 C66.64003906 39.51363281 65.92460937 39.96867187 65.1875 40.4375 C64.47980469 40.88996094 63.77210938 41.34242188 63.04296875 41.80859375 C56.79834731 45.45029459 47.34510945 45.10288711 40.4453125 43.3515625 C34.30803409 40.55754859 30.14381949 35.80755693 27.625 29.625 C26.7034305 24.27989692 26.26967105 19.19098685 28 14 C26.68 14 25.36 14 24 14 C24 23.9 24 33.8 24 44 C19.05 44 14.1 44 9 44 C9 34.43 9 24.86 9 15 C6.03 15 3.06 15 0 15 C0 10.05 0 5.1 0 0 Z " fill="#060606" transform="translate(74,195)"/>
<path d="M0 0 C5.23341202 4.94266691 9.17292948 8.74352727 9.390625 16.1796875 C9.36425232 18.07852048 9.31686153 19.9771613 9.25 21.875 C9.23195313 22.84953125 9.21390625 23.8240625 9.1953125 24.828125 C9.14842913 27.21917673 9.07669352 29.60971873 9 32 C13.95 32 18.9 32 24 32 C24 25.07 24 18.14 24 11 C25.87178071 14.74356142 26.24942415 15.50806195 25.9765625 19.328125 C25.89921875 20.52695313 25.89921875 20.52695313 25.8203125 21.75 C25.75585938 22.575 25.69140625 23.4 25.625 24.25 C25.53992188 25.51070312 25.53992188 25.51070312 25.453125 26.796875 C25.31209668 28.86529042 25.15738212 30.9327646 25 33 C19.39 33 13.78 33 8 33 C8 33.99 8 34.98 8 36 C8.66 36 9.32 36 10 36 C10 40.62 10 45.24 10 50 C6.54926675 47.07013215 3.20189285 44.20189285 0 41 C-0.33 43.97 -0.66 46.94 -1 50 C-2.65 50 -4.3 50 -6 50 C-6.495 44.06 -6.495 44.06 -7 38 C-7.66 38.66 -8.32 39.32 -9 40 C-10.65 39.34 -12.3 38.68 -14 38 C-12.75453595 41.73639216 -11.36595047 42.18756513 -8 44 C-8.75 48.75 -8.75 48.75 -11 51 C-13.32817964 51.36760731 -15.6618385 51.70241581 -18 52 C-18.33 52.33 -18.66 52.66 -19 53 C-19.66 53 -20.32 53 -21 53 C-21 52.34 -21 51.68 -21 51 C-22.65 50.34 -24.3 49.68 -26 49 C-26 48.34 -26 47.68 -26 47 C-25.34 47 -24.68 47 -24 47 C-24 47.66 -24 48.32 -24 49 C-22.02 48.505 -22.02 48.505 -20 48 C-20.495 46.02 -20.495 46.02 -21 44 C-22.65 43.67 -24.3 43.34 -26 43 C-26.33 41.35 -26.66 39.7 -27 38 C-28.98 38 -30.96 38 -33 38 C-33 39.32 -33 40.64 -33 42 C-31.35 42 -29.7 42 -28 42 C-28 42.33 -28 42.66 -28 43 C-29.65 43 -31.3 43 -33 43 C-33 44.98 -33 46.96 -33 49 C-31.35 49 -29.7 49 -28 49 C-28 49.33 -28 49.66 -28 50 C-30.31 50 -32.62 50 -35 50 C-35.33 49.34 -35.66 48.68 -36 48 C-36 48.99 -36 49.98 -36 51 C-36.66 51 -37.32 51 -38 51 C-38.433125 50.0409375 -38.433125 50.0409375 -38.875 49.0625 C-39.82823451 46.84793921 -39.82823451 46.84793921 -42 46 C-42.33 47.32 -42.66 48.64 -43 50 C-43 48.35 -43 46.7 -43 45 C-43.680625 45.825 -44.36125 46.65 -45.0625 47.5 C-48.6953862 50.59181805 -50.37622296 50.2178458 -55 50 C-55.02691685 47.54159395 -55.04679802 45.08348118 -55.0625 42.625 C-55.07087891 41.92632812 -55.07925781 41.22765625 -55.08789062 40.5078125 C-55.11328125 35.2265625 -55.11328125 35.2265625 -54 33 C-57.3 33 -60.6 33 -64 33 C-64 32.67 -64 32.34 -64 32 C-63.31035156 31.97421875 -62.62070312 31.9484375 -61.91015625 31.921875 C-54.03205947 31.44637945 -47.48067888 30.05620584 -41.4375 24.75 C-40.963125 24.1725 -40.48875 23.595 -40 23 C-37.25123592 24.16293865 -35.13339258 25.64729453 -32.875 27.5625 C-27.05732566 32.49487607 -20.27258013 31.52536699 -13 31 C-8.06531186 29.78282581 -5.81414771 28.13067892 -2.83984375 24 C-0.32341881 19.36893226 -0.33193058 14.73529864 -0.25 9.5625 C-0.20552734 8.17901367 -0.20552734 8.17901367 -0.16015625 6.76757812 C-0.09002327 4.51163399 -0.0370525 2.25668881 0 0 Z " fill="#E5E5E5" transform="translate(328,207)"/>
<path d="M0 0 C2.74876408 1.16293865 4.86660742 2.64729453 7.125 4.5625 C11.18517297 8.00482056 13.36170708 8.20129362 18.625 8.5625 C19.81351562 8.64628906 21.00203125 8.73007813 22.2265625 8.81640625 C23.14179688 8.87699219 24.05703125 8.93757812 25 9 C25 9.33 25 9.66 25 10 C22.36 10.33 19.72 10.66 17 11 C18.32 11.99 19.64 12.98 21 14 C20.67 14.66 20.34 15.32 20 16 C18.68 15.67 17.36 15.34 16 15 C16.7763932 18.0745356 16.7763932 18.0745356 19 20 C17.35 20 15.7 20 14 20 C13.67 18.35 13.34 16.7 13 15 C11.02 15 9.04 15 7 15 C7 16.32 7 17.64 7 19 C8.65 19 10.3 19 12 19 C12 19.33 12 19.66 12 20 C10.35 20 8.7 20 7 20 C7 21.98 7 23.96 7 26 C8.65 26 10.3 26 12 26 C12 26.33 12 26.66 12 27 C9.69 27 7.38 27 5 27 C4.67 26.34 4.34 25.68 4 25 C4 25.99 4 26.98 4 28 C3.34 28 2.68 28 2 28 C1.71125 27.360625 1.4225 26.72125 1.125 26.0625 C0.17176549 23.84793921 0.17176549 23.84793921 -2 23 C-2.33 24.32 -2.66 25.64 -3 27 C-3 25.35 -3 23.7 -3 22 C-3.680625 22.825 -4.36125 23.65 -5.0625 24.5 C-8.6953862 27.59181805 -10.37622296 27.2178458 -15 27 C-15.02691685 24.54159395 -15.04679802 22.08348118 -15.0625 19.625 C-15.07087891 18.92632812 -15.07925781 18.22765625 -15.08789062 17.5078125 C-15.11328125 12.2265625 -15.11328125 12.2265625 -14 10 C-17.3 10 -20.6 10 -24 10 C-24 9.67 -24 9.34 -24 9 C-23.31035156 8.97421875 -22.62070312 8.9484375 -21.91015625 8.921875 C-14.03205947 8.44637945 -7.48067888 7.05620584 -1.4375 1.75 C-0.963125 1.1725 -0.48875 0.595 0 0 Z " fill="#EDEDED" transform="translate(288,230)"/>
<path d="M0 0 C0 1.98 0 3.96 0 6 C-6.27 6 -12.54 6 -19 6 C-19 9.3 -19 12.6 -19 16 C-17.02 16 -15.04 16 -13 16 C-13.66 17.32 -14.32 18.64 -15 20 C-20.15603799 20.5156038 -20.15603799 20.5156038 -23 20 C-26.06381693 16.85958765 -26.89227179 14.76756348 -27.5 10.4375 C-26.91912703 6.44399832 -25.82477169 4.82477169 -23 2 C-20.26094655 0.63047327 -18.02912668 0.87378639 -15 1 C-14.34 1.33 -13.68 1.66 -13 2 C-13 2.66 -13 3.32 -13 4 C-12.31292969 3.71125 -11.62585938 3.4225 -10.91796875 3.125 C-10.01691406 2.75375 -9.11585938 2.3825 -8.1875 2 C-7.29417969 1.62875 -6.40085937 1.2575 -5.48046875 0.875 C-3 0 -3 0 0 0 Z " fill="#E9E9E9" transform="translate(288,207)"/>
<path d="M0 0 C4.63235294 2.26470588 4.63235294 2.26470588 6 5 C6.41314256 9.6478538 5.78987316 12.24440152 3 16 C0.11138291 17.44430855 -1.79647701 17.37688506 -5 17 C-7.86972996 15.00366611 -9.65210765 13.52770117 -10.44921875 10.02734375 C-10.63473458 6.60489653 -10.24266544 4.37333144 -8.375 1.5 C-5.28147204 -0.45380713 -3.60630834 -0.51518691 0 0 Z " fill="#F3F3F3" transform="translate(127,209)"/>
<path d="M0 0 C3.5 1.125 3.5 1.125 6.0625 3.875 C7.5 7.125 7.5 7.125 6.875 9.875 C5.5 12.125 5.5 12.125 3.5 14.125 C-0.39201406 14.55744601 -2.63230302 14.70346465 -5.9375 12.5 C-7.97161336 9.40814769 -8.10605429 7.76132575 -7.5 4.125 C-5.24935527 0.61399423 -4.19521571 0.14982913 0 0 Z " fill="#BFBFBF" transform="translate(347.5,242.875)"/>
<path d="M0 0 C0.2475 0.61875 0.495 1.2375 0.75 1.875 C2.22879539 4.38895216 3.37921165 4.8534051 6 6 C6.66 6.66 7.32 7.32 8 8 C7.625 10.125 7.625 10.125 7 12 C5.68 12 4.36 12 3 12 C3 11.34 3 10.68 3 10 C2.443125 10.515625 1.88625 11.03125 1.3125 11.5625 C-1 13 -1 13 -6 12 C-6 8.37 -6 4.74 -6 1 C-4.02 0.67 -2.04 0.34 0 0 Z " fill="#F5F5F5" transform="translate(301,244)"/>
<path d="M0 0 C5.28 0 10.56 0 16 0 C16.33 1.32 16.66 2.64 17 4 C15 5 15 5 11.5625 4.375 C8.17963186 3.6754708 8.17963186 3.6754708 6.1875 5 C4.49578181 7.84920959 3.78529682 10.79840528 3 14 C2.67 14 2.34 14 2 14 C2 10.37 2 6.74 2 3 C1.34 3 0.68 3 0 3 C0 2.01 0 1.02 0 0 Z " fill="#F8F8F8" transform="translate(336,240)"/>
<path d="M0 0 C1.67542976 0.28604898 3.34385343 0.61781233 5 1 C5.33 2.65 5.66 4.3 6 6 C5.01 6.33 4.02 6.66 3 7 C3.7734375 8.175625 3.7734375 8.175625 4.5625 9.375 C5.036875 10.24125 5.51125 11.1075 6 12 C5.67 12.66 5.34 13.32 5 14 C4.01 12.68 3.02 11.36 2 10 C1.67 11.32 1.34 12.64 1 14 C0.34 14 -0.32 14 -1 14 C-1.02685938 11.85423363 -1.04633088 9.70837355 -1.0625 7.5625 C-1.07410156 6.36753906 -1.08570313 5.17257813 -1.09765625 3.94140625 C-1 1 -1 1 0 0 Z " fill="#A5A5A5" transform="translate(265,243)"/>
<path d="M0 0 C2.64 0.99 5.28 1.98 8 3 C7.67 3.66 7.34 4.32 7 5 C5.68 4.67 4.36 4.34 3 4 C3.7763932 7.0745356 3.7763932 7.0745356 6 9 C4.35 9 2.7 9 1 9 C0.67 7.35 0.34 5.7 0 4 C-1.98 4 -3.96 4 -6 4 C-6 5.32 -6 6.64 -6 8 C-4.35 8 -2.7 8 -1 8 C-1 8.33 -1 8.66 -1 9 C-2.65 9 -4.3 9 -6 9 C-6 10.98 -6 12.96 -6 15 C-4.35 15 -2.7 15 -1 15 C-1 15.33 -1 15.66 -1 16 C-2.98 16 -4.96 16 -7 16 C-7 11.38 -7 6.76 -7 2 C-4.69 2 -2.38 2 0 2 C0 1.34 0 0.68 0 0 Z " fill="#9C9C9C" transform="translate(301,241)"/>
<path d="M0 0 C0.66 0 1.32 0 2 0 C2 4.62 2 9.24 2 14 C0.68 14 -0.64 14 -2 14 C-2.33 12.68 -2.66 11.36 -3 10 C-7.47883696 10.44703986 -7.47883696 10.44703986 -11 13 C-10.39009109 9.44219804 -9.4216319 6.3171411 -8 3 C-7 6 -7 6 -8 9 C-6.68 9 -5.36 9 -4 9 C-4.33 7.35 -4.66 5.7 -5 4 C-3 6 -3 6 -2 9 C-1.34 9.33 -0.68 9.66 0 10 C-0.33 9.01 -0.66 8.02 -1 7 C-0.72230092 4.6593935 -0.39460023 2.32375692 0 0 Z " fill="#979797" transform="translate(260,243)"/>
<path d="M0 0 C1.65 0 3.3 0 5 0 C6.53656962 2.4404341 7.02089707 3.70744102 6.8125 6.625 C6 9 6 9 3 11 C2.01 11 1.02 11 0 11 C0 7.37 0 3.74 0 0 Z " fill="#F8F8F8" transform="translate(275,245)"/>
<path d="M0 0 C6 0 6 0 8.375 1.625 C10.4753727 4.69477548 10.53293835 6.34556561 10 10 C8.9375 12.375 8.9375 12.375 7 14 C4.69 14 2.38 14 0 14 C0 9.38 0 4.76 0 0 Z M2 2 C2 5.63 2 9.26 2 13 C3.65 12.67 5.3 12.34 7 12 C9.31140296 9.23851844 9.31140296 9.23851844 8.6875 6.4375 C8.08760162 4.01885389 8.08760162 4.01885389 7 2 C5.35 2 3.7 2 2 2 Z " fill="#929292" transform="translate(273,243)"/>
<path d="M0 0 C0.495 0.721875 0.99 1.44375 1.5 2.1875 C4.58567566 5.65888511 7.99631864 7.7163468 12 10 C10.13807717 11.99267584 8.61007042 12.92846769 5.88867188 13.24755859 C3.33688446 13.29513603 0.80115255 13.26098224 -1.75 13.1875 C-2.63816406 13.17396484 -3.52632812 13.16042969 -4.44140625 13.14648438 C-6.62822578 13.11121309 -8.81379966 13.06192752 -11 13 C-10.67 12.34 -10.34 11.68 -10 11 C-4.72 11 0.56 11 6 11 C3.36 8.36 0.72 5.72 -2 3 C-1.34 2.01 -0.68 1.02 0 0 Z " fill="#C5C5C5" transform="translate(247,227)"/>
<path d="M0 0 C1.65 0 3.3 0 5 0 C6.10370043 3.3111013 5.92673641 5.24748949 5.5625 8.6875 C5.46066406 9.68136719 5.35882813 10.67523438 5.25390625 11.69921875 C5.12822266 12.83810547 5.12822266 12.83810547 5 14 C3.35 14 1.7 14 0 14 C0 9.38 0 4.76 0 0 Z " fill="#9A9A9A" transform="translate(322,243)"/>
<path d="M0 0 C1.65 0 3.3 0 5 0 C6 1 6 1 6.1875 3.9375 C6 7 6 7 4 9 C3.67 9.66 3.34 10.32 3 11 C2.34 10.67 1.68 10.34 1 10 C0.67 11.32 0.34 12.64 0 14 C0 9.38 0 4.76 0 0 Z " fill="#BCBCBC" transform="translate(285,243)"/>
<path d="M0 0 C1.32 0.66 2.64 1.32 4 2 C4 2.66 4 3.32 4 4 C6.64 4.33 9.28 4.66 12 5 C11.01 6.485 11.01 6.485 10 8 C7.67843403 8.40729228 5.3431213 8.74438677 3 9 C2.67 9.33 2.34 9.66 2 10 C1.34 10 0.68 10 0 10 C0 9.34 0 8.68 0 8 C-2.475 7.01 -2.475 7.01 -5 6 C-5 5.34 -5 4.68 -5 4 C-4.34 4 -3.68 4 -3 4 C-3 4.66 -3 5.32 -3 6 C-1.68 5.67 -0.36 5.34 1 5 C0.67 3.35 0.34 1.7 0 0 Z " fill="#ABABAB" transform="translate(307,250)"/>
<path d="M0 0 C0.33 0 0.66 0 1 0 C1.08107583 1.93681161 1.13922475 3.8745934 1.1875 5.8125 C1.22230469 6.89144531 1.25710938 7.97039062 1.29296875 9.08203125 C1 12 1 12 -0.51171875 13.88671875 C-1.00285156 14.25410156 -1.49398438 14.62148438 -2 15 C-2 12.66666667 -2 10.33333333 -2 8 C-3.64821244 6.96986723 -5.31503702 5.96885372 -7 5 C-7 4.01 -7 3.02 -7 2 C-4.525 2.495 -4.525 2.495 -2 3 C-1.34 2.01 -0.68 1.02 0 0 Z " fill="#F8F8F8" transform="translate(321,243)"/>
<path d="M0 0 C0 1.98 0 3.96 0 6 C-4.62 6 -9.24 6 -14 6 C-12.68 5.67 -11.36 5.34 -10 5 C-10 4.34 -10 3.68 -10 3 C-3.375 0 -3.375 0 0 0 Z " fill="#F0F0F0" transform="translate(288,207)"/>
<path d="M0 0 C0.33 0 0.66 0 1 0 C1.33 7.59 1.66 15.18 2 23 C-1.37641082 19.62358918 -2.27450305 17.35482564 -4 13 C-3.01 13.33 -2.02 13.66 -1 14 C-0.67 9.38 -0.34 4.76 0 0 Z " fill="#DFDFDF" transform="translate(172,195)"/>
<path d="M0 0 C4.455 0.99 4.455 0.99 9 2 C8.67 2.99 8.34 3.98 8 5 C4.625 5.625 4.625 5.625 1 6 C0.34 5.34 -0.32 4.68 -1 4 C-0.67 2.68 -0.34 1.36 0 0 Z " fill="#F7F7F7" transform="translate(343,250)"/>
<path d="M0 0 C0.33 0 0.66 0 1 0 C1 4.29 1 8.58 1 13 C0.34 12.34 -0.32 11.68 -1 11 C-1 11.99 -1 12.98 -1 14 C-1.66 14 -2.32 14 -3 14 C-3.66 11.69 -4.32 9.38 -5 7 C-4.0409375 6.6596875 -4.0409375 6.6596875 -3.0625 6.3125 C-0.72806339 5.14749104 -0.72806339 5.14749104 -0.25 2.375 C-0.1675 1.59125 -0.085 0.8075 0 0 Z " fill="#D6D6D6" transform="translate(293,244)"/>
<path d="M0 0 C2.46800047 1.15173355 4.04783565 2.04783565 6 4 C6 4.99 6 5.98 6 7 C3.69 7 1.38 7 -1 7 C-1.04254356 5.00045254 -1.04080783 2.99958364 -1 1 C-0.67 0.67 -0.34 0.34 0 0 Z " fill="#CCCCCC" transform="translate(219,222)"/>
<path d="M0 0 C0 3.63 0 7.26 0 11 C-0.66 11 -1.32 11 -2 11 C-5 6.61538462 -5 6.61538462 -5 4 C-1.35294118 0 -1.35294118 0 0 0 Z " fill="#F4F4F4" transform="translate(273,246)"/>
<path d="M0 0 C0.66 0 1.32 0 2 0 C3.10370043 3.3111013 2.92673641 5.24748949 2.5625 8.6875 C2.40974609 10.17830078 2.40974609 10.17830078 2.25390625 11.69921875 C2.12822266 12.83810547 2.12822266 12.83810547 2 14 C1.34 14 0.68 14 0 14 C0 9.38 0 4.76 0 0 Z " fill="#949494" transform="translate(325,243)"/>
<path d="M0 0 C0.66 1.32 1.32 2.64 2 4 C1.34 4.66 0.68 5.32 0 6 C0 5.34 0 4.68 0 4 C-1.98 4.33 -3.96 4.66 -6 5 C-6 3.68 -6 2.36 -6 1 C-4.02 0.67 -2.04 0.34 0 0 Z " fill="#FBFBFB" transform="translate(301,244)"/>
<path d="M0 0 C2.0625 0.4375 2.0625 0.4375 4 1 C4 2.32 4 3.64 4 5 C2.68 5.33 1.36 5.66 0 6 C-0.38218767 4.34385343 -0.71395102 2.67542976 -1 1 C-0.67 0.67 -0.34 0.34 0 0 Z " fill="#D5D5D5" transform="translate(225,204)"/>
<path d="M0 0 C0.33 0 0.66 0 1 0 C1 1.98 1 3.96 1 6 C1.66 6 2.32 6 3 6 C3.33 7.32 3.66 8.64 4 10 C3.01 9.67 2.02 9.34 1 9 C0.67 10.32 0.34 11.64 0 13 C0 8.71 0 4.42 0 0 Z " fill="#6F6F6F" transform="translate(285,244)"/>
<path d="M0 0 C0.66 0 1.32 0 2 0 C2.33 2.64 2.66 5.28 3 8 C1.68 8 0.36 8 -1 8 C-0.67 5.36 -0.34 2.72 0 0 Z " fill="#BEBEBE" transform="translate(253,244)"/>
<path d="M0 0 C0.66 0.33 1.32 0.66 2 1 C1.67 1.99 1.34 2.98 1 4 C0.34 4 -0.32 4 -1 4 C-1.33 4.66 -1.66 5.32 -2 6 C-2.99 6.66 -3.98 7.32 -5 8 C-5.33 7.01 -5.66 6.02 -6 5 C-5.38125 4.731875 -4.7625 4.46375 -4.125 4.1875 C-1.7004767 3.04443152 -1.7004767 3.04443152 0 0 Z " fill="#D8D8D8" transform="translate(239,212)"/>
<path d="M0 0 C1.67542976 0.28604898 3.34385343 0.61781233 5 1 C3.37633534 4.24732932 0.24612161 4.70155136 -3 6 C-1.125 1.125 -1.125 1.125 0 0 Z " fill="#D8D8D8" transform="translate(366,196)"/>
<path d="M0 0 C0.99 0 1.98 0 3 0 C2.67 3.63 2.34 7.26 2 11 C1.67 11 1.34 11 1 11 C0.67 7.37 0.34 3.74 0 0 Z " fill="#F1F1F1" transform="translate(99,210)"/>
</svg>
